<svg xmlns="http://www.w3.org/2000/svg" viewBox="0 0 499.69 499.69"><defs><style>.cls-1{fill:#fff;}</style></defs><title>Account Icon</title><g id="Layer_2" data-name="Layer 2"><g id="Layer_1-2" data-name="Layer 1"><path class="cls-1" d="M0,249.54C.14,110.77,114.27-2.81,255.15.05,392.09,2.84,502.51,116.53,499.63,255.17,496.8,391.4,384,502.7,244.22,499.63,108,496.63-.19,384.82,0,249.54Zm81.25,154.4c13.14-68.21,52.41-113.79,117.35-137.5-53.39-31.1-66.79-103.35-26.95-151.9a101,101,0,0,1,145.4-11.32c20.91,18.56,32.62,42.13,33.79,70.06,1.7,40.52-16,71.23-49.63,93.19C366.27,290.31,405.5,336,418.5,404c76.58-80.88,85.64-220.58-5.12-314.07C322-4.16,169.42-1.64,80.93,95.7-5.85,191.16,8.05,327.48,81.25,403.94Zm173,74.87c5.66-.46,15.87-.88,26-2.22,43.83-5.81,82.66-23.16,116.57-51.5a5.32,5.32,0,0,0,1.71-3.91c-.77-7.65-1.35-15.37-2.89-22.88-16-78.32-92.71-130.06-171.63-116C156.45,294.37,105.54,351,101.23,418.62c-.23,3.61.7,5.88,3.54,8.17C147.08,460.89,195.39,478.13,254.24,478.81ZM169.65,178.73c-.19,45.39,37.61,81.37,81.95,80.42,41.42-.89,78.24-34.5,78.54-80.14.28-44.34-35.95-80.34-80.77-80.4C205.64,98.55,169.79,134.59,169.65,178.73Z"/></g></g></svg>