<svg xmlns="http://www.w3.org/2000/svg" viewBox="0 0 499.4 500"><defs><style>.cls-1{fill:#fff;}</style></defs><title>Album Icon</title><g id="Layer_2" data-name="Layer 2"><g id="Layer_1-2" data-name="Layer 1"><path class="cls-1" d="M226.7,57.32H436.2c13.07,0,16.52,4.33,16.52,20.59q0,200.56,0,401.14c0,16.89-3.23,20.93-16.85,20.93h-419C3.21,500,0,496,0,479Q0,277.68,0,76.3c0-14.31,3.91-19,15.87-19ZM23.56,471.1H429.14V86.27H23.56Z"/><path class="cls-1" d="M475.82,28.72H70.36c-.27,6.85-.54,13.62-.83,20.87H47.12c0-13-.5-26,.2-39C47.71,3.51,52.92.12,60.81.08,82.13,0,103.45,0,124.77,0l357,.05c14.66,0,17.66,3.67,17.65,21.54l0,399.51c0,17.83-3.07,21.54-17.74,21.54H459.1V414.3h16.72Z"/><path class="cls-1" d="M46,430.63c8.29-10.83,15.71-20.56,23.17-30.26C92.75,369.66,116.37,339,140.19,308l22,21.07,45.87-58.32L276,351.08l34.21-44.79,96.67,124.34Z"/><path class="cls-1" d="M304.53,122c28.05-.13,51.09,28,51.31,62.65.22,34.38-22.77,63.08-50.75,63.38-28.27.29-51.73-28.37-51.64-63.1S276.38,122.16,304.53,122Z"/></g></g></svg>