<svg xmlns="http://www.w3.org/2000/svg" viewBox="0 0 499.71 498.92"><defs><style>.cls-1{fill:#fff;}</style></defs><title>Analytics Icon</title><g id="Layer_2" data-name="Layer 2"><g id="Layer_1-2" data-name="Layer 1"><path class="cls-1" d="M420.31,302q0-79.23,0-158.46c0-21.94,16.48-38,39.19-38.29s40.16,16.13,40.17,38.25q.06,158.82,0,317.62c0,18.3-12.64,33.09-30.86,36.58-18.63,3.58-37.19-4.15-44.57-19.6a43.83,43.83,0,0,1-3.79-18.34C420.18,407.2,420.31,354.61,420.31,302Z"/><path class="cls-1" d="M140.37,349.51c0-37.41-.09-74.82,0-112.22.06-15.62,10.13-28.39,25.78-33.46,15.86-5.15,32.68-1.15,43.9,10.49a33.41,33.41,0,0,1,9.52,23.89q.09,111.17,0,222.35c0,15.57-7,27.76-23,34.61-14.75,6.32-29,4.56-41.74-4.54-9.94-7.11-14.63-16.65-14.6-28.19.11-37.64,0-75.28,0-112.93Z"/><path class="cls-1" d="M79.41,389q0,36.09,0,72.18c0,21.49-17.3,37.73-40,37.61C17.15,498.67.09,482.53.06,461.25q-.12-72.54,0-145.08c0-21.75,17-37.44,40-37.37,22.53.07,39.24,15.87,39.3,37.3C79.46,340.39,79.41,364.69,79.41,389Z"/><path class="cls-1" d="M359.39,388.73c0,24.3.09,48.59,0,72.89-.11,21.38-17,37.07-39.57,37.09-21.92,0-39.56-15.84-39.65-36.49q-.34-73.59,0-147.18c.11-18.66,14.55-33.65,33.49-36,20.09-2.47,38.08,7.6,44,25.07a39.64,39.64,0,0,1,1.62,12.42C359.46,340.6,359.39,364.67,359.39,388.73Z"/><path class="cls-1" d="M455.25,46.79c-.71.47-3.76,1.62-5.43,3.67Q397.35,115,345.31,179.88A9.5,9.5,0,0,0,344.1,188c3.45,9.9,1.77,18.59-6.55,25.77-7.64,6.6-16.93,8.09-26.75,4.78-10.87-3.66-16-11.17-17.18-21.47a11.22,11.22,0,0,0-5.09-7.46q-43.71-24.5-87.91-48.29a12.73,12.73,0,0,0-8.92-.56,34,34,0,0,1-23.51,0c-2.61-.92-6.72-.87-9,.38-29.66,16-59.09,32.39-88.71,48.48-3.93,2.14-4.83,4.64-5,8.51-.37,11.29-10.11,20.5-22.31,21.75-13.22,1.35-25.62-6-28.71-17s2.79-23.6,14.8-27c6.63-1.89,14.52-.12,21.85-.12,3.29,0,7.27.71,9.77-.64,29-15.62,57.78-31.62,86.7-47.39,4-2.21,6.29-4.38,6.47-9.19.51-12.93,11.95-22.1,26.17-22,13.91.11,24.6,9.77,25.86,22.62a10.89,10.89,0,0,0,4.78,7.53C240,143,269.39,159,298.57,175.25c3.83,2.13,6.78,2.33,10.7.39,2.61-1.29,6.1-2.31,8.92-1.9,7.13,1,10.69-2.27,14.44-6.94Q382.85,104.24,433.5,42c2.77-3.41,4.13-6.18,2.2-10.68-4.46-10.41-.29-20.84,9.78-27.14a27.5,27.5,0,0,1,29.88.58c9.17,6.16,12.87,16.71,9.21,26.25C480.7,41,470.18,47.33,455.25,46.79Z"/></g></g></svg>