<svg xmlns="http://www.w3.org/2000/svg" viewBox="0 0 498.94 498.94"><defs><style>.cls-1{fill:#fff;}</style></defs><title>Calendar Icon</title><g id="Layer_2" data-name="Layer 2"><g id="Layer_1-2" data-name="Layer 1"><path class="cls-1" d="M386.15,40.2c.64-13.82,1.22-26.37,1.85-40h18.54V40.62h92.4V498.94H0V41.19H93.27V0h18.24c.64,13.31,1.26,26.36,1.92,40.2ZM479.27,480V166.12H20.08V480ZM19.51,144.19H479.4V61.62H407.52c-.7,6.95-1.27,12.52-1.95,19.23l-16.92-.94c-1.12-6.85-2-12.32-3-18.52H113.74c-1,6.91-1.86,12.92-2.83,19.65l-16.26-.92c-1.21-6.85-2.28-12.82-3.2-18H19.51Z"/><path class="cls-1" d="M415.47,332h-38v-38.8h38Z"/><path class="cls-1" d="M268.18,258.7h-37V219.79h37Z"/><path class="cls-1" d="M303.87,219.58h37.92v38.74H303.87Z"/><path class="cls-1" d="M230.46,331.5V293.14h37.61V331.5Z"/><path class="cls-1" d="M122.52,366.36v38.78H84.18V366.36Z"/><path class="cls-1" d="M195.62,366.25v38.87H157.51V366.25Z"/><path class="cls-1" d="M268.62,405.6H231.07v-39h37.55Z"/><path class="cls-1" d="M304,366.35h37.65v38.94H304Z"/><path class="cls-1" d="M84,332V293.24H122V332Z"/><path class="cls-1" d="M195.72,292.88v38.53H157.43V292.88Z"/><path class="cls-1" d="M304.09,292.47h37.12v38.81H304.09Z"/><path class="cls-1" d="M195.18,220.27v38.18H157.41V220.27Z"/><path class="cls-1" d="M415.72,219.72v38H377.06v-38Z"/></g></g></svg>