<?xml version="1.0" encoding="utf-8"?>
<!-- Generator: Adobe Illustrator 23.0.0, SVG Export Plug-In . SVG Version: 6.00 Build 0)  -->
<svg version="1.1" id="Layer_1" xmlns="http://www.w3.org/2000/svg" xmlns:xlink="http://www.w3.org/1999/xlink" x="0px" y="0px"
	 viewBox="0 0 498.9 498.9" style="enable-background:new 0 0 498.9 498.9;" xml:space="preserve">
<style type="text/css">
	.st0{fill:#939393;}
</style>
<g>
	<g id="Layer_1-2">
		<path class="st0" d="M386.1,40.2c0.6-13.8,1.2-26.4,1.9-40h18.5v40.4h92.4v458.3H0V41.2h93.3V0h18.2c0.6,13.3,1.3,26.4,1.9,40.2
			H386.1z M479.3,480V166.1H20.1V480H479.3z M19.5,144.2h459.9V61.6h-71.9c-0.7,7-1.3,12.5-2,19.2l-16.9-0.9c-1.1-6.8-2-12.3-3-18.5
			H113.7c-1,6.9-1.9,12.9-2.8,19.6l-16.3-0.9c-1.2-6.8-2.3-12.8-3.2-18H19.5V144.2z"/>
		<path class="st0" d="M415.5,332h-38v-38.8h38V332z"/>
		<path class="st0" d="M268.2,258.7h-37v-38.9h37V258.7z"/>
		<path class="st0" d="M303.9,219.6h37.9v38.7h-37.9V219.6z"/>
		<path class="st0" d="M230.5,331.5v-38.4h37.6v38.4H230.5z"/>
		<path class="st0" d="M122.5,366.4v38.8H84.2v-38.8H122.5z"/>
		<path class="st0" d="M195.6,366.3v38.9h-38.1v-38.9H195.6z"/>
		<path class="st0" d="M268.6,405.6h-37.5v-39h37.5V405.6z"/>
		<path class="st0" d="M304,366.4h37.6v38.9H304V366.4z"/>
		<path class="st0" d="M84,332v-38.8h38V332H84z"/>
		<path class="st0" d="M195.7,292.9v38.5h-38.3v-38.5H195.7z"/>
		<path class="st0" d="M304.1,292.5h37.1v38.8h-37.1V292.5z"/>
		<path class="st0" d="M195.2,220.3v38.2h-37.8v-38.2H195.2z"/>
		<path class="st0" d="M415.7,219.7v38h-38.7v-38H415.7z"/>
	</g>
</g>
</svg>
