<svg width="12" height="12" viewBox="0 0 12 12" fill="none" xmlns="http://www.w3.org/2000/svg">
<path d="M7.09939 6.01138L11.772 1.33868C12.076 1.03474 12.076 0.543309 11.772 0.239369C11.468 -0.0645714 10.9766 -0.0645714 10.6726 0.239369L5.99994 4.91207L1.32737 0.239369C1.02329 -0.0645714 0.532002 -0.0645714 0.228062 0.239369C-0.0760207 0.543309 -0.0760207 1.03474 0.228062 1.33868L4.90063 6.01138L0.228062 10.6841C-0.0760207 10.988 -0.0760207 11.4795 0.228062 11.7834C0.379534 11.935 0.578697 12.0112 0.777717 12.0112C0.976738 12.0112 1.17576 11.935 1.32737 11.7834L5.99994 7.11069L10.6726 11.7834C10.8243 11.935 11.0233 12.0112 11.2223 12.0112C11.4213 12.0112 11.6203 11.935 11.772 11.7834C12.076 11.4795 12.076 10.988 11.772 10.6841L7.09939 6.01138Z" fill="black"/>
</svg>
