<svg xmlns="http://www.w3.org/2000/svg" viewBox="0 0 498.6 500.27"><defs><style>.cls-1{fill:#fff;}</style></defs><title>Download Icon</title><g id="Layer_2" data-name="Layer 2"><g id="Layer_1-2" data-name="Layer 1"><rect class="cls-1" x="11.27" y="471.01" width="476.07" height="17.96" rx="8.76"/><path class="cls-1" d="M478.39,500.27H20.21a20.29,20.29,0,0,1,0-40.57H478.39a20.29,20.29,0,0,1,0,40.57Z"/><path class="cls-1" d="M399.13,316.58l-4.56-4.79a7.16,7.16,0,0,0-9.26-.68l-125.9,94.72V20.28c0-5-4.53-9-10.11-9s-10.1,4-10.1,9V405.83L113.3,311.11a7.17,7.17,0,0,0-9.27.68l-4.56,4.79a5.41,5.41,0,0,0,.77,8.24L242,431.5c.32.23.75.22,1.09.44a9,9,0,0,0,12.34,0c.36-.22.71-.2,1.09-.44l141.8-106.68A5.41,5.41,0,0,0,399.13,316.58Z"/><path class="cls-1" d="M249.3,445.68a20.14,20.14,0,0,1-11.88-3.85,12.11,12.11,0,0,1-2-1.15l-.18-.13L93.48,333.86a17.07,17.07,0,0,1-6.78-12.15,16.84,16.84,0,0,1,4.62-12.94L95.89,304a18.44,18.44,0,0,1,24.16-1.91l107.88,81.16v-363C227.93,9.1,237.52,0,249.3,0s21.37,9.1,21.37,20.28v363l107.88-81.16A18.45,18.45,0,0,1,402.72,304l4.56,4.78a16.82,16.82,0,0,1,4.62,12.94,17,17,0,0,1-6.78,12.15L263,440.83l-.4.25c-.46.29-.92.53-1.34.74A20.24,20.24,0,0,1,249.3,445.68ZM391,324.38h0Z"/></g></g></svg>