<svg xmlns="http://www.w3.org/2000/svg" viewBox="0 0 499.1 499.1"><defs><style>.cls-1{fill:#fff;}</style></defs><title>Home Icon</title><g id="Layer_2" data-name="Layer 2"><g id="Layer_1-2" data-name="Layer 1"><path class="cls-1" d="M248.56,64.74C308.65,121.89,366,178.12,425.38,231.88c19,17.19,25.63,34.59,24.91,60-1.65,58.44-.4,117-.5,175.47-.06,27.71-3.66,31.51-29.59,31.65-31.2.16-62.4-.2-93.6.13-18.3.2-26.47-8-26.07-27.45.72-34.89.2-69.79.2-105.82H198.11V460c0,37.82-1.51,39.21-38.35,38.91-28.54-.23-57.09-.37-85.64,0-17.69.22-25.09-8.43-25-26.45.34-68.13.1-136.26.6-204.39.05-6.17,2.11-14.24,6.17-18.18C119.32,188.32,183.24,127.32,248.56,64.74ZM427.94,474.82c0-43.16-3.67-84.16.86-124.17,6.73-59.35-10.3-102.32-57.6-138.58-43.9-33.66-81.68-75.92-122.54-114.77-57.2,54.78-113.4,108.17-168.84,162.4-5.26,5.14-8,15.51-8.08,23.51-.69,53.64-.35,107.3-.34,161V475H175.17c.42-8.16,1.07-15.51,1.12-22.86.17-27.51-.08-55,.25-82.54.25-21.63,6.58-28.19,27.54-28.54,21.9-.36,43.8-.1,65.7-.1,53.45,0,53.46,0,53.51,56.12,0,25.75,0,51.5,0,77.71Z"/><path class="cls-1" d="M248.41,0,328.7,77.14v-51h79.35c0,36.36.58,72-.29,107.52-.35,14.18,3.3,24.28,13.81,33.83q36.68,33.3,71.15,69.17c4.62,4.81,4.38,14.65,6.38,22.16-7.32-1.8-16.65-1.23-21.62-5.78q-41.73-38.27-81.39-78.94c-5.74-5.91-9.84-16.22-10.14-24.67-1.15-32.88-.47-65.83-.47-100.1H353.27v83.86c-20.68-19.77-37.36-35.71-54-51.66s-33-31.63-50.82-48.69C214.06,66.33,180.34,99.17,146.61,132c-42.1,41-84,82.15-126.64,122.48-4.28,4-13.2,2.81-20,4,1.53-7,.74-16.59,4.93-20.72C85.22,158.64,166.11,80.14,248.41,0Z"/></g></g></svg>