<svg xmlns="http://www.w3.org/2000/svg" viewBox="0 0 500 500"><defs><style>.cls-1{fill:#fff;}</style></defs><title>Post Icon</title><g id="Layer_2" data-name="Layer 2"><g id="Layer_1-2" data-name="Layer 1"><path class="cls-1" d="M213,499.61c-35.77,0-71.58,1-107.31-.24C54.69,497.59,8.74,455.85,2,405.3-.54,386.07.19,366.35.11,346.85c-.21-52,0-104,0-156.06C.06,131,39.75,84.45,98.69,75.19a88.23,88.23,0,0,1,13.3-.93q60.62-.11,121.25,0c12.1,0,19.35,9.42,15.67,19.8-2.26,6.38-7.48,9.75-15.46,9.76-33.85,0-67.69-.17-101.53.11-12.13.1-24.52,0-36.33,2.29-37.54,7.45-65.62,41.71-65.8,80.05q-.49,101,0,201.89c.22,44.05,37,81.49,81.47,82q101.5,1.08,203,0c45.43-.44,81.68-38.34,81.85-84,.16-40,0-80.06.07-120.09,0-12.37,11.78-19.67,22-13.86,5.65,3.2,7.63,8.36,7.6,14.62-.05,15.86,0,31.72,0,47.57,0,23.4,0,46.8,0,70.2-.11,58.94-40.92,106.08-99.23,114.51a115.1,115.1,0,0,1-16.2.88q-48.74.12-97.47,0Z"/><path class="cls-1" d="M396.2,103.83c-20.11,0-39.41,0-58.71,0-8.51,0-14.85-5.6-15.47-13.32-.75-9.26,5.5-16.09,15.48-16.22,17.39-.21,34.78-.08,52.18-.09h6.12c.15-2.13.37-3.78.38-5.44,0-17.39,0-34.78.05-52.17C396.28,6.51,402,.1,410.85,0c9-.1,14.94,6.43,15,16.82.06,16.62,0,33.24,0,49.86v7.51h6.87c17.39,0,34.79-.13,52.18.08,8.34.1,13.95,5.14,15,12.55s-3,14.17-10,16.25a26.66,26.66,0,0,1-7.43.73c-18.54,0-37.08,0-56.55,0v7.1c0,17.2.17,34.4-.08,51.6-.18,12.16-11.6,19.34-21.69,13.85-5.63-3-7.95-8-7.91-14.41.1-17,0-34,0-51Z"/></g></g></svg>