<svg xmlns="http://www.w3.org/2000/svg" viewBox="0 0 500 498.8"><defs><style>.cls-1{fill:#fff;}</style></defs><title>Settings Icon</title><g id="Layer_2" data-name="Layer 2"><g id="Layer_1-2" data-name="Layer 1"><path class="cls-1" d="M390.59,450.11c-8.44,0-14.6-2.26-20.18-6.29-8.31-6-16.71-11.81-25-17.85-2.14-1.57-3.77-1.73-6.27-.62-8.83,3.92-17.75,7.69-26.8,11-3.22,1.2-4.35,3-4.86,6.08-1.8,11-3.47,22.06-5.86,32.94a29.54,29.54,0,0,1-27.84,23.07q-23.74.6-47.5,0c-14.76-.37-26.29-11.22-29-26.39-1.74-9.92-3.4-19.86-4.92-29.81-.46-3-1.59-4.68-4.62-5.81-8.79-3.3-17.45-7-26.08-10.68-2.24-1-3.8-1-5.88.49-8.35,6.14-16.85,12.08-25.34,18-14.12,9.86-29.27,8.81-41.66-3.17q-15.15-14.64-29.82-29.77c-11.49-11.8-12.79-27-3.51-40.57,5.92-8.66,12.15-17.11,18.37-25.56,1.41-1.9,1.47-3.34.5-5.51-4.1-9.19-8.06-18.44-11.78-27.78a5.26,5.26,0,0,0-4.6-3.75c-11.69-2-23.45-3.75-35-6.35A29.29,29.29,0,0,1,.31,274.18c-.4-15.78-.43-31.6,0-47.38.4-14.82,11.67-26.46,27-28.94,10.1-1.63,20.21-3.22,30.26-5.11a6.32,6.32,0,0,0,3.93-3.25q6.14-14.24,11.68-28.7a6.26,6.26,0,0,0-.55-5c-6-8.77-12.32-17.31-18.38-26-9.1-13.12-8.79-27.73,2-39.35,11-11.88,22.66-23.23,34.61-34.18,9.46-8.67,24.29-9.49,35.06-2.46,9.58,6.25,18.78,13.11,28,19.86,2.07,1.51,3.61,1.49,5.88.49,9.08-4,18.22-7.94,27.47-11.59a5.56,5.56,0,0,0,4-4.87c1.94-11.53,3.67-23.13,6.22-34.54A29.36,29.36,0,0,1,225.08.33Q249-.31,273,.33c14.51.4,26.11,11.45,28.66,26.28,1.72,10.06,3.44,20.12,5,30.21.4,2.6,1.51,3.87,4,4.85q14.49,5.56,28.72,11.79a5.42,5.42,0,0,0,6.25-.65q12.39-9,25-17.77c13.35-9.23,27.81-8.94,39.74,2,11.75,10.76,23,22.17,33.73,33.91,9.12,9.94,9.94,24.28,2.58,35.62-6.14,9.48-12.93,18.55-19.6,27.69-1.58,2.17-1.61,3.8-.52,6.24,3.86,8.7,7.56,17.48,10.92,26.37,1.22,3.24,2.89,4.66,6.29,5.19,11.05,1.72,22.11,3.45,33,5.82a29.17,29.17,0,0,1,22.85,27.5q.56,23.69,0,47.39c-.36,14.75-11.18,26.39-26.3,29.06q-15.12,2.65-30.29,4.94c-2.89.43-4.44,1.52-5.53,4.39-3.5,9.13-7.28,18.17-11.26,27.11-1.11,2.49-.94,4.12.62,6.25q9,12.18,17.61,24.6c10.13,14.52,8.75,30-3.81,42.52-10.63,10.58-21.26,21.16-32.13,31.49A26.62,26.62,0,0,1,390.59,450.11ZM106,157.06c-1.43,3.59-2.33,6.75-3.88,9.55a159.42,159.42,0,0,0-15.63,38.47c-2.17,8.74-7.42,13-16.19,14.18-12.43,1.72-24.76,4.09-37.16,6-3.43.55-4.87,2-4.82,5.67q.24,19.41,0,38.81c-.05,3.81,1.47,5.28,5.1,5.85,13.07,2.07,26.08,4.49,39.15,6.53,7.67,1.2,12.23,5.43,14.18,12.77a152,152,0,0,0,16.41,39c4.41,7.42,3.84,13.94-1.27,20.75C94.18,365,87,375.54,79.41,385.89c-2,2.74-1.79,4.68.62,7.05,9.26,9.06,18.47,18.18,27.48,27.48,2.8,2.89,4.95,2.83,8,.56,10-7.33,20.4-14.16,30.25-21.7,7.44-5.69,14.26-5.79,22.67-1.67a291.45,291.45,0,0,0,36.23,14.78c8.53,2.84,12.89,7.68,14.11,16.37,1.74,12.39,4.06,24.71,6,37.08.56,3.66,2.25,5,6,5,12.7-.16,25.4-.05,38.1-.06,5.16,0,5.6-.5,6.46-5.72,2.14-12.89,4.43-25.76,6.49-38.66,1.13-7.16,5.17-11.51,12.05-13.34a157.85,157.85,0,0,0,40-16.44c7.25-4.27,13.71-3.79,20.45,1.24,10.38,7.74,21.11,15,31.6,22.62,2.72,2,4.65,1.87,7.05-.58q13.74-14,27.8-27.74c2.56-2.5,2.69-4.54.6-7.4-7.55-10.35-14.74-21-22.41-31.22-5.11-6.83-5.72-13.36-1.29-20.77a144.2,144.2,0,0,0,16-38.31c2.15-8.37,7.23-12.58,15.61-13.81,12.55-1.83,25-4.11,37.58-6,3.82-.58,5.32-2.29,5.26-6.21-.17-12.53-.05-25.06-.07-37.59,0-5.39-.48-5.79-5.94-6.69-12.79-2.09-25.55-4.38-38.35-6.38-7.35-1.15-11.76-5.24-13.63-12.27A153.69,153.69,0,0,0,397.73,166c-4.41-7.39-3.83-13.92,1.29-20.75,7.61-10.13,14.69-20.66,22.2-30.86,2.35-3.19,2.06-5.32-.74-8-9.11-8.82-18.13-17.74-26.92-26.88-2.94-3-5.1-3-8.34-.57-10.51,7.8-21.23,15.32-31.85,23-5.16,3.72-10.64,5-16.47,1.8a201.13,201.13,0,0,0-45.27-18.55c-6.14-1.65-9.47-6.07-10.51-12.28-2.21-13.29-4.53-26.57-6.64-39.87-.55-3.5-2.12-4.85-5.69-4.81-12.42.14-24.85.06-37.27.06-6.6,0-6.63.08-7.71,6.65-2,12.21-4.25,24.4-6.11,36.64-1.24,8.07-5.5,13-13.43,15.06A152.28,152.28,0,0,0,165.19,103c-6.92,4.08-13.26,3.75-19.76-1-10.54-7.75-21.35-15.15-31.94-22.84-2.71-2-4.59-1.92-7,.55Q92.89,93.53,78.94,107.06c-2.81,2.72-3,4.86-.69,8q11.73,16,23,32.28C103.29,150.29,104.43,153.82,106,157.06Z"/><path class="cls-1" d="M357.87,249.19c.4,58.95-48.25,107.55-107.76,107.65-59.3.1-107.07-47.36-107.81-107.12-.72-58.8,47.51-107.23,107.49-107.92C308.67,141.13,357.46,189.61,357.87,249.19Zm-187.44-.08c-.33,43.46,35,79,79.19,79.67,43.51.63,79.73-35.19,80.08-79.2.34-43.44-35.07-79.08-79.19-79.67C206.94,169.32,170.77,205.09,170.43,249.11Z"/></g></g></svg>