<svg xmlns="http://www.w3.org/2000/svg" viewBox="0 0 498.94 498.94"><defs><style>.cls-1,.cls-3{fill:#fff;}.cls-1,.cls-2{stroke:#fff;stroke-miterlimit:10;}.cls-1{stroke-width:10px;}.cls-2{fill:none;stroke-width:20px;}</style></defs><g id="Layer_2" data-name="Layer 2"><g id="Layer_1-2" data-name="Layer 1"><path class="cls-1" d="M286.88,312H212.17a60.72,60.72,0,0,0-60.73,60.72v19.78a5.5,5.5,0,0,0,5.5,5.5h0a5.5,5.5,0,0,0,5.5-5.5V372.7A49.72,49.72,0,0,1,212.17,323h74.71a49.73,49.73,0,0,1,49.74,49.73v19.78a5.49,5.49,0,0,0,5.49,5.5h0a5.5,5.5,0,0,0,5.5-5.5V372.7A60.72,60.72,0,0,0,286.88,312Z"/><circle class="cls-2" cx="249.53" cy="224.02" r="58.91"/><path class="cls-3" d="M249.47,38.39l39,43.52,7.64,8.52H459.88c7.4,0,13.43,6.92,13.43,15.43v352c0,8.51-6,15.44-13.43,15.44H39.06c-7.4,0-13.43-6.93-13.43-15.44v-352c0-8.51,6-15.43,13.43-15.43H202.8l7.64-8.52,39-43.52m0-38.39L191.36,64.8H39.06C17.49,64.8,0,83.18,0,105.86v352c0,22.68,17.49,41.07,39.06,41.07H459.88c21.57,0,39.06-18.39,39.06-41.07v-352c0-22.68-17.49-41.06-39.06-41.06H307.58L249.47,0Z"/></g></g></svg>