<svg width="268" height="200" viewBox="0 0 268 200" fill="none" xmlns="http://www.w3.org/2000/svg">
<circle cx="162" cy="69" r="56" fill="#2AC3D8" fill-opacity="0.59"/>
<path d="M215.85 70C215.85 100.844 190.623 125.85 159.5 125.85C128.377 125.85 103.15 100.844 103.15 70C103.15 39.1562 128.377 14.15 159.5 14.15C190.623 14.15 215.85 39.1562 215.85 70Z" stroke="black" stroke-width="0.3"/>
<path d="M134.486 111.785L137.7 106.217C137.832 105.915 137.887 105.604 137.855 105.339C137.823 105.074 137.707 104.871 137.526 104.767C137.345 104.662 137.111 104.662 136.865 104.767C136.62 104.872 136.378 105.075 136.182 105.341L132.967 110.908C132.835 111.211 132.781 111.521 132.812 111.787C132.844 112.052 132.961 112.255 133.142 112.359C133.323 112.464 133.557 112.463 133.803 112.358C134.048 112.253 134.29 112.05 134.486 111.785V111.785Z" fill="white"/>
<path d="M134.428 37.265L131.214 31.6972C131.082 31.395 131.027 31.084 131.059 30.8188C131.091 30.5536 131.208 30.351 131.389 30.2465C131.57 30.142 131.803 30.1422 132.049 30.2472C132.295 30.3521 132.537 30.5551 132.732 30.8205L135.947 36.3883C136.079 36.6905 136.134 37.0015 136.102 37.2667C136.07 37.5319 135.953 37.7345 135.772 37.839C135.591 37.9435 135.357 37.9433 135.112 37.8383C134.866 37.7334 134.624 37.5304 134.428 37.265V37.265Z" fill="white"/>
<path d="M230.741 63.4403C230.892 65.1963 230.978 66.971 230.996 68.7619L230.747 68.7636L230.748 69.0136C230.749 69.1756 230.75 69.3377 230.75 69.5C230.75 69.6623 230.749 69.8244 230.748 69.9864L230.747 70.2364L230.996 70.2381C230.978 72.029 230.892 73.8037 230.741 75.5597L230.493 75.5375L230.471 75.7865C230.442 76.1075 230.411 76.4279 230.378 76.7476L230.352 76.9963L230.601 77.0219C230.411 78.8007 230.154 80.5594 229.833 82.2954L229.588 82.2491L229.542 82.4948C229.482 82.8113 229.42 83.127 229.356 83.442L229.306 83.687L229.551 83.7366C229.189 85.4862 228.763 87.2116 228.273 88.9102L228.034 88.8402L227.963 89.0802C227.873 89.3895 227.781 89.6979 227.686 90.0054L227.613 90.2444L227.851 90.3177C227.321 92.0212 226.727 93.6964 226.073 95.3406L225.842 95.2475L225.748 95.4795C225.628 95.7785 225.506 96.0765 225.382 96.3735L225.285 96.6041L225.515 96.7005C224.822 98.3419 224.067 99.951 223.254 101.525L223.033 101.409L222.917 101.631C222.768 101.917 222.618 102.202 222.465 102.485L222.346 102.705L222.566 102.824C221.716 104.388 220.808 105.916 219.845 107.404L219.636 107.268L219.499 107.477C219.323 107.747 219.145 108.016 218.965 108.283L218.825 108.491L219.033 108.63C218.035 110.103 216.982 111.535 215.878 112.923L215.683 112.767L215.527 112.962C215.325 113.214 215.122 113.464 214.917 113.713L214.758 113.906L214.95 114.064C213.815 115.432 212.628 116.754 211.393 118.029L211.214 117.855L211.04 118.034C210.814 118.265 210.588 118.494 210.359 118.722L210.182 118.899L210.358 119.075C209.096 120.325 207.786 121.526 206.432 122.675L206.271 122.484L206.08 122.645C205.833 122.853 205.585 123.059 205.335 123.264L205.142 123.422L205.3 123.615C203.923 124.734 202.502 125.802 201.04 126.814L200.899 126.608L200.693 126.749C200.427 126.932 200.16 127.113 199.892 127.292L199.684 127.43L199.822 127.638C198.343 128.616 196.824 129.539 195.268 130.403L195.148 130.184L194.929 130.305C194.647 130.46 194.363 130.614 194.079 130.765L193.858 130.883L193.975 131.103C192.408 131.93 190.805 132.698 189.17 133.404L189.072 133.175L188.842 133.273C188.546 133.4 188.249 133.524 187.951 133.647L187.72 133.742L187.814 133.973C186.175 134.639 184.504 135.245 182.804 135.785L182.729 135.547L182.491 135.622C182.184 135.718 181.876 135.813 181.567 135.905L181.328 135.976L181.399 136.216C179.703 136.715 177.98 137.151 176.233 137.52L176.182 137.275L175.937 137.326C175.622 137.392 175.307 137.455 174.99 137.516L174.745 137.563L174.792 137.808C173.057 138.136 171.299 138.398 169.521 138.592L169.495 138.344L169.247 138.37C168.927 138.404 168.606 138.435 168.285 138.464L168.036 138.487L168.059 138.736C166.303 138.89 164.529 138.977 162.738 138.996L162.736 138.747L162.486 138.748C162.324 138.749 162.162 138.75 162 138.75C161.838 138.75 161.676 138.749 161.514 138.748L161.264 138.747L161.262 138.996C159.471 138.977 157.697 138.89 155.941 138.736L155.963 138.487L155.715 138.464C155.393 138.435 155.073 138.404 154.753 138.37L154.505 138.344L154.479 138.592C152.701 138.398 150.943 138.136 149.208 137.808L149.255 137.563L149.01 137.516C148.693 137.455 148.378 137.392 148.063 137.326L147.818 137.275L147.767 137.52C146.02 137.151 144.297 136.715 142.601 136.216L142.672 135.976L142.433 135.905C142.124 135.813 141.816 135.718 141.509 135.622L141.271 135.547L141.196 135.785C139.496 135.245 137.825 134.639 136.186 133.973L136.28 133.742L136.049 133.647C135.751 133.524 135.454 133.4 135.158 133.273L134.928 133.175L134.83 133.404C133.195 132.698 131.592 131.93 130.025 131.103L130.142 130.883L129.921 130.765C129.637 130.614 129.353 130.46 129.071 130.305L128.852 130.184L128.732 130.403C127.176 129.539 125.657 128.616 124.178 127.638L124.316 127.43L124.108 127.292C123.84 127.113 123.573 126.932 123.307 126.749L123.101 126.608L122.96 126.814C121.498 125.802 120.077 124.734 118.7 123.615L118.858 123.422L118.665 123.264C118.415 123.059 118.167 122.853 117.92 122.645L117.729 122.484L117.568 122.675C116.214 121.526 114.904 120.325 113.642 119.075L113.818 118.899L113.641 118.722C113.412 118.494 113.186 118.265 112.96 118.034L112.786 117.855L112.607 118.03C111.372 116.754 110.185 115.432 109.05 114.064L109.242 113.906L109.083 113.713C108.878 113.464 108.675 113.214 108.473 112.962L108.317 112.767L108.122 112.923C107.018 111.535 105.965 110.103 104.967 108.63L105.175 108.491L105.035 108.283C104.855 108.016 104.677 107.747 104.501 107.477L104.364 107.268L104.155 107.404C103.192 105.916 102.284 104.388 101.434 102.824L101.654 102.705L101.535 102.485C101.382 102.202 101.232 101.917 101.083 101.631L100.967 101.409L100.746 101.525C99.9331 99.951 99.1784 98.3419 98.4847 96.7005L98.7149 96.6041L98.6184 96.3735C98.4941 96.0765 98.3719 95.7785 98.2516 95.4795L98.1584 95.2475L97.9268 95.3406C97.2727 93.6964 96.679 92.0212 96.1488 90.3177L96.3873 90.2444L96.3139 90.0054C96.2194 89.6979 96.1269 89.3895 96.0366 89.0802L95.9665 88.8402L95.7269 88.9102C95.2374 87.2116 94.8105 85.4862 94.4489 83.7366L94.6935 83.687L94.6438 83.442C94.5799 83.127 94.5181 82.8113 94.4584 82.4948L94.4121 82.2491L94.1669 82.2953C93.8462 80.5593 93.5895 78.8007 93.3994 77.0219L93.6477 76.9962L93.622 76.7476C93.589 76.4278 93.5581 76.1075 93.5295 75.7865L93.5072 75.5375L93.2586 75.5597C93.1081 73.8037 93.0223 72.029 93.0038 70.2381L93.2534 70.2364L93.2517 69.9864C93.2506 69.8244 93.25 69.6623 93.25 69.5C93.25 69.3377 93.2506 69.1756 93.2517 69.0136L93.2534 68.7636L93.0038 68.7619C93.0223 66.971 93.1081 65.1963 93.2586 63.4403L93.5072 63.4625L93.5295 63.2135C93.5581 62.8925 93.589 62.5721 93.622 62.2524L93.6477 62.0037L93.3994 61.9781C93.5895 60.1993 93.8462 58.4406 94.1669 56.7046L94.4121 56.7509L94.4584 56.5052C94.5181 56.1887 94.5799 55.873 94.6438 55.558L94.6935 55.313L94.449 55.2634C94.8105 53.5138 95.2374 51.7884 95.727 50.0898L95.9665 50.1597L96.0366 49.9198C96.1269 49.6105 96.2194 49.3021 96.3139 48.9946L96.3873 48.7556L96.1488 48.6823C96.679 46.9788 97.2727 45.3036 97.9269 43.6594L98.1584 43.7525L98.2516 43.5205C98.3719 43.2215 98.4941 42.9235 98.6184 42.6265L98.7149 42.3959L98.4847 42.2995C99.1784 40.6581 99.9331 39.049 100.746 37.4752L100.967 37.5905L101.083 37.3688C101.232 37.0829 101.382 36.7981 101.535 36.5146L101.654 36.2945L101.434 36.1761C102.284 34.6119 103.192 33.0842 104.155 31.596L104.364 31.7324L104.501 31.523C104.677 31.2529 104.855 30.9841 105.035 30.7166L105.175 30.5091L104.967 30.3699C105.965 28.8973 107.018 27.4654 108.122 26.0771L108.317 26.2332L108.473 26.0381C108.675 25.7863 108.878 25.536 109.083 25.2872L109.242 25.0943L109.05 24.9356C110.185 23.5682 111.372 22.2456 112.607 20.9705L112.786 21.1448L112.96 20.9658C113.186 20.7349 113.412 20.5055 113.641 20.2778L113.818 20.1013L113.642 19.9246C114.904 18.6752 116.214 17.4743 117.568 16.325L117.729 16.5159L117.92 16.3548C118.167 16.147 118.415 15.9408 118.665 15.7365L118.858 15.5781L118.7 15.385C120.077 14.2656 121.498 13.1984 122.96 12.1864L123.101 12.3921L123.307 12.2505C123.573 12.0679 123.84 11.8871 124.108 11.7082L124.316 11.5696L124.178 11.3619C125.657 10.3836 127.176 9.46105 128.732 8.59718L128.852 8.81577L129.071 8.69519C129.353 8.53974 129.637 8.38623 129.921 8.23468L130.142 8.1172L130.025 7.89692C131.592 7.06997 133.195 6.3019 134.83 5.59565L134.928 5.8251L135.158 5.72681C135.454 5.6002 135.751 5.47563 136.049 5.35311L136.28 5.25809L136.186 5.02727C137.825 4.36052 139.496 3.7554 141.196 3.21476L141.271 3.45283L141.509 3.37792C141.816 3.28151 142.124 3.18721 142.433 3.09503L142.672 3.02352L142.601 2.7844C144.297 2.2849 146.02 1.84924 147.767 1.48015L147.818 1.7245L148.063 1.67373C148.378 1.60844 148.693 1.54532 149.01 1.48438L149.255 1.43709L149.208 1.19205C150.943 0.864482 152.701 0.602305 154.479 0.408161L154.505 0.656329L154.753 0.630096C155.073 0.596357 155.393 0.564827 155.715 0.535519L155.964 0.512791L155.941 0.264278C157.697 0.110424 159.471 0.0227983 161.262 0.00389385L161.264 0.253441L161.514 0.251696C161.676 0.250566 161.838 0.25 162 0.25C162.162 0.25 162.324 0.250566 162.486 0.251696L162.736 0.253441L162.738 0.00389409C164.529 0.0227992 166.304 0.110426 168.059 0.26428L168.037 0.512793L168.285 0.53552C168.607 0.564828 168.927 0.596359 169.247 0.630098L169.495 0.656331L169.521 0.408163C171.299 0.602308 173.057 0.864485 174.792 1.19206L174.745 1.43709L174.99 1.48438C175.307 1.54532 175.622 1.60844 175.937 1.67373L176.182 1.7245L176.233 1.48016C177.98 1.84924 179.703 2.28491 181.399 2.78441L181.328 3.02353L181.567 3.09504C181.876 3.18721 182.184 3.28151 182.491 3.37792L182.729 3.45284L182.804 3.21476C184.504 3.75541 186.175 4.36053 187.814 5.02728L187.72 5.2581L187.951 5.35311C188.249 5.47564 188.546 5.60021 188.842 5.72681L189.072 5.8251L189.17 5.59565C190.805 6.30191 192.408 7.06997 193.975 7.89692L193.858 8.1172L194.079 8.23468C194.363 8.38623 194.647 8.53974 194.929 8.69519L195.148 8.81577L195.268 8.59718C196.824 9.46104 198.343 10.3836 199.822 11.3619L199.684 11.5696L199.892 11.7082C200.16 11.8871 200.427 12.0679 200.693 12.2505L200.899 12.3921L201.04 12.1864C202.502 13.1984 203.923 14.2655 205.3 15.385L205.142 15.5781L205.335 15.7365C205.585 15.9408 205.833 16.147 206.08 16.3548L206.271 16.5159L206.432 16.325C207.786 17.4743 209.096 18.6752 210.358 19.9246L210.182 20.1013L210.359 20.2778C210.588 20.5055 210.814 20.7349 211.04 20.9658L211.214 21.1448L211.393 20.9705C212.628 22.2455 213.815 23.5682 214.95 24.9356L214.758 25.0943L214.917 25.2872C215.122 25.536 215.325 25.7863 215.527 26.0381L215.683 26.2332L215.878 26.0771C216.982 27.4654 218.035 28.8973 219.033 30.3699L218.825 30.5091L218.965 30.7166C219.145 30.9841 219.323 31.2529 219.499 31.523L219.636 31.7324L219.845 31.596C220.808 33.0842 221.716 34.6119 222.566 36.1761L222.346 36.2945L222.465 36.5146C222.618 36.7981 222.768 37.0829 222.917 37.3688L223.033 37.5905L223.254 37.4752C224.067 39.049 224.822 40.6581 225.515 42.2995L225.285 42.3959L225.382 42.6265C225.506 42.9235 225.628 43.2215 225.748 43.5205L225.842 43.7525L226.073 43.6594C226.727 45.3036 227.321 46.9788 227.851 48.6823L227.613 48.7556L227.686 48.9946C227.781 49.3021 227.873 49.6105 227.963 49.9198L228.034 50.1598L228.273 50.0898C228.763 51.7884 229.189 53.5138 229.551 55.2634L229.306 55.313L229.356 55.558C229.42 55.873 229.482 56.1887 229.542 56.5052L229.588 56.7509L229.833 56.7047C230.154 58.4407 230.411 60.1993 230.601 61.9781L230.352 62.0037L230.378 62.2524C230.411 62.5722 230.442 62.8925 230.471 63.2135L230.493 63.4625L230.741 63.4403Z" stroke="#EBA2A1" stroke-width="0.5" stroke-linecap="square" stroke-dasharray="1 6"/>
<path d="M135 42H15V158H135V42Z" fill="white" stroke="black" stroke-width="0.25" stroke-miterlimit="10"/>
<path d="M44 86H31V99H44V86Z" fill="#E6E6E6"/>
<path d="M59 86H46V99H59V86Z" fill="#E6E6E6"/>
<path d="M74 86H61V99H74V86Z" fill="#E6E6E6"/>
<path d="M89 86H76V99H89V86Z" fill="#E6E6E6"/>
<path d="M104 86H91V99H104V86Z" fill="#E6E6E6"/>
<path d="M119 86H106V99H119V86Z" fill="#E6E6E6"/>
<path d="M44 106H31V119H44V106Z" fill="#E6E6E6"/>
<path d="M59 106H46V119H59V106Z" fill="#E6E6E6"/>
<path d="M74 106H61V119H74V106Z" fill="#E6E6E6"/>
<path d="M89 106H76V119H89V106Z" fill="#E6E6E6"/>
<path d="M104 106H91V119H104V106Z" fill="#E6E6E6"/>
<path d="M119 106H106V119H119V106Z" fill="#E6E6E6"/>
<path d="M44 125H31V138H44V125Z" fill="#E6E6E6"/>
<path d="M59 125H46V138H59V125Z" fill="#E6E6E6"/>
<path d="M74 125H61V138H74V125Z" fill="#E6E6E6"/>
<path d="M89 125H76V138H89V125Z" fill="#E6E6E6"/>
<path d="M104 125H91V138H104V125Z" fill="#E6E6E6"/>
<path d="M119 125H106V138H119V125Z" fill="#E6E6E6"/>
<path d="M134 43H15V70H134V43Z" fill="#EBA2A1"/>
<path d="M35.5 54C37.433 54 39 52.6569 39 51C39 49.3431 37.433 48 35.5 48C33.567 48 32 49.3431 32 51C32 52.6569 33.567 54 35.5 54Z" fill="#F5FAFE"/>
<path d="M61.5 54C63.433 54 65 52.6569 65 51C65 49.3431 63.433 48 61.5 48C59.567 48 58 49.3431 58 51C58 52.6569 59.567 54 61.5 54Z" fill="#F5FAFE"/>
<path d="M87.5 54C89.433 54 91 52.6569 91 51C91 49.3431 89.433 48 87.5 48C85.567 48 84 49.3431 84 51C84 52.6569 85.567 54 87.5 54Z" fill="#F5FAFE"/>
<path d="M113.5 54C115.433 54 117 52.6569 117 51C117 49.3431 115.433 48 113.5 48C111.567 48 110 49.3431 110 51C110 52.6569 111.567 54 113.5 54Z" fill="#F5FAFE"/>
<path d="M38 34.5437C38 33.1388 36.8807 32 35.5 32C34.1193 32 33 33.1388 33 34.5437V50.4563C33 51.8612 34.1193 53 35.5 53C36.8807 53 38 51.8612 38 50.4563V34.5437Z" fill="#58575B"/>
<path d="M64 34.5437C64 33.1388 62.8807 32 61.5 32C60.1193 32 59 33.1388 59 34.5437V50.4563C59 51.8612 60.1193 53 61.5 53C62.8807 53 64 51.8612 64 50.4563V34.5437Z" fill="#58575B"/>
<path d="M90 34.5437C90 33.1388 88.8807 32 87.5 32C86.1193 32 85 33.1388 85 34.5437V50.4563C85 51.8612 86.1193 53 87.5 53C88.8807 53 90 51.8612 90 50.4563V34.5437Z" fill="#58575B"/>
<path d="M116 34.5437C116 33.1388 114.881 32 113.5 32C112.119 32 111 33.1388 111 34.5437V50.4563C111 51.8612 112.119 53 113.5 53C114.881 53 116 51.8612 116 50.4563V34.5437Z" fill="#58575B"/>
<path d="M34 91C34.5523 91 35 90.3284 35 89.5C35 88.6716 34.5523 88 34 88C33.4477 88 33 88.6716 33 89.5C33 90.3284 33.4477 91 34 91Z" fill="#2AC3D8"/>
<path d="M49 91C49.5523 91 50 90.3284 50 89.5C50 88.6716 49.5523 88 49 88C48.4477 88 48 88.6716 48 89.5C48 90.3284 48.4477 91 49 91Z" fill="#2AC3D8"/>
<path d="M49 129C49.5523 129 50 128.552 50 128C50 127.448 49.5523 127 49 127C48.4477 127 48 127.448 48 128C48 128.552 48.4477 129 49 129Z" fill="#2AC3D8"/>
<path d="M94 90C94.5523 90 95 89.5523 95 89C95 88.4477 94.5523 88 94 88C93.4477 88 93 88.4477 93 89C93 89.5523 93.4477 90 94 90Z" fill="#2AC3D8"/>
<path d="M265.5 46C266.881 46 268 44.6569 268 43C268 41.3431 266.881 40 265.5 40C264.119 40 263 41.3431 263 43C263 44.6569 264.119 46 265.5 46Z" fill="#EBA2A1"/>
<path d="M2.99999 177C4.65685 177 6 175.657 6 174C6 172.343 4.65685 171 2.99999 171C1.34314 171 0 172.343 0 174C0 175.657 1.34314 177 2.99999 177Z" fill="#EBA2A1"/>
<path d="M254 74C255.105 74 256 73.1046 256 72C256 70.8954 255.105 70 254 70C252.895 70 252 70.8954 252 72C252 73.1046 252.895 74 254 74Z" fill="#2AC3D8"/>
<path d="M238.5 156C240.985 156 243 153.985 243 151.5C243 149.015 240.985 147 238.5 147C236.015 147 234 149.015 234 151.5C234 153.985 236.015 156 238.5 156Z" fill="#EBA2A1"/>
<path d="M241.095 120.629V123.868C241.095 124.057 241.17 124.239 241.304 124.373C241.438 124.506 241.619 124.582 241.808 124.582C241.998 124.582 242.179 124.506 242.313 124.373C242.447 124.239 242.522 124.057 242.522 123.868V120.629C242.522 120.44 242.447 120.258 242.313 120.125C242.179 119.991 241.998 119.916 241.808 119.916C241.619 119.916 241.438 119.991 241.304 120.125C241.17 120.258 241.095 120.44 241.095 120.629Z" fill="#E6E6E6"/>
<path d="M236.311 123.452L238.629 125.74C238.763 125.874 238.944 125.95 239.134 125.95C239.323 125.95 239.505 125.874 239.639 125.74C239.773 125.606 239.848 125.425 239.848 125.235C239.848 125.046 239.773 124.864 239.639 124.73L237.321 122.441C237.187 122.307 237.005 122.232 236.816 122.232C236.626 122.232 236.445 122.307 236.311 122.441C236.177 122.575 236.101 122.757 236.101 122.947C236.101 123.136 236.177 123.318 236.311 123.452V123.452Z" fill="#E6E6E6"/>
<path d="M234.943 128.831H238.183C238.372 128.831 238.553 128.756 238.687 128.622C238.821 128.488 238.896 128.307 238.896 128.118C238.896 127.929 238.821 127.747 238.687 127.613C238.553 127.48 238.372 127.404 238.183 127.404H234.943C234.754 127.404 234.573 127.48 234.439 127.613C234.305 127.747 234.23 127.929 234.23 128.118C234.23 128.307 234.305 128.488 234.439 128.622C234.573 128.756 234.754 128.831 234.943 128.831Z" fill="#E6E6E6"/>
<path d="M237.766 133.616L240.055 131.297C240.189 131.163 240.264 130.982 240.264 130.792C240.264 130.603 240.189 130.421 240.055 130.287C239.921 130.153 239.739 130.078 239.55 130.078C239.36 130.078 239.178 130.153 239.044 130.287L236.756 132.605C236.622 132.739 236.547 132.921 236.547 133.11C236.547 133.3 236.622 133.482 236.756 133.616C236.89 133.75 237.072 133.825 237.261 133.825C237.451 133.825 237.632 133.75 237.766 133.616Z" fill="#E6E6E6"/>
<path d="M243.146 134.983V131.744C243.146 131.554 243.071 131.373 242.937 131.239C242.803 131.106 242.622 131.03 242.433 131.03C242.243 131.03 242.062 131.106 241.928 131.239C241.794 131.373 241.719 131.554 241.719 131.744V134.983C241.719 135.172 241.794 135.354 241.928 135.487C242.062 135.621 242.243 135.696 242.433 135.696C242.622 135.696 242.803 135.621 242.937 135.487C243.071 135.354 243.146 135.172 243.146 134.983V134.983Z" fill="#E6E6E6"/>
<path d="M247.931 132.16L245.613 129.871C245.479 129.737 245.297 129.662 245.108 129.662C244.918 129.662 244.736 129.737 244.602 129.871C244.468 130.005 244.393 130.187 244.393 130.376C244.393 130.566 244.468 130.748 244.602 130.882L246.92 133.17C247.054 133.304 247.236 133.379 247.426 133.379C247.615 133.379 247.797 133.304 247.931 133.17C248.065 133.036 248.14 132.854 248.14 132.665C248.14 132.475 248.065 132.294 247.931 132.16V132.16Z" fill="#E6E6E6"/>
<path d="M249.298 126.781H246.058C245.869 126.781 245.688 126.856 245.554 126.99C245.42 127.124 245.345 127.305 245.345 127.494C245.345 127.683 245.42 127.865 245.554 127.998C245.688 128.132 245.869 128.207 246.058 128.207H249.298C249.487 128.207 249.668 128.132 249.802 127.998C249.936 127.865 250.011 127.683 250.011 127.494C250.011 127.305 249.936 127.124 249.802 126.99C249.668 126.856 249.487 126.781 249.298 126.781Z" fill="#E6E6E6"/>
<path d="M246.474 121.996L244.186 124.314C244.052 124.448 243.977 124.629 243.977 124.819C243.977 125.008 244.052 125.19 244.186 125.324C244.32 125.458 244.502 125.533 244.691 125.533C244.881 125.533 245.063 125.458 245.197 125.324L247.485 123.006C247.619 122.872 247.694 122.69 247.694 122.501C247.694 122.311 247.619 122.13 247.485 121.996C247.351 121.862 247.169 121.786 246.98 121.786C246.79 121.786 246.608 121.862 246.474 121.996Z" fill="#E6E6E6"/>
<path d="M243.096 20.0711V24.3804C243.136 24.6001 243.251 24.799 243.422 24.9422C243.593 25.0855 243.809 25.164 244.033 25.164C244.256 25.164 244.472 25.0855 244.643 24.9422C244.814 24.799 244.929 24.6001 244.969 24.3804V20.0711C244.929 19.8515 244.814 19.6526 244.643 19.5093C244.472 19.3661 244.256 19.2876 244.033 19.2876C243.809 19.2876 243.593 19.3661 243.422 19.5093C243.251 19.6526 243.136 19.8515 243.096 20.0711V20.0711Z" fill="#EBA2A1"/>
<path d="M236.707 23.8155L239.679 26.7875C239.862 26.9349 240.092 27.0096 240.327 26.9972C240.561 26.9847 240.783 26.886 240.949 26.72C241.115 26.554 241.214 26.3324 241.226 26.098C241.239 25.8635 241.164 25.6328 241.016 25.4501L238.044 22.4782C237.153 21.6163 235.845 22.9537 236.707 23.8155Z" fill="#EBA2A1"/>
<path d="M234.864 30.7999H239.174C239.393 30.7606 239.592 30.6453 239.735 30.4742C239.879 30.303 239.957 30.0869 239.957 29.8638C239.957 29.6406 239.879 29.4245 239.735 29.2534C239.592 29.0822 239.393 28.9669 239.174 28.9276H234.864C234.645 28.9669 234.446 29.0822 234.303 29.2534C234.159 29.4245 234.081 29.6406 234.081 29.8638C234.081 30.0869 234.159 30.303 234.303 30.4742C234.446 30.6453 234.645 30.7606 234.864 30.7999V30.7999Z" fill="#EBA2A1"/>
<path d="M238.579 37.1894L241.551 34.2175C242.383 33.3557 241.075 32.0183 240.214 32.8802L237.242 35.8521C236.41 36.7436 237.747 38.0513 238.579 37.1894Z" fill="#EBA2A1"/>
<path d="M245.682 39.0321V34.7228C245.643 34.5031 245.527 34.3043 245.356 34.161C245.185 34.0178 244.969 33.9393 244.746 33.9393C244.523 33.9393 244.307 34.0178 244.136 34.161C243.964 34.3043 243.849 34.5031 243.81 34.7228V39.0321C243.849 39.2518 243.964 39.4507 244.136 39.5939C244.307 39.7372 244.523 39.8156 244.746 39.8156C244.969 39.8156 245.185 39.7372 245.356 39.5939C245.527 39.4507 245.643 39.2518 245.682 39.0321V39.0321Z" fill="#EBA2A1"/>
<path d="M252.012 35.3169L249.04 32.345C248.179 31.5129 246.841 32.8205 247.703 33.6824L250.675 36.6543C251.507 37.4864 252.844 36.1491 252.012 35.3169Z" fill="#EBA2A1"/>
<path d="M253.825 28.2136H249.516C249.296 28.2529 249.097 28.3682 248.954 28.5394C248.811 28.7105 248.732 28.9266 248.732 29.1498C248.732 29.373 248.811 29.589 248.954 29.7602C249.097 29.9313 249.296 30.0466 249.516 30.0859H253.825C254.045 30.0466 254.244 29.9313 254.387 29.7602C254.53 29.589 254.609 29.373 254.609 29.1498C254.609 28.9266 254.53 28.7105 254.387 28.5394C254.244 28.3682 254.045 28.2529 253.825 28.2136V28.2136Z" fill="#EBA2A1"/>
<path d="M250.08 21.8836L247.109 24.8555C246.961 25.0382 246.886 25.269 246.899 25.5034C246.911 25.7378 247.01 25.9594 247.176 26.1254C247.342 26.2914 247.564 26.3902 247.798 26.4026C248.032 26.4151 248.263 26.3404 248.446 26.1929L251.418 23.221C251.565 23.0383 251.64 22.8075 251.628 22.5731C251.615 22.3387 251.516 22.1171 251.35 21.9511C251.184 21.7851 250.963 21.6863 250.728 21.6739C250.494 21.6614 250.263 21.7361 250.08 21.8836V21.8836Z" fill="#EBA2A1"/>
<path d="M160 20.2001V26.7999C160.042 27.1364 160.165 27.441 160.348 27.6604C160.531 27.8798 160.762 28 161 28C161.238 28 161.469 27.8798 161.652 27.6604C161.835 27.441 161.958 27.1364 162 26.7999V20.2001C161.958 19.8636 161.835 19.559 161.652 19.3396C161.469 19.1202 161.238 19 161 19C160.762 19 160.531 19.1202 160.348 19.3396C160.165 19.559 160.042 19.8636 160 20.2001V20.2001Z" fill="white"/>
<path d="M187.031 28.1904L183.816 33.7581C183.684 34.0604 183.63 34.3713 183.662 34.6365C183.693 34.9017 183.81 35.1043 183.991 35.2088C184.172 35.3133 184.406 35.3131 184.652 35.2082C184.897 35.1032 185.139 34.9003 185.335 34.6348L188.549 29.0671C188.681 28.7648 188.736 28.4539 188.704 28.1886C188.672 27.9234 188.556 27.7208 188.375 27.6163C188.194 27.5118 187.96 27.5121 187.714 27.617C187.469 27.7219 187.227 27.9249 187.031 28.1904V28.1904Z" fill="white"/>
<path d="M203.135 47.05L197.567 50.2645C197.301 50.4602 197.098 50.7021 196.993 50.9478C196.889 51.1934 196.888 51.4272 196.993 51.6082C197.097 51.7892 197.3 51.9059 197.565 51.9379C197.83 51.9698 198.141 51.915 198.444 51.783L204.011 48.5685C204.277 48.3727 204.48 48.1308 204.585 47.8852C204.69 47.6395 204.69 47.4057 204.585 47.2247C204.481 47.0437 204.278 46.927 204.013 46.8951C203.748 46.8631 203.437 46.9179 203.135 47.05V47.05Z" fill="white"/>
<path d="M199.148 88.2553L204.716 91.4698C204.981 91.6656 205.184 91.9074 205.289 92.1531C205.394 92.3988 205.394 92.6326 205.29 92.8136C205.185 92.9946 204.983 93.1113 204.718 93.1432C204.452 93.1752 204.141 93.1203 203.839 92.9883L198.271 89.7738C198.006 89.578 197.803 89.3361 197.698 89.0905C197.593 88.8448 197.593 88.611 197.697 88.43C197.802 88.249 198.004 88.1323 198.27 88.1004C198.535 88.0684 198.846 88.1233 199.148 88.2553V88.2553Z" fill="white"/>
<path d="M184.458 104.464L187.673 110.032C187.805 110.334 187.859 110.645 187.827 110.91C187.796 111.175 187.679 111.378 187.498 111.482C187.317 111.587 187.083 111.587 186.837 111.482C186.592 111.377 186.35 111.174 186.154 110.908L182.94 105.341C182.808 105.038 182.753 104.727 182.785 104.462C182.817 104.197 182.933 103.994 183.114 103.89C183.295 103.785 183.529 103.786 183.775 103.89C184.02 103.995 184.262 104.198 184.458 104.464V104.464Z" fill="white"/>
<path d="M208.933 68L203.067 68C202.768 68.042 202.497 68.1652 202.302 68.348C202.107 68.5308 202 68.7616 202 69C202 69.2384 202.107 69.4692 202.302 69.652C202.497 69.8348 202.768 69.958 203.067 70L208.933 70C209.232 69.958 209.503 69.8348 209.698 69.652C209.893 69.4692 210 69.2384 210 69C210 68.7616 209.893 68.5308 209.698 68.348C209.503 68.1652 209.232 68.042 208.933 68V68Z" fill="white"/>
<path d="M160 111.2V117.8C160.042 118.136 160.165 118.441 160.348 118.66C160.531 118.88 160.762 119 161 119C161.238 119 161.469 118.88 161.652 118.66C161.835 118.441 161.958 118.136 162 117.8V111.2C161.958 110.864 161.835 110.559 161.652 110.34C161.469 110.12 161.238 110 161 110C160.762 110 160.531 110.12 160.348 110.34C160.165 110.559 160.042 110.864 160 111.2V111.2Z" fill="white"/>
<circle cx="161.5" cy="69.5" r="1.5" fill="white"/>
<path d="M21.8879 183.945V187.214C21.8879 187.403 21.9631 187.585 22.0968 187.719C22.2306 187.852 22.412 187.928 22.6012 187.928C22.7904 187.928 22.9718 187.852 23.1055 187.719C23.2393 187.585 23.3145 187.403 23.3145 187.214V183.945C23.3145 183.756 23.2393 183.575 23.1055 183.441C22.9718 183.307 22.7904 183.232 22.6012 183.232C22.412 183.232 22.2306 183.307 22.0968 183.441C21.9631 183.575 21.8879 183.756 21.8879 183.945V183.945Z" fill="#2AC3D8"/>
<path d="M17.1036 186.769L19.4216 189.087C19.5556 189.221 19.7374 189.296 19.9269 189.296C20.1164 189.296 20.2981 189.221 20.4321 189.087C20.5661 188.953 20.6414 188.771 20.6414 188.582C20.6414 188.392 20.5661 188.211 20.4321 188.077L18.114 185.758C17.98 185.624 17.7983 185.549 17.6088 185.549C17.4193 185.549 17.2375 185.624 17.1036 185.758C16.9696 185.892 16.8943 186.074 16.8943 186.264C16.8943 186.453 16.9696 186.635 17.1036 186.769Z" fill="#2AC3D8"/>
<path d="M15.6173 192.148H18.8567C19.0459 192.148 19.2273 192.073 19.361 191.939C19.4948 191.805 19.57 191.624 19.57 191.435C19.57 191.246 19.4948 191.064 19.361 190.93C19.2273 190.797 19.0459 190.722 18.8567 190.722H15.6173C15.4281 190.722 15.2467 190.797 15.113 190.93C14.9792 191.064 14.9041 191.246 14.9041 191.435C14.9041 191.624 14.9792 191.805 15.113 191.939C15.2467 192.073 15.4281 192.148 15.6173 192.148V192.148Z" fill="#2AC3D8"/>
<path d="M18.5893 196.933L20.8777 194.615C21.5315 193.991 20.5211 192.98 19.8673 193.604L17.5789 195.922C17.4449 196.056 17.3696 196.238 17.3696 196.428C17.3696 196.617 17.4449 196.799 17.5789 196.933C17.7129 197.067 17.8946 197.142 18.0841 197.142C18.2736 197.142 18.4554 197.067 18.5893 196.933Z" fill="#2AC3D8"/>
<path d="M23.9387 198.389V195.12C23.9387 194.931 23.8636 194.749 23.7298 194.615C23.5961 194.482 23.4146 194.406 23.2255 194.406C23.0363 194.406 22.8549 194.482 22.7211 194.615C22.5874 194.749 22.5122 194.931 22.5122 195.12V198.389C22.5122 198.578 22.5874 198.759 22.7211 198.893C22.8549 199.027 23.0363 199.102 23.2255 199.102C23.4146 199.102 23.5961 199.027 23.7298 198.893C23.8636 198.759 23.9387 198.578 23.9387 198.389Z" fill="#2AC3D8"/>
<path d="M28.7236 195.417L26.4055 193.099C26.2715 192.965 26.0898 192.89 25.9003 192.89C25.7108 192.89 25.5291 192.965 25.3951 193.099C25.2611 193.233 25.1858 193.415 25.1858 193.604C25.1858 193.794 25.2611 193.976 25.3951 194.109L27.7131 196.428C27.8471 196.562 28.0289 196.637 28.2184 196.637C28.4079 196.637 28.5896 196.562 28.7236 196.428C28.8576 196.294 28.9329 196.112 28.9329 195.922C28.9329 195.733 28.8576 195.551 28.7236 195.417V195.417Z" fill="#2AC3D8"/>
<path d="M30.0906 190.127H26.8512C26.662 190.127 26.4806 190.202 26.3468 190.336C26.2131 190.47 26.1379 190.651 26.1379 190.84C26.1379 191.03 26.2131 191.211 26.3468 191.345C26.4806 191.479 26.662 191.554 26.8512 191.554H30.0906C30.1842 191.554 30.277 191.535 30.3635 191.499C30.4501 191.464 30.5287 191.411 30.5949 191.345C30.6612 191.279 30.7137 191.2 30.7495 191.113C30.7854 191.027 30.8038 190.934 30.8038 190.84C30.8038 190.747 30.7854 190.654 30.7495 190.568C30.7137 190.481 30.6612 190.402 30.5949 190.336C30.5287 190.27 30.4501 190.217 30.3635 190.181C30.277 190.146 30.1842 190.127 30.0906 190.127V190.127Z" fill="#2AC3D8"/>
<path d="M27.2672 185.343L24.9788 187.631C24.8448 187.765 24.7695 187.947 24.7695 188.136C24.7695 188.326 24.8448 188.508 24.9788 188.642C25.1128 188.776 25.2945 188.851 25.484 188.851C25.6735 188.851 25.8553 188.776 25.9893 188.642L28.2776 186.353C28.4116 186.219 28.4869 186.037 28.4869 185.848C28.4869 185.658 28.4116 185.477 28.2776 185.343C28.1436 185.209 27.9619 185.133 27.7724 185.133C27.5829 185.133 27.4012 185.209 27.2672 185.343Z" fill="#2AC3D8"/>
<path d="M198.367 98.3997H124.492V178.488H198.367V98.3997Z" fill="#EBA2A1"/>
<path d="M122.889 100.095H196.464V179.883H122.889V100.095Z" stroke="black" stroke-width="0.3"/>
<path d="M193.534 111.518H130.016V152.942H193.534V111.518Z" fill="white"/>
<path d="M153.537 107.001C155.088 107.001 156.345 105.963 156.345 104.684C156.345 103.404 155.088 102.367 153.537 102.367C151.986 102.367 150.728 103.404 150.728 104.684C150.728 105.963 151.986 107.001 153.537 107.001Z" fill="#F5FAFE"/>
<path d="M170.107 107.001C171.658 107.001 172.915 105.963 172.915 104.684C172.915 103.404 171.658 102.367 170.107 102.367C168.556 102.367 167.298 103.404 167.298 104.684C167.298 105.963 168.556 107.001 170.107 107.001Z" fill="#F5FAFE"/>
<path d="M155.479 91.4369C155.479 90.3253 154.578 89.4242 153.467 89.4242C152.355 89.4242 151.454 90.3253 151.454 91.4369V104.028C151.454 105.14 152.355 106.041 153.467 106.041C154.578 106.041 155.479 105.14 155.479 104.028V91.4369Z" fill="#6D6D6D"/>
<path d="M172.049 91.4369C172.049 90.3253 171.148 89.4242 170.036 89.4242C168.925 89.4242 168.024 90.3253 168.024 91.4369V104.028C168.024 105.14 168.925 106.041 170.036 106.041C171.148 106.041 172.049 105.14 172.049 104.028V91.4369Z" fill="#6D6D6D"/>
<path d="M141.62 152.788L156.682 129.27L167.286 145.588L173.606 137.829L181.662 152.788H141.62Z" fill="#CCCCCC"/>
<path d="M166.258 128.858C168.397 128.858 170.132 127.124 170.132 124.984C170.132 122.845 168.397 121.11 166.258 121.11C164.118 121.11 162.384 122.845 162.384 124.984C162.384 127.124 164.118 128.858 166.258 128.858Z" fill="#CCCCCC"/>
</svg>
