<svg width="437" height="318" viewBox="0 0 437 318" fill="none" xmlns="http://www.w3.org/2000/svg">
<g clip-path="url(#clip0)">
<path opacity="0.66" d="M251.629 151.094C270.946 151.094 286.605 135.467 286.605 116.19C286.605 96.9134 270.946 81.2865 251.629 81.2865C232.313 81.2865 216.654 96.9134 216.654 116.19C216.654 135.467 232.313 151.094 251.629 151.094Z" fill="#61CBDA" fill-opacity="0.15"/>
<path d="M345.395 229.081C344.763 228.523 344.12 228.026 343.494 227.496C343.494 221.916 344.573 216.236 345.06 210.756C345.753 202.983 345.691 195.238 344.02 187.565C342.779 181.911 340.209 176.632 336.521 172.164C335.084 171.266 333.614 170.417 332.104 169.647C330.104 168.962 328.063 168.403 325.992 167.973C322.467 167.745 318.929 167.801 315.413 168.141C310.901 168.858 306.453 169.931 302.11 171.349C299.887 172.573 297.75 173.948 295.714 175.462C287.695 181.94 280.029 188.938 271.384 194.579C266.746 197.56 261.736 199.92 256.483 201.599C249.214 203.937 241.905 203.619 234.524 202.297C231.88 201.828 229.632 200.796 227.143 199.741C224.756 198.731 222.581 197.849 220.478 196.393C214.042 191.867 210.033 187.571 205.47 181.131C202.345 176.723 200.376 171.511 198.408 166.528C197.176 163.366 196.24 160.097 195.612 156.763C195.299 155.122 195.053 153.515 194.796 151.919C191.145 146.669 187.432 141.473 182.802 136.97C174.308 128.701 163.556 122.786 151.489 122.702C137.873 122.607 125.711 130.062 115.999 138.996C108.467 145.932 102.78 154.877 98.1056 163.939C93.9286 172.075 90.2326 180.501 84.9597 187.989C83.0615 190.227 80.9778 192.3 78.7306 194.189C75.0849 196.934 71.4223 199.657 68.0115 202.698C64.0112 206.354 60.4208 210.433 57.3035 214.863C51.5329 222.887 48.2339 233.595 49.1341 243.511C50.1144 253.35 53.3682 262.828 58.6399 271.2C60.9612 279.445 65.3935 286.945 71.5006 292.962C74.5989 296.059 78.1886 298.623 82.1247 300.551C88.7564 303.62 94.8289 304.664 102.104 305.523C113.387 306.862 124.789 306.226 136.095 305.523C148.084 304.77 159.943 304.329 171.954 304.541C185.201 304.775 198.436 305.194 211.655 305.562C242.006 306.405 272.413 306.957 302.703 304.446C305.815 304.265 308.858 303.458 311.65 302.074C312.818 301.846 313.981 301.595 315.128 301.304C330.382 297.476 347.889 287.7 354.828 272.874C360.146 261.529 359.861 248.455 352.782 237.803C350.74 234.565 348.254 231.63 345.395 229.081ZM319.528 258.377C319.528 257.499 319.472 256.623 319.361 255.748C319.864 256.189 320.345 256.641 320.82 257.11C320.401 257.54 319.97 257.964 319.528 258.377Z" fill="#61CBDA" fill-opacity="0.15"/>
<path d="M149.878 205.087C151.869 199.467 158.322 197.42 164.137 200.388C169.253 203.005 175.108 205.087 178.463 209.718C183.495 212.547 186.47 219.277 181.326 224.081C166.754 237.686 191.083 256.876 203.653 262.857C223.671 272.399 247.005 276.06 268.672 279.743C278.503 281.417 277.541 295.306 268.796 296.891C251.238 300.066 233.322 297.482 215.703 293.749C200.27 290.462 184.474 287.187 170.075 280.585C157.673 274.899 147.032 266.016 142.369 253.846C135.597 236.106 144.169 221.196 149.878 205.087Z" fill="#FCBA9D"/>
<path d="M174.347 121.592C157.108 126.056 150.454 145.307 147.105 160.775C145.936 166.177 145.472 171.807 143.828 177.086C143.191 179.065 142.41 180.995 141.491 182.861C141.01 183.943 140.435 184.981 139.774 185.964C139.657 186.137 139.349 186.421 139.165 186.628C136.928 187.582 135.172 190.138 136.213 192.961C136.396 193.641 136.717 194.275 137.157 194.825C142.19 203.441 153.222 206.895 162.549 208.373C163.017 208.448 163.492 208.461 163.964 208.412C167.76 211.063 173.934 206.822 170.881 202.302C168.04 198.089 170.808 191.839 173.263 187.108C177.345 187.833 181.617 188.095 185.609 187.297C190.781 186.271 194.259 182.348 196.322 177.722C197.441 175.166 198.559 172.538 199.644 169.871C201.15 169.35 202.443 168.35 203.323 167.025C205.168 164.112 204.218 160.92 203.726 157.767C205.146 152.709 205.929 147.495 206.058 142.244C206.058 142.149 206.058 142.054 206.058 141.965C206.06 141.939 206.06 141.912 206.058 141.886C207.461 124.845 188.343 117.959 174.347 121.592Z" fill="#FFC7B3"/>
<path d="M158.333 121.993L158.596 121.725C160.61 119.467 163.129 117.714 165.949 116.609C166.636 116.33 167.335 116.09 168.046 115.866C171.62 114.744 175.36 114.234 179.106 114.36C180.842 112.864 181.915 110.744 182.092 108.462C182.494 103.06 178.804 95.2032 173.218 94.2044C173.218 94.0314 173.184 93.8584 173.173 93.6855C173.063 92.3117 172.715 90.9674 172.144 89.7124C170.798 86.9482 168.491 84.7667 165.652 83.5743C162.18 82.1123 158.456 82.4136 155.028 83.658C150.963 78.4853 144.03 75.578 137.258 77.3916C133.299 78.4518 128.708 83.0665 127.311 86.9112C126.125 90.1644 126.751 93.3395 128.099 96.269C119.343 95.5548 110.452 102 109.803 110.777C109.429 115.838 111.386 120.894 114.534 124.873C118.325 129.666 124.039 131.479 130.09 130.788C132.216 130.494 134.314 130.028 136.363 129.393C135.676 133.299 137.169 137.355 140.781 139.465C143.31 140.814 146.242 141.21 149.04 140.581C150.807 133.818 153.435 127.172 158.333 121.993ZM147.916 120.972C148.202 120.93 148.484 120.865 148.76 120.777C148.581 121.089 148.413 121.413 148.262 121.737C148.162 121.474 148.042 121.218 147.905 120.972H147.916Z" fill="#4C4C4C"/>
<path d="M212.253 140.798C213.159 137.757 212.426 134.052 211.403 131.128C207.774 120.766 197.346 115.554 186.8 115.353C175.208 115.13 162.392 119.058 156.633 129.923C156.477 130.218 156.32 130.531 156.175 130.855C154.027 133.761 152.197 136.889 150.717 140.184C147.3 147.803 144.883 155.831 143.526 164.067C142.525 169.915 147.675 173.553 152.965 171.321C155.355 170.243 157.405 168.534 158.892 166.377C157.628 161.913 158.093 156.992 161.352 153.381C162.55 152.122 164.06 151.201 165.73 150.711C167.399 150.221 169.168 150.18 170.858 150.591C172.87 151.086 174.721 152.089 176.232 153.504C178.015 153.607 179.801 153.386 181.505 152.851C183.281 152.341 184.933 151.475 186.362 150.305C187.791 149.136 188.965 147.687 189.814 146.049C190.162 146.175 190.517 146.281 190.876 146.367C196.418 151.194 208.428 151.83 210.822 144.135C211.632 143.197 212.132 142.031 212.253 140.798Z" fill="#4C4C4C"/>
<path d="M174.135 115.247C164.959 116.324 155.459 121.234 152.825 130.693C152.048 133.483 156.365 134.649 157.136 131.876C159.194 124.493 166.966 120.554 174.135 119.711C176.959 119.371 176.992 114.901 174.135 115.247Z" fill="#2AC3D8"/>
<path d="M145.019 141.886C140.546 140.77 134.826 138.538 134.434 133.221C134.378 132.506 133.26 132.501 133.316 133.221C133.747 139.091 139.679 141.725 144.723 142.963C145.422 143.147 145.718 142.059 145.019 141.886Z" fill="#4C4C4C"/>
<path d="M186.224 111.09C185.348 111.285 184.492 111.556 183.663 111.899C185.031 108.757 185.301 105.247 184.429 101.933C184.217 101.246 183.137 101.542 183.35 102.229C184.312 105.326 183.797 110.431 181.717 113.015C181.275 113.573 182.058 114.365 182.511 113.802C182.573 113.724 182.634 113.634 182.69 113.556H182.752C183.941 112.936 185.208 112.48 186.52 112.2C187.225 112.016 186.923 110.939 186.224 111.09Z" fill="#4C4C4C"/>
<path d="M125.286 92.7369C125.247 92.7369 125.214 92.6699 125.169 92.642C124.649 90.901 125.527 88.5797 123.559 87.5474C123.485 87.5041 123.401 87.4784 123.316 87.4723C123.23 87.4662 123.144 87.4799 123.065 87.5123C122.985 87.5447 122.914 87.5949 122.857 87.659C122.801 87.7232 122.759 87.7995 122.737 87.8822C122.407 89.958 122.837 92.4802 124.722 93.7022C125.342 94.0928 125.901 93.1275 125.286 92.7369Z" fill="#4C4C4C"/>
<path d="M122.547 93.373C122.105 93.4232 121.026 93.373 120.774 93.373C119.354 93.4016 117.992 93.9405 116.938 94.8908C116.861 94.9691 116.809 95.0683 116.788 95.1761C116.768 95.2838 116.779 95.3952 116.822 95.4964C116.864 95.5977 116.935 95.6842 117.027 95.7452C117.118 95.8062 117.225 95.8389 117.335 95.8394C119.248 95.9677 120.69 94.6955 122.547 94.489C123.229 94.4053 123.24 93.2893 122.547 93.373Z" fill="#4C4C4C"/>
<path d="M120.947 117.446C118.823 115.398 117.173 113.59 117.128 110.482C117.095 107.831 117.43 104.812 120.483 104.109C120.83 104.025 120.685 103.49 120.332 103.551C117.302 104.254 116.653 106.994 116.592 109.756C116.479 111.244 116.746 112.736 117.369 114.092C118.118 115.559 119.393 116.692 120.562 117.819C120.813 118.093 121.205 117.697 120.947 117.446Z" fill="white"/>
<path d="M173.883 110.297C167.791 111.544 162.004 113.972 156.851 117.446C152.177 120.637 147.631 125.375 148.139 131.452C148.167 131.803 148.727 131.809 148.699 131.452C148.179 125.207 153.172 120.476 157.986 117.362C162.89 114.227 168.327 112.014 174.029 110.833C174.381 110.783 174.236 110.225 173.883 110.297Z" fill="white"/>
<path d="M208.098 140.514C206.672 143.488 202.988 144.241 199.974 144.163C196.96 144.085 193.459 143.231 191.514 140.815C191.29 140.536 190.893 140.932 191.117 141.211C193.219 143.823 197.088 144.71 200.287 144.732C203.485 144.755 207.12 143.851 208.585 140.826C208.758 140.475 208.277 140.19 208.098 140.514Z" fill="white"/>
<path d="M145.752 144.046C143.062 150.954 141.905 158.325 139.366 165.284C139.338 165.35 139.325 165.421 139.329 165.493C139.333 165.564 139.352 165.634 139.387 165.697C139.421 165.759 139.469 165.814 139.528 165.855C139.586 165.897 139.653 165.925 139.724 165.937C139.774 167.377 140.011 168.804 140.429 170.183C140.468 170.326 140.562 170.447 140.691 170.521C140.82 170.594 140.973 170.613 141.116 170.574C141.259 170.535 141.381 170.44 141.454 170.311C141.528 170.183 141.547 170.03 141.508 169.887C141.061 168.441 140.829 166.937 140.82 165.423C140.823 165.346 140.808 165.27 140.777 165.199C140.746 165.129 140.7 165.066 140.641 165.016C143.04 158.219 144.208 151.066 146.831 144.33C147.088 143.672 146.031 143.382 145.752 144.046Z" fill="#4C4C4C"/>
<path d="M84.2607 241.357C92.0163 224.79 96.0367 208.876 111.816 197.95C121.02 191.577 136.05 182.883 146.177 191.912C146.784 192.404 147.269 193.029 147.594 193.738C147.919 194.448 148.075 195.223 148.05 196.002C151.863 205.349 165.295 206.046 169.829 196.806C171.406 193.586 174.521 193.262 176.998 194.512C178.002 194.457 178.999 194.706 179.859 195.225C180.719 195.745 181.402 196.512 181.818 197.425C186.738 206.85 191.122 216.844 195.316 226.604C198.397 233.785 200.315 241.949 196.993 249.382C193.739 256.636 185.989 260.307 183.501 267.935C180.392 277.472 181.628 290.105 183.674 299.686C183.883 300.646 183.852 301.642 183.585 302.588C184.144 305.83 182.282 309.557 177.993 309.568C160.217 309.608 142.447 310.126 124.671 310.188C124.09 310.186 123.512 310.102 122.955 309.937C121.972 309.729 121.075 309.233 120.377 308.512C119.68 307.791 119.214 306.878 119.041 305.891C115.92 292.393 114.288 278.632 111.604 265.05C111.288 263.601 111.545 262.086 112.319 260.821C103.2 258.427 94.1746 255.202 86.3967 249.984C85.5296 249.437 84.8266 248.667 84.362 247.755C83.8975 246.842 83.6886 245.821 83.7575 244.8C83.5807 243.628 83.7558 242.43 84.2607 241.357Z" fill="#747474"/>
<path d="M84.1209 249.873C84.4508 243.924 90.0704 240.152 96.4896 241.374C102.137 242.451 108.321 242.808 112.867 246.324C118.493 247.635 123.234 253.265 119.644 259.308C109.473 276.445 138.203 288.063 151.958 290.3C173.855 293.866 197.284 290.858 219.114 288.342C229.028 287.198 232.003 300.802 224.051 304.764C208.087 312.721 190.16 315.249 172.195 316.588C156.476 317.76 140.361 319.016 124.705 316.7C111.207 314.702 98.497 309.156 90.596 298.765C79.1108 283.638 83.1591 266.925 84.1209 249.873Z" fill="#FFC7B3"/>
<path d="M183.669 309.641C183.667 309.227 183.823 308.828 184.105 308.525C184.138 308.486 184.161 308.441 184.2 308.402L184.306 308.324C184.609 308.04 185.009 307.882 185.424 307.883H197.044C206.784 292.583 217.442 277.751 224.247 260.86C224.247 260.809 224.309 260.782 224.331 260.731C224.057 259.71 224.583 258.438 225.958 258.438H329.582C331.125 258.438 331.601 260.039 331.058 261.088C331.394 261.702 300.304 310.952 299.186 312.554C299.186 312.998 299.009 313.424 298.695 313.737C298.38 314.051 297.953 314.228 297.508 314.228H185.447C185.176 314.228 184.91 314.164 184.669 314.043C184.428 313.921 184.219 313.744 184.059 313.527C183.899 313.31 183.792 313.058 183.748 312.792C183.703 312.526 183.722 312.253 183.803 311.996C183.715 311.785 183.669 311.56 183.669 311.332V309.641Z" fill="#3A3A3A"/>
<path d="M248.671 270.681C247.888 270.173 247.132 269.626 246.407 269.04" stroke="#4D4D4D" stroke-miterlimit="10"/>
<path d="M242.403 265.062C233.238 253.857 232.998 235.889 239.121 222.095C246.39 205.661 260.285 193.262 272.24 179.825C290.374 159.441 304.99 134.861 308.328 107.809C311.437 82.6257 303.296 55.2218 284.195 38.794" stroke="#4D4D4D" stroke-miterlimit="10" stroke-dasharray="10.12 10.12"/>
<path d="M282.014 37.0084C281.282 36.4503 280.538 35.8923 279.777 35.3343" stroke="#4D4D4D" stroke-miterlimit="10"/>
<path d="M34.0759 158.286C26.5775 155.424 16.0764 151.479 5.58653 147.494C4.70864 147.16 3.85872 146.735 3.00879 146.323C0.486968 145.101 0.274486 145.034 1.03495 142.299C3.29955 134.124 5.70954 125.989 8.18663 117.875C8.42148 117.088 9.52862 116.028 10.1996 116.051C11.0048 116.084 11.81 117.094 12.5369 117.764C12.7884 118.091 12.9572 118.474 13.029 118.88C15.7018 127.769 27.2093 129.225 32.9408 122.155C36.4076 117.881 38.0627 112.976 37.2799 107.502C36.3125 100.772 30.1953 96.9387 23.5245 98.741C22.1273 99.2106 20.7619 99.7698 19.437 100.415C18.822 100.765 18.1667 101.038 17.4855 101.23C16.725 101.33 15.5117 101.397 15.2489 100.979C15.0683 100.601 14.9709 100.188 14.9632 99.7698C14.9555 99.3511 15.0376 98.9357 15.2041 98.5513C16.2353 96.1723 17.3887 93.8479 18.6597 91.5873C20.7342 87.9045 22.9373 84.2774 25.1404 80.6503C26.3762 78.6136 28.0928 77.7766 30.5252 78.5132C38.6628 80.987 46.8061 83.4218 54.955 85.8175C56.1239 86.2204 57.3332 86.4955 58.5616 86.6378C60.7982 86.7884 62.1234 85.4548 61.7488 83.2897C61.4138 81.7367 60.8722 80.2354 60.1384 78.8256C58.83 76.0635 58.1981 73.2958 59.1934 70.2825C59.6082 68.8894 60.3882 67.632 61.4528 66.6402C62.5174 65.6485 63.8279 64.9583 65.2492 64.641C70.6059 63.2069 78.2385 66.0193 81.5991 70.4443C84.8254 74.6908 84.188 82.6592 77.5395 84.9526C76.755 85.219 75.9923 85.5455 75.2582 85.9291C73.1948 87.0172 72.6357 88.9145 74.2796 90.555C75.7165 91.9949 77.4276 93.1333 79.3121 93.9031C84.4787 95.9287 89.774 97.625 94.9966 99.5167C97.1046 100.281 99.1624 101.191 101.214 102.084C104.514 103.54 105.615 105.549 104.536 109.036C103.339 112.914 101.858 116.715 100.353 120.487C94.5157 135.11 88.6482 149.723 82.7509 164.324C81.9793 166.238 81.0734 168.091 80.3186 170.016C79.6979 171.639 78.7082 172.091 77.0475 171.617C72.3953 170.289 67.6703 169.173 63.0684 167.711C54.4014 164.994 45.7735 162.12 34.0759 158.286Z" fill="#F9E4E4"/>
<path d="M374.298 279.302C372.57 274.514 370.155 267.818 367.745 261.116C367.544 260.558 367.398 259.967 367.247 259.387C366.794 257.668 366.738 257.54 368.366 256.77C373.258 254.482 378.19 252.305 383.139 250.118C383.619 249.912 384.592 250.006 384.855 250.336C385.118 250.665 385.017 251.547 384.989 252.172C384.939 252.431 384.821 252.674 384.648 252.875C381.456 257.835 385.504 263.985 391.297 263.828C394.797 263.728 397.856 262.5 400.182 259.855C403.039 256.613 402.363 252.077 398.734 249.61C397.931 249.13 397.098 248.701 396.24 248.327C395.816 248.176 395.412 247.973 395.038 247.724C394.674 247.395 394.143 246.843 394.227 246.536C394.335 246.292 394.494 246.074 394.694 245.897C394.894 245.72 395.129 245.587 395.384 245.509C396.963 245.022 398.566 244.617 400.187 244.298C402.832 243.779 405.499 243.344 408.161 242.903C409.66 242.657 410.772 243.143 411.421 244.622C413.583 249.562 415.771 254.491 417.986 259.409C418.28 260.14 418.655 260.836 419.104 261.485C419.954 262.629 421.145 262.718 422.051 261.63C422.659 260.829 423.158 259.951 423.532 259.018C424.327 257.244 425.406 255.799 427.273 255.029C428.117 254.65 429.046 254.502 429.966 254.6C430.886 254.698 431.763 255.038 432.507 255.587C435.42 257.579 437.21 262.422 436.46 265.865C435.739 269.18 431.618 272.165 427.765 269.905C427.312 269.637 426.839 269.404 426.351 269.208C424.97 268.65 423.823 269.18 423.706 270.647C423.608 271.94 423.77 273.24 424.181 274.47C425.339 277.818 426.703 281.049 427.95 284.346C428.448 285.674 428.867 287.042 429.275 288.403C429.935 290.596 429.42 291.958 427.284 292.867C424.914 293.894 422.464 294.748 420.015 295.585C410.524 298.821 401.019 302.033 391.498 305.222C390.251 305.64 388.976 305.964 387.741 306.405C386.695 306.773 386.063 306.488 385.61 305.489C384.33 302.699 382.921 299.96 381.696 297.119C379.454 291.857 377.29 286.506 374.298 279.302Z" fill="#FFE3E3"/>
<path d="M385.972 246.119C386.172 245.942 386.408 245.81 386.663 245.731M385.972 246.119C385.773 246.297 385.613 246.514 385.505 246.758M385.972 246.119L386.304 246.494C386.188 246.596 386.091 246.718 386.016 246.853M385.972 246.119L386.304 246.494C386.45 246.364 386.623 246.267 386.81 246.209L386.81 246.209C388.372 245.727 389.958 245.327 391.562 245.011M386.663 245.731L387.518 248.549C387.094 248.398 386.691 248.196 386.316 247.947M386.663 245.731C388.242 245.244 389.845 244.84 391.466 244.521M386.663 245.731L391.466 244.521M385.505 246.758C385.421 247.065 385.953 247.618 386.316 247.947M385.505 246.758L385.988 246.89C386 246.845 385.997 246.814 385.995 246.803M385.505 246.758L385.962 246.961C385.979 246.924 385.997 246.888 386.016 246.853M386.316 247.947L386.652 247.576C386.643 247.568 386.633 247.559 386.624 247.551M386.316 247.947L386.593 247.531C386.603 247.537 386.614 247.544 386.624 247.551M386.624 247.551C386.956 247.768 387.312 247.945 387.686 248.078L387.702 248.084L387.718 248.091C388.596 248.474 389.448 248.912 390.269 249.404L390.281 249.411L390.293 249.419C394.157 252.045 394.903 256.928 391.836 260.408M386.624 247.551C386.458 247.399 386.273 247.212 386.139 247.039C386.08 246.962 386.04 246.899 386.016 246.853M386.016 246.853C386.011 246.844 386.007 246.835 386.004 246.827C385.999 246.815 385.996 246.808 385.995 246.803M391.562 245.011C394.016 244.53 396.49 244.12 398.97 243.71C399.154 243.68 399.337 243.649 399.521 243.619M391.562 245.011L391.466 244.521M391.562 245.011C391.562 245.011 391.563 245.011 391.563 245.011L391.466 244.521M399.521 243.619C400.201 243.508 400.739 243.571 401.163 243.785C401.583 243.996 401.952 244.386 402.242 245.045M399.521 243.619C399.521 243.619 399.521 243.619 399.52 243.619L399.44 243.126L399.521 243.619C399.521 243.619 399.521 243.619 399.521 243.619ZM402.242 245.045C404.403 249.984 406.591 254.911 408.804 259.828M402.242 245.045L402.7 244.844L402.242 245.045C402.242 245.045 402.242 245.045 402.242 245.045ZM408.804 259.828C409.112 260.59 409.504 261.315 409.971 261.992L409.976 261.999L409.981 262.005C410.466 262.658 411.099 263.076 411.807 263.116C412.521 263.157 413.187 262.804 413.714 262.172L413.721 262.164L413.727 262.155C414.361 261.322 414.88 260.407 415.271 259.436M408.804 259.828C408.803 259.825 408.802 259.822 408.8 259.818L409.264 259.631L408.808 259.837C408.807 259.834 408.806 259.831 408.804 259.828ZM415.271 259.436C416.036 257.73 417.041 256.415 418.742 255.713L418.75 255.71L418.757 255.707C419.519 255.365 420.36 255.231 421.191 255.319C422.023 255.408 422.816 255.716 423.489 256.212L423.496 256.217L423.503 256.222C424.852 257.144 425.975 258.756 426.668 260.582C427.361 262.407 427.599 264.378 427.25 265.981C426.923 267.487 425.81 268.946 424.325 269.76C422.857 270.564 421.053 270.726 419.297 269.697M415.271 259.436C415.27 259.439 415.269 259.442 415.267 259.445L414.811 259.241M415.271 259.436C415.273 259.433 415.274 259.43 415.275 259.427L414.811 259.241M419.297 269.697C418.823 269.416 418.327 269.172 417.816 268.966M419.297 269.697C419.298 269.697 419.298 269.697 419.298 269.697L419.044 270.128M419.297 269.697C419.297 269.697 419.297 269.696 419.297 269.696L419.044 270.128M417.816 268.966C417.039 268.652 416.246 268.612 415.602 268.947C414.941 269.29 414.555 269.967 414.486 270.83L414.486 270.832C414.383 272.192 414.553 273.558 414.985 274.851L414.987 274.856C415.728 276.999 416.558 279.106 417.383 281.201C417.849 282.384 418.314 283.564 418.76 284.745M417.816 268.966C417.816 268.966 417.816 268.966 417.816 268.967L417.629 269.43M417.816 268.966L417.629 269.43M418.76 284.745C419.252 286.056 419.667 287.408 420.075 288.769L420.075 288.77C420.389 289.815 420.394 290.569 420.147 291.142C419.904 291.707 419.371 292.202 418.367 292.63L418.364 292.631C416.014 293.649 413.582 294.497 411.132 295.334M418.76 284.745C418.76 284.745 418.76 284.745 418.76 284.744L419.228 284.569M418.76 284.745C418.761 284.745 418.761 284.746 418.761 284.746L419.228 284.569M411.132 295.334C401.642 298.57 392.138 301.782 382.618 304.97L382.618 304.97C382.071 305.153 381.52 305.318 380.959 305.486C380.89 305.507 380.82 305.527 380.75 305.548C380.121 305.737 379.483 305.931 378.852 306.156M411.132 295.334C411.132 295.334 411.132 295.334 411.133 295.334L411.294 295.807M411.132 295.334L411.294 295.807M378.852 306.156C378.389 306.319 378.113 306.303 377.931 306.224C377.747 306.144 377.546 305.951 377.344 305.505L377.343 305.503C376.827 304.38 376.297 303.276 375.768 302.176C374.968 300.512 374.171 298.855 373.434 297.145M378.852 306.156C378.852 306.156 378.853 306.156 378.853 306.156L379.019 306.627M378.852 306.156C378.852 306.156 378.851 306.156 378.851 306.156L379.019 306.627M373.434 297.145C371.996 293.769 370.59 290.358 368.976 286.441C368.077 284.26 367.113 281.921 366.043 279.344C364.316 274.557 361.902 267.866 359.494 261.17L359.494 261.169C359.324 260.7 359.196 260.204 359.062 259.687C359.045 259.619 359.027 259.551 359.01 259.483L359.009 259.482L358.998 259.441C358.888 259.022 358.812 258.731 358.774 258.503C358.736 258.269 358.753 258.173 358.771 258.125C358.786 258.086 358.827 258.016 359 257.898C359.18 257.775 359.448 257.638 359.857 257.445M373.434 297.145C373.434 297.145 373.434 297.146 373.435 297.146L372.975 297.342L373.434 297.144C373.434 297.144 373.434 297.145 373.434 297.145ZM359.857 257.445C364.606 255.224 369.393 253.108 374.201 250.983L374.614 250.8L374.417 250.341M359.857 257.445C359.857 257.445 359.856 257.445 359.856 257.445L359.644 256.992M359.857 257.445C359.857 257.444 359.858 257.444 359.858 257.444L359.644 256.992M374.417 250.341L374.619 250.798L374.616 250.799C374.747 250.744 375.012 250.712 375.3 250.745C375.437 250.761 375.555 250.79 375.643 250.823C375.706 250.847 375.735 250.867 375.744 250.873M374.417 250.341C374.898 250.134 375.871 250.229 376.134 250.558C376.358 250.839 376.318 251.52 376.284 252.102C376.278 252.203 376.272 252.301 376.268 252.394M374.417 250.341L373.997 250.526C369.19 252.651 364.398 254.769 359.644 256.992M375.744 250.873C375.75 250.885 375.765 250.919 375.779 250.992C375.798 251.089 375.808 251.216 375.81 251.371C375.813 251.592 375.799 251.82 375.786 252.052C375.78 252.144 375.775 252.237 375.77 252.331M375.744 250.873C375.746 250.875 375.747 250.876 375.747 250.875C375.747 250.875 375.746 250.874 375.743 250.87C375.742 250.869 375.742 250.869 375.742 250.869C375.742 250.869 375.743 250.87 375.744 250.873ZM375.77 252.331C375.733 252.493 375.657 252.644 375.548 252.771L375.525 252.797L375.506 252.827C372.061 258.18 376.461 264.716 382.589 264.551L382.59 264.551C386.207 264.447 389.405 263.172 391.836 260.408M375.77 252.331C375.773 252.32 375.775 252.309 375.777 252.298L376.268 252.394M375.77 252.331C375.77 252.344 375.769 252.358 375.768 252.372L376.268 252.394M391.836 260.408C391.836 260.408 391.836 260.408 391.836 260.408L391.46 260.078L391.836 260.408ZM385.995 246.803C385.994 246.8 385.994 246.799 385.994 246.799C385.993 246.799 385.994 246.8 385.995 246.803ZM376.268 252.394L358.526 259.609C358.52 259.589 358.515 259.568 358.51 259.548C358.072 257.887 358.036 257.753 359.644 256.992M379.019 306.627C379.705 306.382 380.404 306.174 381.102 305.965C381.662 305.798 382.222 305.63 382.777 305.444M379.019 306.627C377.973 306.995 377.342 306.711 376.889 305.712L382.777 305.444M382.777 305.444C392.297 302.256 401.803 299.044 411.294 295.807M382.777 305.444L418.563 293.09M411.294 295.807C413.743 294.97 416.192 294.117 418.563 293.09M418.563 293.09C420.699 292.18 421.213 290.819 420.554 288.626C420.145 287.264 419.726 285.897 419.228 284.569M418.563 293.09L415.46 274.692M419.228 284.569C418.777 283.374 418.309 282.188 417.842 281.002C417.02 278.914 416.198 276.827 415.46 274.692M415.46 274.692C415.048 273.462 414.887 272.163 414.984 270.87C415.102 269.402 416.248 268.872 417.629 269.43M415.46 274.692L419.044 270.128M417.629 269.43C418.118 269.627 418.591 269.86 419.044 270.128M419.044 270.128C422.896 272.388 427.018 269.402 427.739 266.088C428.488 262.645 426.699 257.801 423.786 255.809M419.044 270.128L423.786 255.809M423.786 255.809C423.041 255.261 422.164 254.92 421.244 254.822C420.325 254.724 419.395 254.872 418.552 255.251C416.684 256.021 415.605 257.466 414.811 259.241M423.786 255.809L413.329 261.852C413.938 261.052 414.436 260.174 414.811 259.241" stroke="black"/>
<path opacity="0.66" d="M101.349 43.6208C100.672 42.6778 100.135 42.2481 100.018 41.718C99.1288 37.8119 98.3068 33.8445 97.496 29.8993C97.0487 27.7175 97.9545 26.2723 99.9787 25.4018C104.133 23.6273 108.26 21.8026 112.403 20.0058C113.276 19.6264 114.26 19.4478 115.02 18.8898C115.781 18.3318 116.748 17.5394 116.698 16.9033C116.642 16.0886 115.775 15.1957 115.02 14.5987C114.265 14.0016 113.292 13.823 112.47 13.3599C108.389 11.0609 107.896 6.55775 111.469 3.55565C113.93 1.49101 116.809 0.425214 120.069 1.00554C124.162 1.73654 126.22 5.68725 124.509 9.4594C124.285 9.96161 123.849 10.4471 123.827 10.9549C123.788 11.9146 123.626 13.2539 124.157 13.7449C124.579 14.0424 125.059 14.2461 125.567 14.3423C126.074 14.4386 126.596 14.4252 127.098 14.3029C128.776 13.8621 130.28 12.9023 131.907 12.2718C134.563 11.245 137.247 10.302 139.931 9.3478C141.53 8.78979 142.816 9.28642 143.487 10.793C144.829 13.8175 146.054 16.8977 147.295 19.9667C147.535 20.5247 147.496 21.2781 147.821 21.7803C148.464 22.7679 149.269 23.6496 150.007 24.5703C151.003 23.8148 151.937 22.9827 152.803 22.0816C153.451 21.3227 153.686 20.2178 154.279 19.3976C156.421 16.4234 160.117 15.9491 162.761 18.3931C163.989 19.4716 164.941 20.8274 165.537 22.3475C166.134 23.8675 166.357 25.5078 166.189 27.1316C165.775 31.6905 161.481 34.0621 157.354 32.0588C155.85 31.3278 154.391 30.6638 152.982 32.0142C151.489 33.4427 152.115 35.033 152.887 36.5899C154.71 40.2727 156.482 43.9835 158.344 47.6496C159.188 49.3237 158.663 50.3504 157.08 50.9977C152.238 52.9619 147.39 54.9038 142.542 56.8066C142.22 56.8985 141.882 56.9171 141.552 56.8611C141.222 56.805 140.909 56.6758 140.635 56.4829C140.333 56.2318 140.412 55.2999 140.574 54.7475C140.865 53.7654 141.424 52.867 141.731 51.8905C143.28 46.9912 140.054 42.6554 134.921 42.728C133.329 42.7096 131.75 43.0159 130.281 43.6281C128.811 44.2402 127.483 45.1454 126.377 46.2881C122.569 50.1942 123.793 55.9975 128.831 58.1179C129.367 58.3083 129.883 58.5474 130.375 58.8322C132.08 59.9482 132.198 61.7059 130.408 62.5485C124.97 65.1116 119.467 67.5408 113.902 69.8361C113.309 70.0872 111.783 69.4567 111.481 68.8429C109.115 64.0216 106.912 59.1112 104.771 54.1895C104.658 53.8762 104.622 53.5405 104.666 53.2104C104.71 52.8804 104.832 52.5656 105.022 52.2923C105.391 51.9686 106.308 52.1751 106.957 52.2923C107.407 52.4426 107.838 52.6429 108.243 52.8893C109.232 53.358 110.317 53.5891 111.411 53.5642C112.505 53.5393 113.579 53.2591 114.545 52.746C115.511 52.233 116.344 51.5013 116.976 50.6095C117.608 49.7178 118.022 48.6907 118.185 47.6106C118.569 45.6116 118.39 43.5455 117.667 41.6421C116.945 39.7388 115.707 38.0728 114.092 36.8298C110.58 33.9393 105.822 35.2674 103.546 39.5752C102.87 40.7805 102.215 41.9858 101.349 43.6208Z" fill="#F9E4E4"/>
<path d="M263.489 39.3576C263.617 39.3576 263.739 39.307 263.829 39.217C263.919 39.127 263.97 39.005 263.97 38.8777C263.97 38.7504 263.919 38.6284 263.829 38.5384C263.739 38.4484 263.617 38.3978 263.489 38.3978C263.362 38.3978 263.239 38.4484 263.149 38.5384C263.059 38.6284 263.008 38.7504 263.008 38.8777C263.008 39.005 263.059 39.127 263.149 39.217C263.239 39.307 263.362 39.3576 263.489 39.3576Z" fill="#200F7A"/>
<path d="M284.09 4.01907L238.904 4.23157L239.073 39.8769L284.258 39.6644L284.09 4.01907Z" fill="white" stroke="black" stroke-width="0.98" stroke-miterlimit="10"/>
<path d="M239.07 39.8821L255.767 20.0002L263.148 30.6303L271.356 23.8895L284.256 39.67L239.07 39.8821Z" fill="white" stroke="black" stroke-width="0.98" stroke-miterlimit="10"/>
<path d="M265.519 19.6487C267.541 19.6487 269.181 18.0123 269.181 15.9937C269.181 13.9751 267.541 12.3387 265.519 12.3387C263.496 12.3387 261.856 13.9751 261.856 15.9937C261.856 18.0123 263.496 19.6487 265.519 19.6487Z" fill="white" stroke="black" stroke-width="0.98" stroke-miterlimit="10"/>
<g opacity="0.62">
<path opacity="0.62" d="M217.778 25.6035C217.839 25.5861 217.892 25.5495 217.93 25.499C217.968 25.4486 217.989 25.3872 217.989 25.324C217.989 25.2609 217.968 25.1995 217.93 25.149C217.892 25.0986 217.839 25.062 217.778 25.0446C217.717 25.062 217.663 25.0986 217.625 25.149C217.587 25.1995 217.567 25.2609 217.567 25.324C217.567 25.3872 217.587 25.4486 217.625 25.499C217.663 25.5495 217.717 25.5861 217.778 25.6035Z" fill="#200F7A"/>
<path opacity="0.62" d="M230.31 4.11609L202.822 4.24536L202.925 25.935L230.413 25.8057L230.31 4.11609Z" fill="white" stroke="black" stroke-width="0.6" stroke-miterlimit="10"/>
<path opacity="0.62" d="M202.921 25.9374L213.081 13.8398L217.565 20.3071L222.564 16.2057L230.409 25.8091L202.921 25.9374Z" fill="white" stroke="black" stroke-width="0.6" stroke-miterlimit="10"/>
<path opacity="0.62" d="M219.013 13.6333C220.245 13.6333 221.244 12.6365 221.244 11.4069C221.244 10.1772 220.245 9.18042 219.013 9.18042C217.781 9.18042 216.782 10.1772 216.782 11.4069C216.782 12.6365 217.781 13.6333 219.013 13.6333Z" fill="white" stroke="black" stroke-width="0.6" stroke-miterlimit="10"/>
</g>
<g opacity="0.62">
<path opacity="0.62" d="M217.778 54.0341C217.836 54.0137 217.886 53.9759 217.922 53.9259C217.957 53.8758 217.976 53.816 217.976 53.7546C217.976 53.6933 217.957 53.6335 217.922 53.5834C217.886 53.5334 217.836 53.4956 217.778 53.4752C217.72 53.4956 217.67 53.5334 217.634 53.5834C217.599 53.6335 217.579 53.6933 217.579 53.7546C217.579 53.816 217.599 53.8758 217.634 53.9259C217.67 53.9759 217.72 54.0137 217.778 54.0341Z" fill="#200F7A"/>
<path opacity="0.62" d="M230.31 32.5464L202.822 32.6757L202.925 54.3653L230.413 54.236L230.31 32.5464Z" fill="white" stroke="black" stroke-width="0.6" stroke-miterlimit="10"/>
<path opacity="0.62" d="M202.921 54.3681L213.081 42.2704L217.565 48.7377L222.564 44.6364L230.409 54.2397L202.921 54.3681Z" fill="white" stroke="black" stroke-width="0.6" stroke-miterlimit="10"/>
<path opacity="0.62" d="M219.013 42.0583C220.245 42.0583 221.244 41.0615 221.244 39.8319C221.244 38.6022 220.245 37.6054 219.013 37.6054C217.781 37.6054 216.782 38.6022 216.782 39.8319C216.782 41.0615 217.781 42.0583 219.013 42.0583Z" fill="white" stroke="black" stroke-width="0.6" stroke-miterlimit="10"/>
</g>
<path d="M330.359 207.319H291.699C291.699 207.319 292.258 239.912 292.258 239.521L299.879 231.927H330.331L330.359 207.319Z" stroke="black" stroke-width="1.72" stroke-miterlimit="10"/>
<path d="M302.082 221.102C303.058 221.102 303.849 220.312 303.849 219.338C303.849 218.364 303.058 217.575 302.082 217.575C301.107 217.575 300.315 218.364 300.315 219.338C300.315 220.312 301.107 221.102 302.082 221.102Z" fill="#606060"/>
<path d="M311.694 221.102C312.67 221.102 313.461 220.312 313.461 219.338C313.461 218.364 312.67 217.575 311.694 217.575C310.719 217.575 309.927 218.364 309.927 219.338C309.927 220.312 310.719 221.102 311.694 221.102Z" fill="#606060"/>
<path d="M321.301 221.102C322.277 221.102 323.068 220.312 323.068 219.338C323.068 218.364 322.277 217.575 321.301 217.575C320.325 217.575 319.534 218.364 319.534 219.338C319.534 220.312 320.325 221.102 321.301 221.102Z" fill="#606060"/>
<path d="M232.416 162.12C230.083 158.117 229.346 153.383 230.354 148.862C231.361 144.342 234.039 140.366 237.853 137.727C241.666 135.088 246.337 133.981 250.932 134.625C255.528 135.269 259.712 137.617 262.65 141.202C265.588 144.787 267.064 149.345 266.785 153.968C266.506 158.591 264.491 162.939 261.143 166.146C257.794 169.353 253.358 171.183 248.718 171.271C244.078 171.359 239.575 169.7 236.107 166.623L230.515 168.453L232.416 162.12Z" fill="white" stroke="black" stroke-miterlimit="10"/>
<path d="M239.456 151.088C239.499 152.541 240.069 153.929 241.061 154.994C242.297 156.356 243.641 157.616 245.081 158.761C245.641 159.235 246.272 159.771 246.927 160.345C247.1 160.497 247.323 160.58 247.553 160.58C247.783 160.58 248.006 160.497 248.179 160.345C248.833 159.787 249.465 159.229 250.024 158.761C251.462 157.613 252.806 156.354 254.045 154.994C255.036 153.929 255.607 152.541 255.65 151.088C255.673 149.818 255.214 148.585 254.363 147.639C253.953 147.192 253.452 146.834 252.895 146.591C252.337 146.348 251.734 146.224 251.126 146.228C250.203 146.224 249.306 146.533 248.582 147.104C248.188 147.411 247.841 147.774 247.553 148.181C247.264 147.774 246.918 147.411 246.524 147.104C245.8 146.533 244.903 146.224 243.98 146.228C243.371 146.224 242.769 146.347 242.211 146.59C241.653 146.834 241.153 147.191 240.742 147.639C239.892 148.585 239.432 149.818 239.456 151.088Z" fill="#EBA2A1"/>
<path d="M285.145 44.296H239.389V46.0649H285.145V44.296Z" fill="#C6C6C6"/>
<path d="M284.435 48.548H238.679V50.3169H284.435V48.548Z" fill="#C6C6C6"/>
<path d="M259.34 52.7945H238.679V54.5634H259.34V52.7945Z" fill="#C6C6C6"/>
<g opacity="0.14">
<path opacity="0.14" d="M344.925 134.459C342.331 134.462 339.836 135.459 337.957 137.246C336.079 139.032 334.96 141.471 334.833 144.057H355.013C354.886 141.471 353.769 139.033 351.891 137.246C350.014 135.46 347.52 134.462 344.925 134.459Z" fill="#606060"/>
<path opacity="0.14" d="M344.931 123.439C343.936 123.439 342.963 123.733 342.135 124.285C341.308 124.837 340.663 125.621 340.282 126.539C339.901 127.456 339.801 128.466 339.995 129.44C340.189 130.415 340.669 131.309 341.373 132.012C342.076 132.714 342.973 133.192 343.949 133.386C344.925 133.58 345.937 133.481 346.857 133.1C347.776 132.72 348.562 132.077 349.115 131.251C349.668 130.425 349.963 129.454 349.963 128.461C349.956 127.131 349.424 125.858 348.481 124.918C347.539 123.977 346.263 123.446 344.931 123.439Z" fill="#606060"/>
</g>
<g opacity="0.22">
<path opacity="0.22" d="M23.1107 199.975C20.1778 201.45 17.9248 203.993 16.8175 207.079C15.7102 210.164 15.8332 213.556 17.1612 216.554L39.9862 205.115C38.3711 202.261 35.7187 200.136 32.5776 199.179C29.4365 198.223 26.0471 198.508 23.1107 199.975Z" fill="#B5B5B5"/>
<path opacity="0.22" d="M16.8648 187.509C15.7332 188.077 14.7956 188.966 14.1705 190.065C13.5454 191.164 13.261 192.423 13.3532 193.684C13.4453 194.944 13.91 196.149 14.6883 197.146C15.4666 198.143 16.5237 198.887 17.7258 199.284C18.928 199.681 20.2212 199.714 21.4419 199.378C22.6626 199.042 23.756 198.352 24.5837 197.395C25.4115 196.439 25.9365 195.259 26.0923 194.005C26.2482 192.751 26.0278 191.479 25.4592 190.35C24.6956 188.837 23.3619 187.688 21.7506 187.156C20.1394 186.623 18.3822 186.75 16.8648 187.509Z" fill="#B5B5B5"/>
</g>
<g opacity="0.2">
<path d="M383.779 128H350C350 128 350.489 155.684 350.489 155.352L357.148 148.901H383.755L383.779 128Z" stroke="black" stroke-width="1.72" stroke-miterlimit="10"/>
<path d="M359.073 139.707C359.925 139.707 360.616 139.036 360.616 138.209C360.616 137.382 359.925 136.711 359.073 136.711C358.22 136.711 357.529 137.382 357.529 138.209C357.529 139.036 358.22 139.707 359.073 139.707Z" fill="#606060"/>
<path d="M367.471 139.707C368.324 139.707 369.015 139.036 369.015 138.209C369.015 137.382 368.324 136.711 367.471 136.711C366.618 136.711 365.927 137.382 365.927 138.209C365.927 139.036 366.618 139.707 367.471 139.707Z" fill="#606060"/>
<path d="M375.864 139.707C376.717 139.707 377.408 139.036 377.408 138.209C377.408 137.382 376.717 136.711 375.864 136.711C375.012 136.711 374.321 137.382 374.321 138.209C374.321 139.036 375.012 139.707 375.864 139.707Z" fill="#606060"/>
</g>
</g>
<defs>
<clipPath id="clip0">
<rect x="0.64917" y="0.854858" width="435.968" height="317.145" fill="white"/>
</clipPath>
</defs>
</svg>
