<svg width="257" height="274" viewBox="0 0 257 274" fill="none" xmlns="http://www.w3.org/2000/svg">
<g clip-path="url(#clip0)">
<path d="M210.033 83.4556H75.3333V238.03H210.033V83.4556Z" fill="#FFEEEE"/>
<path d="M165.316 183.032C165.755 183.306 166.194 183.526 166.633 183.8" stroke="#9B9B9B" stroke-width="0.6913" stroke-miterlimit="10"/>
<path d="M169.377 184.951C191.488 192.683 235.108 170.53 241.198 145.198C256.561 81.0431 181.667 16.1758 119.227 70.5152C69.7369 113.559 67.6519 99.2476 68.6395 92.1741" stroke="#9B9B9B" stroke-width="0.6913" stroke-miterlimit="10" stroke-dasharray="5.46 5.46"/>
<path d="M68.8589 90.6389C69.0783 89.7616 69.2429 89.1584 69.2429 89.1584" stroke="#9B9B9B" stroke-width="0.6913" stroke-miterlimit="10"/>
<path d="M138.541 3.78345H3.84082V158.357H138.541V3.78345Z" fill="#A0A0A0"/>
<path d="M134.7 0H0V154.574H134.7V0Z" fill="#9FE2E2"/>
<path d="M123.727 9.04749H9.43726V118.768H123.727V9.04749Z" fill="white" stroke="#E2E2E2" stroke-width="0.4123" stroke-miterlimit="10"/>
<path d="M253.269 208.475C252.282 213.903 250.8 219.277 247.618 223.828C246.685 225.144 245.533 225.473 244.49 224.76C243.338 224.047 243.119 222.786 244.051 221.415C247.343 216.535 248.825 210.833 249.428 204.965C249.867 200.579 247.563 196.795 243.722 195.534C238.455 193.889 232.968 198.002 233.023 203.54C233.023 206.007 233.188 208.475 233.407 210.942C233.517 212.478 232.804 213.519 231.542 213.684C230.28 213.848 229.237 212.916 229.127 211.436C228.853 208.53 228.579 205.569 228.743 202.662C229.127 196.411 233.901 191.86 240.156 190.928C242.405 190.599 245.313 191.477 245.862 191.696C250.965 193.834 253.818 198.221 253.818 204.033C253.598 205.459 253.434 206.994 253.269 208.475Z" fill="#EBA2A1"/>
<path d="M240.21 224.76C239.826 227.666 239.113 229.969 236.425 232.107C226.439 239.949 216.562 247.954 206.631 255.905C203.669 258.263 201.035 257.989 198.676 254.973C192.969 247.899 187.318 240.826 181.612 233.752C179.362 230.956 179.637 228.269 182.49 225.966C192.695 217.741 203.01 209.571 213.161 201.291C214.971 199.811 216.782 199.592 219.031 199.482C221.83 199.372 224.518 199.482 226.164 200.414C226.878 200.798 227.152 200.908 226.987 201.62C226.713 203.32 226.768 205.02 226.932 206.72C226.987 207.378 226.823 207.926 226.493 208.529C224.902 211.216 225.561 214.342 228.03 216.096C230.224 217.686 233.407 217.357 235.327 215.438C237.357 213.3 237.467 210.174 235.547 207.817C234.943 207.104 234.614 203.101 234.998 202.388C235.217 202.059 235.437 202.224 235.711 202.278C236.754 202.553 237.851 202.772 238.894 203.046C240.704 203.54 240.814 203.869 240.814 205.733C240.869 211.874 240.924 217.961 240.21 224.76Z" fill="#EBA2A1"/>
<path d="M240.759 227.008C240.375 229.859 239.278 232.053 236.534 234.136C226.439 241.978 216.453 249.983 206.467 257.989C203.504 260.347 200.816 260.072 198.401 257.057C192.64 249.983 186.879 242.855 181.118 235.781C178.814 232.985 178.759 230.682 181.612 228.434C191.927 220.209 202.352 212.039 212.612 203.704C214.478 202.224 215.52 201.456 217.166 201.017C219.69 200.305 223.915 200.634 225.012 201.127C225.78 201.456 226.439 201.621 226.274 202.333C226 204.033 226 205.13 226.11 206.83C226.165 207.488 226 208.036 225.671 208.639C224.08 211.381 225.341 215.274 227.811 217.083C230.005 218.674 233.297 218.345 235.163 216.425C237.248 214.287 238.894 211.436 236.919 209.023C236.315 208.31 235.931 204.252 236.37 203.594C236.589 203.266 236.809 203.43 237.083 203.485C238.181 203.759 239.827 203.978 240.869 204.253C242.021 204.527 241.802 205.239 241.802 207.104C241.912 213.245 241.473 220.209 240.759 227.008Z" stroke="#686868" stroke-width="0.6918" stroke-miterlimit="10"/>
<path opacity="0.3" d="M221.665 236.001L203.175 251.299C202.736 251.683 202.681 252.341 203.065 252.78C203.449 253.218 204.108 253.273 204.547 252.889L223.037 237.591C223.476 237.207 223.531 236.549 223.147 236.11C222.763 235.672 222.104 235.617 221.665 236.001Z" fill="#F9EDED"/>
<path d="M9.43726 118.22L45.6499 63.332L68.4748 94.6416L88.6661 83.6202L123.727 118.22H9.43726Z" fill="#E6E6E6"/>
<path d="M82.3014 60.3711C88.8165 60.3711 94.098 55.093 94.098 48.582C94.098 42.0711 88.8165 36.793 82.3014 36.793C75.7864 36.793 70.5049 42.0711 70.5049 48.582C70.5049 55.093 75.7864 60.3711 82.3014 60.3711Z" fill="#E6E6E6"/>
<path opacity="0.3" d="M229.566 229.421L224.738 233.424C224.409 233.698 224.409 234.137 224.628 234.466L225.012 234.959C225.286 235.288 225.725 235.288 226.055 235.069L230.883 231.066C231.212 230.792 231.212 230.353 230.993 230.024L230.609 229.531C230.334 229.202 229.895 229.202 229.566 229.421Z" fill="#F9EDED"/>
<path d="M91.1352 158.303C88.2272 169.379 82.2466 182.594 60.7385 180.894C27.6533 178.262 26.6109 116.301 51.7402 101.002C73.797 87.5682 71.1085 78.4111 71.1085 78.4111" stroke="#9B9B9B" stroke-width="0.6913" stroke-miterlimit="10" stroke-dasharray="5.5 5.5"/>
<path d="M68.4749 76.5467C69.8465 74.5178 71.2182 72.489 72.5899 70.4602C73.0289 72.7632 73.4129 75.0113 73.797 77.2595C73.7421 77.2047 73.6873 77.1498 73.6324 77.095C73.0289 76.4918 72.3705 75.8887 71.7669 75.2855C71.712 75.2307 71.712 75.2307 71.6572 75.2855C70.6147 75.6693 69.6271 76.108 68.5846 76.4918C68.5846 76.4918 68.5297 76.4918 68.4749 76.5467Z" fill="#575756"/>
<path d="M56.7332 249.928C57.8847 249.928 58.8181 248.995 58.8181 247.845C58.8181 246.694 57.8847 245.761 56.7332 245.761C55.5817 245.761 54.6482 246.694 54.6482 247.845C54.6482 248.995 55.5817 249.928 56.7332 249.928Z" fill="#2AC3D8"/>
<path d="M245.423 30.1581C246.756 30.1581 247.837 29.0779 247.837 27.7454C247.837 26.4129 246.756 25.3328 245.423 25.3328C244.09 25.3328 243.009 26.4129 243.009 27.7454C243.009 29.0779 244.09 30.1581 245.423 30.1581Z" fill="#2AC3D8"/>
<path d="M45.6499 241.045C48.7711 241.045 51.3013 238.517 51.3013 235.398C51.3013 232.278 48.7711 229.75 45.6499 229.75C42.5287 229.75 39.9985 232.278 39.9985 235.398C39.9985 238.517 42.5287 241.045 45.6499 241.045Z" fill="#7FE291"/>
<path d="M255.738 44.3051C256.465 44.3051 257.055 43.7159 257.055 42.9891C257.055 42.2623 256.465 41.6731 255.738 41.6731C255.011 41.6731 254.421 42.2623 254.421 42.9891C254.421 43.7159 255.011 44.3051 255.738 44.3051Z" fill="#2AC3D8"/>
<path d="M242.954 48.6369C246.075 48.6369 248.605 46.1083 248.605 42.9891C248.605 39.8699 246.075 37.3413 242.954 37.3413C239.833 37.3413 237.302 39.8699 237.302 42.9891C237.302 46.1083 239.833 48.6369 242.954 48.6369Z" fill="#7FE291" stroke="#A2EAAF" stroke-width="1.3744" stroke-miterlimit="10"/>
<path d="M252.226 209.133C251.294 214.561 249.318 219.606 246.356 224.157C245.478 225.473 244.435 225.802 243.393 225.144C242.35 224.431 242.131 223.17 243.009 221.799C246.136 216.864 248.056 211.545 248.66 205.678C249.099 201.292 246.959 197.508 243.338 196.302C238.4 194.657 233.681 198.056 233.681 203.595C233.681 206.062 233.846 208.53 234.01 210.997C234.12 212.532 232.968 214.342 231.761 214.452C230.554 214.616 229.786 212.642 229.676 211.162C229.456 208.255 229.182 205.349 229.401 202.388C229.786 196.137 234.12 192.628 240.046 191.641C242.186 191.312 244.874 192.189 245.368 192.354C250.141 194.438 252.775 198.824 252.775 204.636C252.556 206.172 252.391 207.652 252.226 209.133Z" stroke="#686868" stroke-width="0.6702" stroke-miterlimit="10"/>
<path d="M146.113 245.432C145.399 249.161 145.07 258.592 145.07 261.498H154.727L156.098 243.623L146.113 245.432Z" fill="#FFD9CC"/>
<path d="M154.782 261.498H145.125C145.125 262.759 145.07 264.075 144.96 265.336C141.997 265.94 138.815 267.42 135.578 267.091C132.78 266.817 134.261 269.942 135.578 270.326C138.431 271.203 146.058 272.465 146.058 272.465L154.013 272.958L154.782 261.498Z" fill="#1A1A1A"/>
<path d="M119.392 248.009C118.679 251.738 120.27 259.853 120.27 262.759H129.927V251.902L119.392 248.009Z" fill="#FFD9CC"/>
<path d="M171.242 173.107C171.132 173.436 167.84 174.259 169.541 174.917C169.541 174.917 174.369 176.562 174.863 177.11C175.412 177.659 176.125 177.33 176.015 176.946C175.083 173.765 172.559 172.011 170.913 172.559L171.242 173.107Z" fill="#F2C6BB"/>
<path d="M147.1 152.381C156.044 153.587 156.867 203.43 157.086 217.029C157.306 230.901 155.824 247.735 155.824 247.735L142.327 252.78C142.327 252.78 133.877 184.293 133.274 177.713C132.67 171.188 140.132 151.448 147.1 152.381Z" fill="#1A1A1A"/>
<path d="M121.093 157.919C117.911 175.904 116.484 202.333 116.868 221.799C117.197 241.265 118.185 254.26 118.185 254.26L132.012 251.519C133.273 231.176 143.753 181.442 143.753 181.442C143.753 181.442 147.155 161.483 137.498 156.877L121.093 157.919Z" fill="#707070"/>
<path d="M124.769 158.906C117.307 174.533 121.422 253.657 121.422 253.657" stroke="#848484" stroke-width="0.8421" stroke-miterlimit="10"/>
<path d="M124.111 96.1221C121.367 97.6026 117.252 108.295 121.038 112.298C124.824 116.301 131.408 114.162 132.56 113.449C133.712 112.737 134.755 90.3647 124.111 96.1221Z" fill="#FFD9CC"/>
<path d="M135.523 157.48C136.017 158.138 136.565 158.741 137.004 159.454C137.224 159.783 137.443 160.167 137.663 160.496L138.266 161.593C138.596 162.36 138.98 163.073 139.199 163.896C139.528 164.663 139.693 165.486 139.912 166.253C140.735 169.434 141.065 172.779 141.119 176.069C141.119 176.891 141.174 177.714 141.119 178.536L141.01 181.004C141.01 181.826 140.9 182.649 140.79 183.471L140.571 185.938C140.296 187.583 140.077 189.174 139.803 190.819C139.473 192.409 139.144 194.054 138.815 195.644H138.76C138.98 193.999 139.254 192.409 139.528 190.764L140.132 185.884C140.461 182.594 140.79 179.359 140.735 176.069C140.735 172.779 140.461 169.489 139.693 166.308C139.473 165.541 139.309 164.718 138.98 163.95C138.76 163.183 138.376 162.415 138.047 161.648L137.498 160.551C137.279 160.167 137.059 159.838 136.84 159.509C136.511 158.796 136.017 158.138 135.523 157.48Z" fill="#848484"/>
<path d="M102.493 121.455C102.493 121.455 89.8183 101.331 87.2395 93.5998L90.5316 91.2419C95.9086 97.3284 103.206 109.227 107.211 113.12L102.493 121.455Z" fill="#FFD9CC"/>
<path d="M87.6786 94.2029C86.252 91.7902 82.4113 91.187 82.3564 89.2679C82.3016 87.4036 82.1918 84.9361 83.1246 84.1136C82.7954 81.4816 83.2343 76.4918 83.1246 75.0113C83.0697 73.7502 83.8379 73.8598 84.0573 74.5178C84.2768 75.1758 85.0998 81.372 85.7582 82.2493C86.4166 83.1266 88.0078 84.1136 88.6662 84.0588C89.2698 84.0588 89.4344 80.056 89.7636 79.6721C90.0928 79.2883 90.9158 78.9045 90.9158 80.056C90.9158 81.2075 90.422 86.0876 90.9158 87.2391C91.4096 88.3906 90.9158 91.7902 90.9158 91.7902L87.6786 94.2029Z" fill="#FFD9CC"/>
<path d="M130.75 157.261C133.328 165.212 129.433 248.448 128.335 252.231" stroke="#848484" stroke-width="0.8421" stroke-miterlimit="10"/>
<path d="M136.017 208.584C136.017 206.446 136.181 204.252 136.291 202.114L136.675 195.644C136.95 191.367 137.169 187.035 137.334 182.758C137.388 180.62 137.498 178.426 137.498 176.288C137.553 174.149 137.553 171.956 137.553 169.817C137.553 167.679 137.498 165.54 137.334 163.347C137.224 162.25 137.114 161.209 136.95 160.167C136.84 159.619 136.73 159.125 136.511 158.632C136.291 158.138 136.072 157.645 135.523 157.425V157.37C136.072 157.535 136.401 158.083 136.62 158.522C136.84 159.015 137.004 159.564 137.114 160.057C137.388 161.099 137.498 162.196 137.608 163.237C137.827 165.376 137.937 167.569 137.992 169.708C138.047 174.04 137.882 178.317 137.663 182.648C137.443 186.98 137.169 191.257 136.895 195.534L136.456 202.004C136.291 204.252 136.126 206.446 136.017 208.584Z" fill="#848484"/>
<path d="M107.102 113.23C112.259 118.384 119.557 119.59 121.422 120.797C124.934 114.162 140.516 110.433 140.516 110.433C140.516 110.433 144.741 137.137 145.674 139.275C146.606 141.359 147.1 152.381 147.1 152.381L137.005 157.315C137.005 157.315 120.983 159.344 118.24 159.564C118.898 158.302 116.539 138.946 116.429 132.476C109.406 126.554 105.675 125.403 102.438 121.619L107.102 113.23Z" fill="#4C4C4C"/>
<path d="M165.865 169.05C167.621 170.64 169.87 171.572 169.87 171.572L165.371 173.436C165.371 173.436 160.598 171.627 159.555 171.462C158.348 171.243 165.865 169.05 165.865 169.05Z" fill="#FFD9CC"/>
<path d="M127.183 159.893C124.659 169.653 124.165 233.314 124.769 252.889" stroke="#848484" stroke-width="0.8421" stroke-miterlimit="10"/>
<path d="M124.385 90.1452C127.622 88.6647 135.413 88.2809 140.022 94.3674C144.686 100.454 144.357 108.295 150.447 109.446C156.537 110.598 165.81 119.59 166.139 129.735C166.359 137.96 174.315 136.808 176.674 152.271C179.307 169.379 150.392 177.22 137.498 170.804C122.465 163.292 121.422 143.223 125.153 137.411C128.884 131.599 127.183 124.361 123.727 122.935C120.215 121.51 121.093 114.546 124.001 111.366C125.592 109.611 126.086 105.169 125.263 102.208C124.934 100.892 123.562 98.8637 122.465 97.6573C120.599 95.464 121.203 91.5709 124.385 90.1452Z" fill="#EBA2A1"/>
<path d="M133.603 161.428C136.401 164.608 149.295 174.369 160.598 167.898" stroke="white" stroke-width="0.7592" stroke-miterlimit="10" stroke-linecap="round"/>
<path d="M142.711 103.689C144.302 108.679 146.167 110.05 152.313 111.969C160.598 114.601 164.822 127.103 164.164 131.051" stroke="white" stroke-width="0.7592" stroke-miterlimit="10" stroke-linecap="round"/>
<path d="M169.87 171.572C172.01 171.901 177.881 172.614 178.814 173.272C180.789 174.643 182.435 178.371 181.228 178.262C180.076 178.152 174.534 175.301 172.065 175.246C169.102 175.191 165.316 173.382 165.316 173.382L169.87 171.572Z" fill="#FFD9CC"/>
<path d="M129.926 262.759H120.27C120.27 264.02 120.215 265.336 120.105 266.598C117.142 267.201 110.613 269.504 107.376 269.175C104.578 268.901 107.321 272.026 108.638 272.465C111.491 273.342 122.849 274 122.849 274H130.475L129.926 262.759Z" fill="#1A1A1A"/>
</g>
<defs>
<clipPath id="clip0">
<rect width="257" height="274" fill="white"/>
</clipPath>
</defs>
</svg>
