<svg width="464" height="313" viewBox="0 0 464 313" fill="none" xmlns="http://www.w3.org/2000/svg">
<g clip-path="url(#clip0)">
<path opacity="0.66" d="M261.23 128.717C282.403 128.717 299.568 111.57 299.568 90.4178C299.568 69.2658 282.403 52.1187 261.23 52.1187C240.057 52.1187 222.892 69.2658 222.892 90.4178C222.892 111.57 240.057 128.717 261.23 128.717Z" fill="#F9E4E4"/>
<path d="M395.685 269.411C393.797 264.157 391.143 256.803 388.501 249.45C388.281 248.837 388.121 248.194 387.956 247.558C387.465 245.666 387.404 245.525 389.182 244.686C394.538 242.176 399.951 239.788 405.375 237.387C405.896 237.161 406.962 237.265 407.25 237.626C407.538 237.987 407.428 238.955 407.404 239.641C407.342 239.924 407.213 240.188 407.03 240.412C403.53 245.855 407.961 252.603 414.317 252.425C418.148 252.321 421.501 250.974 424.05 248.072C427.182 244.508 426.447 239.537 422.469 236.83C421.588 236.3 420.673 235.83 419.729 235.422C419.265 235.257 418.824 235.032 418.418 234.755C418.019 234.399 417.437 233.787 417.529 233.456C417.647 233.188 417.821 232.949 418.04 232.755C418.259 232.56 418.517 232.415 418.798 232.33C420.526 231.794 422.281 231.348 424.056 230.995C426.962 230.432 429.879 229.954 432.797 229.47C434.439 229.201 435.665 229.734 436.37 231.35C438.748 236.775 441.147 242.186 443.566 247.582C443.891 248.383 444.302 249.147 444.791 249.86C445.729 251.115 447.035 251.207 448.021 250.013C448.689 249.137 449.235 248.175 449.646 247.154C450.522 245.206 451.705 243.621 453.752 242.776C454.679 242.364 455.7 242.207 456.708 242.32C457.716 242.433 458.676 242.812 459.489 243.419C462.676 245.604 464.644 250.913 463.816 254.697C463.026 258.328 458.514 261.604 454.285 259.13C453.793 258.832 453.276 258.576 452.741 258.365C451.227 257.752 449.97 258.328 449.842 259.944C449.729 261.363 449.905 262.789 450.357 264.139C451.625 267.812 453.127 271.358 454.488 274.976C455.039 276.434 455.499 277.934 455.946 279.428C456.67 281.834 456.1 283.328 453.764 284.326C451.166 285.453 448.475 286.39 445.797 287.308C435.393 290.855 424.974 294.38 414.538 297.882C413.177 298.342 411.774 298.691 410.419 299.174C409.279 299.584 408.58 299.266 408.09 298.176C406.686 295.115 405.136 292.108 403.8 288.992C401.342 283.175 398.964 277.303 395.685 269.411Z" fill="#FFE3E3"/>
<path d="M347.522 190.424H305.145C305.145 190.424 305.795 226.189 305.795 225.76L314.143 217.427H347.522V190.424Z" stroke="black" stroke-width="1.72" stroke-miterlimit="10"/>
<path d="M316.527 205.536C317.597 205.536 318.464 204.669 318.464 203.601C318.464 202.532 317.597 201.666 316.527 201.666C315.457 201.666 314.59 202.532 314.59 203.601C314.59 204.669 315.457 205.536 316.527 205.536Z" fill="#606060"/>
<path d="M327.063 205.536C328.133 205.536 329 204.669 329 203.601C329 202.532 328.133 201.666 327.063 201.666C325.993 201.666 325.126 202.532 325.126 203.601C325.126 204.669 325.993 205.536 327.063 205.536Z" fill="#606060"/>
<path d="M337.599 205.536C338.669 205.536 339.536 204.669 339.536 203.601C339.536 202.532 338.669 201.666 337.599 201.666C336.529 201.666 335.662 202.532 335.662 203.601C335.662 204.669 336.529 205.536 337.599 205.536Z" fill="#606060"/>
<g opacity="0.25">
<path d="M177.408 23.4816H142.98C142.98 23.4816 143.508 52.5351 143.508 52.186L150.293 45.4508H177.408V23.4816Z" fill="#B5B5B5"/>
<path d="M152.229 35.7643C153.099 35.7643 153.805 35.0597 153.805 34.1907C153.805 33.3216 153.099 32.6171 152.229 32.6171C151.359 32.6171 150.654 33.3216 150.654 34.1907C150.654 35.0597 151.359 35.7643 152.229 35.7643Z" fill="white"/>
<path d="M160.786 35.7643C161.656 35.7643 162.361 35.0597 162.361 34.1907C162.361 33.3216 161.656 32.6171 160.786 32.6171C159.916 32.6171 159.21 33.3216 159.21 34.1907C159.21 35.0597 159.916 35.7643 160.786 35.7643Z" fill="white"/>
<path d="M169.342 35.7643C170.212 35.7643 170.917 35.0597 170.917 34.1907C170.917 33.3216 170.212 32.6171 169.342 32.6171C168.472 32.6171 167.767 33.3216 167.767 34.1907C167.767 35.0597 168.472 35.7643 169.342 35.7643Z" fill="white"/>
</g>
<g opacity="0.25">
<path d="M246.33 0H300.836C300.836 0 300.009 46.0019 300.009 45.4508L289.295 34.7295H246.33V0Z" fill="#B5B5B5"/>
<path d="M286.2 19.4527C287.578 19.4527 288.695 18.337 288.695 16.9607C288.695 15.5844 287.578 14.4686 286.2 14.4686C284.822 14.4686 283.705 15.5844 283.705 16.9607C283.705 18.337 284.822 19.4527 286.2 19.4527Z" fill="white"/>
<path d="M272.648 19.4527C274.026 19.4527 275.143 18.337 275.143 16.9607C275.143 15.5844 274.026 14.4686 272.648 14.4686C271.271 14.4686 270.154 15.5844 270.154 16.9607C270.154 18.337 271.271 19.4527 272.648 19.4527Z" fill="white"/>
<path d="M259.103 19.4527C260.481 19.4527 261.598 18.337 261.598 16.9607C261.598 15.5844 260.481 14.4686 259.103 14.4686C257.725 14.4686 256.609 15.5844 256.609 16.9607C256.609 18.337 257.725 19.4527 259.103 19.4527Z" fill="white"/>
</g>
<g opacity="0.14">
<path opacity="0.14" d="M383.806 163.281C381.226 162.088 378.285 161.931 375.592 162.843C372.898 163.754 370.659 165.665 369.336 168.18L389.408 177.468C390.468 174.836 390.478 171.899 389.436 169.26C388.394 166.621 386.38 164.481 383.806 163.281Z" fill="#606060"/>
<path opacity="0.14" d="M388.894 152.309C387.903 151.857 386.801 151.707 385.726 151.88C384.651 152.052 383.651 152.539 382.852 153.278C382.053 154.017 381.491 154.976 381.237 156.034C380.982 157.091 381.047 158.201 381.423 159.222C381.798 160.243 382.468 161.13 383.347 161.771C384.227 162.413 385.277 162.78 386.365 162.826C387.452 162.873 388.53 162.597 389.461 162.033C390.392 161.468 391.135 160.642 391.597 159.656C392.21 158.324 392.27 156.802 391.764 155.425C391.257 154.048 390.225 152.928 388.894 152.309Z" fill="#606060"/>
</g>
<g opacity="0.22">
<path opacity="0.22" d="M10.7444 182.348C7.52908 183.967 5.05942 186.759 3.84573 190.146C2.63204 193.532 2.76709 197.255 4.22297 200.546L29.2421 187.975C27.4676 184.848 24.5592 182.521 21.1172 181.474C17.6752 180.427 13.9622 180.74 10.7444 182.348Z" fill="#B5B5B5"/>
<path opacity="0.22" d="M3.8675 168.669C2.62697 169.291 1.59889 170.267 0.913256 171.472C0.22762 172.678 -0.0847799 174.059 0.0155584 175.442C0.115897 176.825 0.624467 178.147 1.47696 179.242C2.32946 180.336 3.48759 181.153 4.80492 181.59C6.12224 182.026 7.5396 182.063 8.87777 181.695C10.2159 181.327 11.4148 180.571 12.3228 179.522C13.2308 178.473 13.8072 177.179 13.9789 175.803C14.1507 174.427 13.9103 173.031 13.288 171.792C12.4521 170.131 10.9907 168.869 9.2244 168.284C7.45814 167.698 5.5315 167.837 3.8675 168.669Z" fill="#B5B5B5"/>
</g>
<path d="M364.009 228.258C363.317 227.646 362.612 227.101 361.925 226.519C361.925 220.396 363.102 214.163 363.642 208.15C364.402 199.621 364.328 191.129 362.502 182.703C361.132 176.506 358.308 170.723 354.264 165.828C352.689 164.843 351.077 163.912 349.416 163.067C347.225 162.318 344.99 161.704 342.723 161.23C338.857 160.985 334.977 161.047 331.12 161.414C326.176 162.2 321.302 163.379 316.545 164.941C314.105 166.286 311.759 167.793 309.521 169.453C300.732 176.562 292.36 184.246 282.86 190.43C277.778 193.704 272.285 196.294 266.525 198.133C258.558 200.705 250.547 200.35 242.456 198.905C239.557 198.384 237.087 197.251 234.36 196.094C231.749 194.986 229.365 194.019 227.06 192.42C219.999 187.455 215.611 182.746 210.609 175.68C207.183 170.837 205.02 165.118 202.868 159.65C201.515 156.184 200.489 152.598 199.804 148.941C199.454 147.141 199.191 145.372 198.909 143.62C194.907 137.859 190.831 132.164 185.756 127.217C176.452 118.149 164.665 111.659 151.433 111.567C136.508 111.463 123.177 119.637 112.537 129.446C104.281 137.05 98.0417 146.872 92.9238 156.809C88.3454 165.737 84.294 174.982 78.5142 183.199C76.4406 185.647 74.1648 187.916 71.7109 189.984C67.7147 193.002 63.694 195.984 59.9613 199.321C55.5764 203.332 51.6408 207.808 48.2241 212.669C41.8681 221.48 38.2642 233.224 39.2571 244.111C40.327 254.906 43.8941 265.305 49.6767 274.487C52.2196 283.535 57.0781 291.765 63.7737 298.366C67.1697 301.762 71.1046 304.574 75.419 306.687C82.6943 310.061 89.3505 311.2 97.3184 312.143C109.693 313.612 122.19 312.914 134.584 312.143C147.718 311.316 160.724 310.833 173.89 311.065C188.403 311.322 202.917 311.788 217.407 312.192C250.669 313.116 284.006 313.716 317.201 310.967C320.623 310.772 323.97 309.885 327.038 308.359C328.326 308.114 329.594 307.832 330.857 307.52C347.571 303.314 366.767 292.586 374.374 276.293C380.196 263.851 379.89 249.499 372.13 237.816C369.884 234.267 367.15 231.049 364.009 228.258ZM335.65 260.422C335.638 259.456 335.576 258.492 335.466 257.532C336.018 258.016 336.551 258.518 337.072 259.026C336.612 259.504 336.134 259.969 335.65 260.422Z" fill="#EFFAFB"/>
<path d="M375.452 243.155L384.015 249.725L377.463 265.614L368.496 257.134" fill="#FFC7B3"/>
<path d="M342.858 63.8993C343.526 60.3848 340.51 59.2765 337.777 59.7112C336.091 57.0784 334.099 54.5863 331.096 53.4291C326.946 51.8249 323.477 55.0517 319.42 53.8577C319.182 53.7823 318.931 53.7592 318.684 53.7902C318.437 53.8211 318.199 53.9052 317.988 54.0368C317.776 54.1683 317.596 54.3442 317.459 54.5522C317.322 54.7601 317.232 54.9953 317.195 55.2415C317.195 55.2782 317.158 55.3088 317.146 55.3456C314.265 63.3789 315.761 75.086 324.985 78.0005C325.188 80.4213 325.012 82.8589 324.464 85.2256C324.071 86.5554 324 87.9592 324.256 89.3219C324.233 89.5997 324.277 89.879 324.384 90.1363C324.469 90.3476 324.569 90.5522 324.685 90.7486C324.663 91.0638 324.743 91.3776 324.913 91.6442C325.083 91.9108 325.334 92.1161 325.629 92.2303C328.693 93.6631 331.647 94.6366 335.08 93.9386C336.491 93.7071 337.826 93.1401 338.972 92.2854C340.541 91.0057 340.761 89.3586 341.669 87.6565C341.868 87.2945 341.939 86.876 341.871 86.4686C341.871 86.389 341.871 86.3155 341.871 86.2298C341.043 81.1845 339.474 76.1637 339.983 70.9714C340.259 67.8976 342.367 66.4771 342.858 63.8993Z" fill="#FFC7B3"/>
<path d="M367.969 265.786L378.168 241.698L346.584 219.655L347.265 145.359L318.39 186.751C318.39 186.751 320.088 232.55 322.123 234.589C324.158 236.628 367.969 265.786 367.969 265.786Z" fill="#545454"/>
<path d="M311.752 150.441L355.563 144.845L343.305 111.254C343.305 111.254 355.018 87.3381 348.398 85.8135C347.479 85.4706 341.779 84.2827 341.779 84.2827C341.779 84.2827 331.077 99.5534 324.458 85.3053C308.663 83.2663 303.349 104.789 303.858 107.348L317.612 113.961L315.32 128.582L311.752 150.441Z" fill="#DB8989"/>
<path d="M303.889 107.336L318.629 114.071C310.79 133.242 306.089 135.593 293.543 132.905C280.996 130.217 259.048 122.814 253.875 121.272C252.153 120.763 254.972 119.588 258.423 120.935C261.873 122.282 255.597 118.412 252.465 117.065C249.333 115.718 252.153 114.879 254.188 115.889C256.222 116.9 259.244 118.026 260.182 118.339C261.12 118.651 261.555 117.377 258.576 116.202C255.597 115.026 251.993 112.332 253.09 111.658C254.188 110.985 262.186 115.436 262.186 115.436C262.186 115.436 263.755 114.016 259.361 112.332C254.966 110.648 255.444 108.126 257.479 108.97C259.514 109.815 267.518 113.342 267.518 113.342C267.518 113.342 265.79 107.96 266.415 106.785C267.04 105.609 269.241 111.493 270.497 112.332C271.754 113.171 288.682 120.622 299.028 118.265L303.889 107.336Z" fill="#E2A99A"/>
<path d="M237.547 95.7448C238 94.3243 238.037 93.4365 238.491 92.9099C241.874 88.9667 245.331 85.0847 248.794 81.2089C250.706 79.072 252.9 78.8944 255.358 80.321C260.384 83.2417 265.447 86.095 270.491 88.9912C271.551 89.6035 272.52 90.4607 273.654 90.8281C274.788 91.1954 276.381 91.5689 277 91.0362C277.803 90.3505 278.067 88.7708 278.122 87.5523C278.177 86.3338 277.595 85.1766 277.441 83.9703C276.681 77.9882 280.972 74.0144 286.819 75.3982C290.852 76.3534 294.174 78.5025 296.068 82.3171C298.458 87.0992 295.933 92.2486 290.736 93.3997C290.037 93.5589 289.203 93.4854 288.658 93.8528C287.634 94.5447 286.126 95.408 286.022 96.3387C285.894 97.4531 286.739 99.0757 287.677 99.8227C289.412 101.2 291.575 102.027 293.475 103.221C296.577 105.174 299.604 107.225 302.669 109.252C304.508 110.477 304.949 112.185 303.895 114.034C301.799 117.751 299.549 121.382 297.324 125.055C296.901 125.747 296.099 126.28 295.853 126.99C295.32 128.417 295.026 129.929 294.628 131.399C296.209 131.748 297.772 132.287 299.365 132.385C300.652 132.464 301.97 131.858 303.282 131.834C308.001 131.76 311.336 135.213 310.839 139.824C310.664 141.921 309.991 143.947 308.875 145.732C307.759 147.517 306.232 149.009 304.422 150.086C299.384 153.148 293.628 150.558 292.531 144.753C292.133 142.641 291.698 140.62 289.222 140.204C286.592 139.763 285.422 141.636 284.404 143.626C281.995 148.347 279.501 153.031 277.147 157.77C276.075 159.92 274.598 160.177 272.716 159.038C266.961 155.548 261.199 152.058 255.511 148.464C255.17 148.201 254.891 147.866 254.695 147.483C254.498 147.1 254.39 146.677 254.378 146.247C254.408 145.745 255.432 145.108 256.13 144.857C257.356 144.398 258.729 144.288 259.973 143.853C266.237 141.673 268.254 135.018 264.227 129.77C263.025 128.113 261.498 126.719 259.738 125.672C257.978 124.626 256.022 123.949 253.991 123.684C246.998 122.778 241.954 128.49 243.627 135.318C243.841 135.999 243.992 136.697 244.081 137.405C244.252 140.014 242.518 141.496 240.262 140.296C233.428 136.622 226.686 132.826 220.036 128.87C219.325 128.441 218.81 126.384 219.209 125.6C222.383 119.447 225.773 113.397 229.211 107.385C229.579 106.736 230.744 106.05 231.363 106.16C231.982 106.27 232.472 107.385 232.858 108.156C233.046 108.737 233.17 109.336 233.226 109.944C234.599 115.914 240.838 118.969 246.33 116.147C251.344 113.569 254.071 109.221 254.353 103.625C254.641 97.7776 249.615 93.8834 243.4 94.8509C241.653 95.1325 239.907 95.3835 237.547 95.7448Z" fill="black"/>
<path d="M336.036 108.125L351.972 114.91C343.483 134.246 338.39 136.622 324.801 133.891C311.213 131.16 287.456 123.733 281.873 122.202C280.003 121.694 283.056 120.506 286.776 121.865C290.496 123.225 283.712 119.318 280.322 117.965C276.933 116.612 279.985 115.755 282.192 116.777C284.398 117.8 287.665 118.933 288.682 119.269C289.7 119.606 290.172 118.302 286.948 117.114C283.724 115.926 279.813 113.214 281.002 112.534C282.192 111.854 290.87 116.336 290.87 116.336C290.87 116.336 292.568 114.904 287.806 113.208C283.043 111.511 283.564 108.964 285.771 109.815C287.977 110.667 296.638 114.224 296.638 114.224C296.638 114.224 294.768 108.799 295.449 107.611C296.129 106.423 298.513 112.356 299.862 113.208C301.21 114.059 319.561 121.516 330.765 119.147L336.036 108.125Z" fill="#FFC7B3"/>
<path d="M333.149 111.763L351.996 119.398C357.598 106.166 361.19 87.8462 344.862 84.797L333.149 111.763Z" fill="#EBA2A1"/>
<g opacity="0.3">
<path opacity="0.3" d="M375.036 244.392L375.146 244.227L342.674 221.633L343.942 159.858L343.746 159.852L342.471 221.737L342.514 221.768L375.036 244.392Z" fill="#FCFCFC"/>
<path opacity="0.3" d="M371.879 249.995L372.002 249.829L337.323 223.666V160.875H337.121V223.77L337.164 223.801L371.879 249.995Z" fill="#FCFCFC"/>
<path opacity="0.3" d="M368.606 255.218L368.723 255.058L330.955 226.972L329.68 161.885L329.484 161.891L330.753 227.076L330.796 227.107L368.606 255.218Z" fill="#FCFCFC"/>
<path opacity="0.3" d="M366.583 260.453L366.694 260.287L326.143 232.905L320.26 163.41L320.057 163.422L325.947 233.016L325.99 233.046L366.583 260.453Z" fill="#FCFCFC"/>
</g>
<path d="M315.038 149.676C315.038 149.676 286.439 213.539 286.102 218.627C285.765 223.715 277.95 269.858 277.95 269.858H304.44C304.44 269.858 310.214 227.113 313.634 221.345C317.054 215.577 345.217 167.065 347.589 161.953C349.961 156.84 351.88 147.19 350.213 144.808L315.038 149.676Z" fill="#707070"/>
<path d="M339.113 57.0722C341.154 56.8885 343.091 57.1763 344.427 58.8662C344.745 59.2642 344.182 59.8336 343.857 59.4295C342.631 57.8988 340.951 57.709 339.113 57.8743C338.598 57.9233 338.604 57.1212 339.113 57.0722Z" fill="#FCFCFC"/>
<g opacity="0.3">
<path opacity="0.3" d="M301.216 266.245L309.319 217.978L346.186 150.178L346.008 150.08L309.123 217.929L301.02 266.208L301.216 266.245Z" fill="#FCFCFC"/>
<path opacity="0.3" d="M294.793 265.963L302.056 217.696L338.923 150.178L338.745 150.08L301.86 217.653L294.597 265.933L294.793 265.963Z" fill="#FCFCFC"/>
<path opacity="0.3" d="M288.645 265.4L294.793 217.42L331.378 150.178L331.206 150.08L294.597 217.372L288.449 265.376L288.645 265.4Z" fill="#FCFCFC"/>
<path opacity="0.3" d="M283.062 265.963L289.203 217.414L318.531 151.844L318.347 151.764L289.007 217.372L282.86 265.933L283.062 265.963Z" fill="#FCFCFC"/>
</g>
<path d="M298.556 269.907L296.215 280.444L279.029 281.222L282.933 269.521" fill="#FFC7B3"/>
<path d="M296.215 280.432L279.053 281.209L277.104 285.894L265.392 287.467C265.392 287.467 265.392 290.198 271.637 290.976C277.883 291.753 296.638 290.59 296.638 290.59L296.215 280.432Z" fill="black"/>
<path d="M382.801 249.205L375.189 264.616L378.351 268.59L374.061 279.612C374.061 279.612 376.451 280.928 380.153 275.84C383.855 270.752 391.878 253.797 391.878 253.797L382.801 249.205Z" fill="black"/>
<path d="M380.006 82.6049C378.045 81.5701 376.549 81.0558 375.299 79.0168C374.294 77.382 373.969 75.3431 372.578 73.9593C369.617 70.9713 365.045 72.8449 362.072 69.8446C362.058 69.7549 362.029 69.6681 361.987 69.5875C360.454 66.8934 359.688 64.3584 356.838 62.7848C355.098 61.8235 353.197 61.3521 351.61 60.0907C349.446 58.3641 348.423 56.0251 347.405 53.5269C346.774 51.9613 346.03 50.4429 345.181 48.9837C348.245 46.7488 347.338 41.2136 344.917 38.6114C341.797 35.2744 335.11 36.9275 334.724 41.5626C323.373 39.8849 312.574 49.7858 315.724 61.3827C315.785 61.5786 315.906 61.7506 316.07 61.8747C316.233 61.9987 316.432 62.0686 316.637 62.0746C322.466 62.5032 327.976 59.6254 330.201 54.5433C330.654 55.7861 331.272 56.9621 332.04 58.0395C333.376 59.8764 335.221 60.8071 337.268 61.548C337.358 61.658 337.474 61.7441 337.605 61.799C340.161 62.9012 339.009 68.4363 338.929 70.6345C338.763 75.0859 340.008 79.0046 340.241 83.3703C340.249 83.5875 340.334 83.7948 340.481 83.9551C340.628 84.1154 340.827 84.2185 341.043 84.2458C346.188 86.8557 350.434 90.9436 353.234 95.9836C354.785 98.8246 357.114 101.611 360.626 101.672C364.402 101.739 367.368 98.6103 370.892 97.7041H371.015C371.239 97.6791 371.46 97.636 371.677 97.5756C374.68 97.049 377.922 97.5756 380.748 96.2224C386.693 93.3691 385.044 85.2623 380.006 82.6049Z" fill="#4C4C4C"/>
<path d="M349.134 49.945C349.12 49.8945 349.094 49.8483 349.058 49.8107C349.021 49.7732 348.976 49.7457 348.925 49.7307C348.123 49.598 347.376 49.2365 346.774 48.6898C346.48 48.451 346.075 48.8245 346.333 49.1123C346.326 49.1736 346.344 49.235 346.382 49.2837C346.835 49.8685 347.399 50.3576 348.043 50.7226C348.164 50.812 348.304 50.871 348.452 50.8944C348.601 50.9179 348.752 50.9051 348.895 50.8573C349.232 50.6736 349.195 50.2634 349.134 49.945Z" fill="#4C4C4C"/>
<path d="M349.52 46.2713C349.461 46.2162 349.383 46.1855 349.303 46.1855C349.222 46.1855 349.144 46.2162 349.085 46.2713C348.447 46.7735 347.675 47.0779 346.866 47.1469C346.785 47.1331 346.701 47.1521 346.634 47.1997C346.567 47.2474 346.521 47.3198 346.508 47.401C346.494 47.4822 346.513 47.5655 346.561 47.6327C346.608 47.6999 346.681 47.7454 346.762 47.7592C346.73 47.7959 346.708 47.8406 346.698 47.8886C346.689 47.9365 346.693 47.9861 346.709 48.0323C346.725 48.0784 346.753 48.1194 346.791 48.151C346.828 48.1826 346.873 48.2038 346.921 48.2123C347.32 48.333 347.741 48.3655 348.154 48.3073C348.567 48.2492 348.962 48.1018 349.312 47.8755C349.851 47.4347 350.102 46.7672 349.52 46.2713Z" fill="#4C4C4C"/>
<path d="M367.35 70.0039C365.186 70.0039 363.672 69.2875 362.6 67.3772C361.852 66.0301 361.313 64.5851 360.393 63.3299C358.144 60.2684 353.853 59.9255 351.635 56.8089C351.408 56.4905 350.875 56.8089 351.101 57.1212C352.327 58.7989 353.939 59.7234 355.747 60.6296C357.843 61.6828 359.517 62.84 360.681 64.9157C361.429 66.2567 361.907 67.8058 362.967 68.963C364.107 70.2427 365.695 70.5734 367.35 70.5856C367.411 70.5655 367.464 70.5265 367.502 70.4743C367.54 70.4221 367.56 70.3592 367.56 70.2948C367.56 70.2303 367.54 70.1675 367.502 70.1152C367.464 70.063 367.411 70.0241 367.35 70.0039Z" fill="#4C4C4C"/>
<path d="M371.867 99.1063C367.123 100.074 362.734 107.317 357.935 102.468C357.878 102.41 357.799 102.378 357.718 102.378C357.636 102.378 357.558 102.41 357.5 102.468C357.442 102.525 357.41 102.604 357.41 102.685C357.41 102.767 357.442 102.845 357.5 102.903C362.649 108.095 366.982 100.729 372.032 99.7002C372.419 99.6207 372.253 99.0267 371.867 99.1063Z" fill="#4C4C4C"/>
<path d="M343.483 45.506C340.363 45.708 337.887 44.2814 335.601 42.3098C335.3 42.0526 334.865 42.4873 335.166 42.7445C337.574 44.8324 340.204 46.3326 343.483 46.1183C343.875 46.0876 343.881 45.4753 343.483 45.506Z" fill="white"/>
<path d="M342.619 74.7003C339.395 70.6897 345.616 60.2378 337.587 59.7357C337.188 59.7357 337.194 60.348 337.587 60.348C344.69 60.7889 339.119 71.3142 342.183 75.135C342.422 75.4289 342.851 74.9942 342.619 74.7003Z" fill="white"/>
<path d="M66.5931 243.155L58.0245 249.725L64.5827 265.614L73.5496 257.134" fill="#FFC7B3"/>
<path d="M99.1878 63.8993C98.5197 60.3848 101.535 59.2765 104.269 59.7112C105.954 57.0784 107.946 54.5863 110.95 53.4291C115.093 51.8249 118.568 55.0517 122.595 53.8577C122.833 53.7812 123.084 53.7574 123.332 53.7878C123.58 53.8182 123.819 53.9021 124.031 54.0338C124.243 54.1654 124.424 54.3416 124.562 54.5502C124.699 54.7587 124.789 54.9946 124.826 55.2415C124.826 55.2782 124.863 55.3088 124.875 55.3456C127.756 63.3789 126.26 75.086 117.036 78.0005C116.833 80.4213 117.009 82.8589 117.557 85.2256C117.947 86.5559 118.018 87.959 117.765 89.3219C117.789 89.6003 117.742 89.8803 117.63 90.1363C117.55 90.3485 117.452 90.5534 117.336 90.7486C117.358 91.0638 117.277 91.3776 117.108 91.6442C116.938 91.9108 116.687 92.1161 116.392 92.2303C113.328 93.6631 110.373 94.6366 106.941 93.9386C105.53 93.7082 104.195 93.1411 103.049 92.2854C101.48 91.0057 101.259 89.3586 100.352 87.6565C100.15 87.2955 100.079 86.876 100.15 86.4686C100.15 86.389 100.15 86.3155 100.15 86.2298C100.977 81.1845 102.54 76.1637 102.038 70.9714C101.787 67.8976 99.672 66.4771 99.1878 63.8993Z" fill="#D6A492"/>
<path d="M143.489 269.907L145.83 280.444L163.017 281.222L159.112 269.521" fill="#FFC7B3"/>
<path d="M69.2593 267.653L59.042 243.566L95.4736 219.649L94.7932 145.353L123.655 186.751C123.655 186.751 121.958 232.55 119.923 234.589C117.888 236.628 69.2593 267.653 69.2593 267.653Z" fill="#072638"/>
<path d="M126.983 149.676C126.983 149.676 155.582 213.539 155.919 218.627C156.256 223.715 165.836 278.448 165.836 278.448H139.346C139.346 278.448 131.807 227.113 128.411 221.345C125.016 215.577 96.8281 167.065 94.45 161.953C92.0719 156.84 90.1596 147.19 91.8328 144.808L126.983 149.676Z" fill="#133A54"/>
<path d="M135.497 163.128L85.6057 157.813L98.7097 111.279C98.7097 111.279 86.9908 87.3625 93.6164 85.8379C94.5297 85.495 100.236 84.3071 100.236 84.3071C100.236 84.3071 110.937 99.5778 117.557 85.3297C133.345 83.2907 138.666 104.813 138.151 107.372L124.421 113.948L126.726 128.582L135.497 163.128Z" fill="#BBBEBF"/>
<path d="M138.151 107.336L123.441 114.071C131.28 133.242 135.981 135.593 148.527 132.905C161.074 130.217 183.022 122.814 188.195 121.272C189.917 120.763 187.098 119.588 183.647 120.935C180.197 122.282 186.473 118.412 189.605 117.065C192.737 115.718 189.917 114.879 187.883 115.889C185.848 116.9 182.826 118.026 181.888 118.339C180.95 118.651 180.509 117.377 183.488 116.202C186.467 115.026 190.077 112.332 189.004 111.658C187.932 110.985 179.909 115.436 179.909 115.436C179.909 115.436 178.339 114.016 182.734 112.332C187.129 110.648 186.651 108.126 184.616 108.97C182.581 109.815 174.576 113.342 174.576 113.342C174.576 113.342 176.305 107.96 175.673 106.785C175.042 105.609 172.854 111.493 171.597 112.332C170.341 113.171 153.412 120.573 143.066 118.216L138.151 107.336Z" fill="#BC877D"/>
<path d="M139.646 121.474C135.828 117.543 130.453 112.05 125.139 106.546C124.691 106.087 124.287 105.578 123.913 105.076C122.687 103.588 122.595 103.484 123.858 102.015C127.633 97.6062 131.47 93.2487 135.368 88.9422C135.598 88.7147 135.88 88.5463 136.19 88.4514C136.499 88.3565 136.827 88.3379 137.146 88.3973C137.636 88.6483 137.838 89.5117 138.096 90.1362C138.166 90.4114 138.166 90.6998 138.096 90.975C137.176 97.2572 143.875 101.488 149.477 98.7635C151.124 98.0277 152.594 96.9489 153.79 95.5993C154.985 94.2498 155.879 92.6606 156.409 90.9383C157.764 86.4869 155.092 82.3661 150.44 81.5334C149.439 81.4148 148.432 81.3637 147.424 81.3804C146.941 81.4219 146.455 81.4013 145.978 81.3191C145.475 81.1599 144.709 80.8538 144.654 80.517C144.642 80.2336 144.689 79.9508 144.794 79.6871C144.899 79.4234 145.057 79.1846 145.261 78.9863C146.59 77.8114 147.979 76.7058 149.422 75.6737C151.782 73.9899 154.203 72.3857 156.612 70.7754C157.966 69.8692 159.278 69.8447 160.565 71.008C164.888 74.89 169.223 78.7536 173.571 82.5988C174.18 83.1852 174.849 83.7045 175.569 84.1479C176.911 84.8888 178.119 84.448 178.517 82.9784C178.757 81.9246 178.856 80.8437 178.811 79.7639C178.811 77.676 179.216 75.7778 180.705 74.192C181.366 73.4492 182.213 72.8958 183.159 72.5891C184.105 72.2823 185.115 72.2332 186.087 72.4469C189.825 73.1143 193.73 77.0637 194.526 80.7742C195.293 84.3377 192.59 89.0892 187.784 88.5871C187.223 88.5229 186.657 88.5045 186.093 88.532C184.499 88.6116 183.598 89.6219 184.144 91.1159C184.618 92.4277 185.354 93.6297 186.307 94.6488C188.918 97.398 191.701 99.9819 194.386 102.664C195.47 103.748 196.488 104.899 197.493 106.05C199.111 107.887 199.209 109.473 197.536 111.322C195.667 113.379 193.644 115.308 191.621 117.212C183.764 124.588 175.892 131.936 168.006 139.255C166.976 140.222 165.867 141.092 164.849 142.083C163.997 142.91 163.256 142.904 162.361 142.126C159.866 139.959 157.267 137.901 154.828 135.673C150.286 131.509 145.781 127.223 139.646 121.474Z" fill="#707070"/>
<path d="M106.034 108.125L90.0983 114.91C98.5871 134.246 103.68 136.622 117.263 133.891C130.845 131.16 154.62 123.715 160.222 122.184C162.091 121.676 159.033 120.488 155.318 121.847C151.604 123.206 158.383 119.3 161.772 117.947C165.162 116.594 162.109 115.736 159.903 116.759C157.697 117.781 154.43 118.914 153.412 119.251C152.395 119.588 151.923 118.284 155.147 117.096C158.371 115.908 162.281 113.195 161.092 112.516C159.903 111.836 151.175 116.336 151.175 116.336C151.175 116.336 149.477 114.904 154.24 113.208C159.002 111.511 158.481 108.964 156.275 109.815C154.068 110.667 145.408 114.224 145.408 114.224C145.408 114.224 147.277 108.799 146.597 107.611C145.916 106.423 143.532 112.356 142.184 113.208C140.835 114.059 122.485 121.516 111.281 119.147L106.034 108.125Z" fill="#D6A492"/>
<path d="M108.896 111.763L90.0493 119.398C84.4472 106.166 80.8556 87.8462 97.1836 84.797L108.896 111.763Z" fill="#C9C9C9"/>
<path d="M102.933 57.0722C100.886 56.8885 98.9549 57.1763 97.6187 58.8662C97.3 59.2642 97.8639 59.8336 98.1887 59.4295C99.4145 57.8988 101.094 57.709 102.933 57.8743C103.448 57.9233 103.441 57.1212 102.933 57.0722Z" fill="#FCFCFC"/>
<path d="M145.83 280.432L162.992 281.209L164.941 285.894L176.66 287.455C176.66 287.455 176.66 290.186 170.408 290.963C164.157 291.741 145.414 290.578 145.414 290.578L145.83 280.432Z" fill="black"/>
<path d="M59.2442 249.205L66.8505 264.616L63.694 268.59L67.9844 279.612C67.9844 279.612 65.5879 280.928 61.892 275.84C58.1962 270.752 50.167 253.797 50.167 253.797L59.2442 249.205Z" fill="black"/>
<path d="M111.624 53.8821C115.136 53.1596 118.531 55.6517 122.092 54.8006C125.512 53.9801 130.06 48.9532 126.996 45.4386C125.476 43.6874 123.03 43.5282 121.057 44.4283C120.988 44.3757 120.914 44.3306 120.836 44.2936C118.384 43.1241 116.055 41.6546 113.236 42.5057C112.643 42.6952 112.077 42.9586 111.55 43.2894C109.062 42.0648 105.225 43.8344 102.632 45.8304C98.342 45.9651 96.3132 51.384 95.4674 55.0149C94.1619 60.5807 95.6023 65.3505 99.5556 69.3916C100.585 70.4448 102.044 69.1161 101.48 67.8792C100.463 65.6108 99.8513 63.1822 99.672 60.7031C99.8017 60.7041 99.9305 60.6813 100.052 60.6358C100.225 60.5654 100.393 60.4836 100.555 60.3909C102.179 60.3909 103.037 61.0399 103.141 62.2645C103.141 62.5461 103.141 62.8278 103.141 63.1033C103.141 63.2234 103.158 63.3429 103.19 63.4585C103.183 63.5318 103.183 63.6056 103.19 63.6789C103.27 67.6956 105.513 70.3591 108.492 72.7531C110.943 74.7125 113.285 76.5126 116.11 77.3821C116.579 77.5775 117.075 77.6974 117.581 77.7372C118.082 77.8253 118.588 77.8846 119.095 77.9148C119.313 77.9354 119.532 77.8874 119.721 77.7776C119.91 77.6678 120.06 77.5017 120.149 77.3025C121.333 76.7197 122.345 75.8423 123.09 74.7548C123.835 73.6673 124.287 72.4065 124.403 71.0938C124.478 70.7621 124.488 70.4192 124.434 70.0835C124.238 68.8589 123.349 68.7059 122.393 68.2466C120.995 67.5915 119.861 66.9731 118.262 67.2302C116.466 67.518 115.025 68.8528 113.199 68.9936C112.999 69.0109 112.805 69.076 112.635 69.1834C109.932 68.4487 107.885 67.0833 106.696 64.3769C106.303 63.5076 105.968 62.6138 105.691 61.7012C106.034 58.2233 108.112 54.574 111.624 53.8821ZM117.446 70.0713C118.917 69.459 119.739 69.7712 121.124 70.4203C121.357 70.5305 121.614 70.6101 121.841 70.7387L121.927 70.7754C121.913 70.7861 121.901 70.7984 121.89 70.8122C120.946 72.1286 119.91 74.0451 117.98 73.9594C116.689 73.7929 115.512 73.1349 114.695 72.1225C114.596 71.8347 114.517 71.5102 114.443 71.2653C115.468 70.9193 116.471 70.5124 117.446 70.0468V70.0713Z" fill="#4C4C4C"/>
<path d="M100.745 70.7264C98.2562 71.5469 98.011 67.665 96.16 66.8384C95.7984 66.6792 95.4919 67.2057 95.8474 67.3649C97.9252 68.3017 97.8762 72.3184 100.91 71.3204C101.278 71.1979 101.131 70.604 100.745 70.7264Z" fill="#4C4C4C"/>
<path d="M128.571 45.5488C126.732 43.0996 124.281 42.322 121.381 43.2772C121.008 43.3996 121.167 43.9936 121.547 43.8895C124.189 43.0261 126.358 43.6445 128.038 45.8794C128.277 46.1672 128.804 45.8611 128.571 45.5488Z" fill="#4C4C4C"/>
<path d="M103.061 59.8276C102.721 59.5288 102.317 59.3109 101.881 59.1901C101.444 59.0693 100.986 59.0488 100.54 59.1301C100.094 59.2114 99.6727 59.3923 99.3069 59.6594C98.9411 59.9266 98.6406 60.2729 98.4278 60.6725C98.2684 61.0277 98.7955 61.3399 98.961 60.9848C99.1243 60.6629 99.3589 60.3823 99.6469 60.1645C99.935 59.9467 100.269 59.7973 100.623 59.7276C100.978 59.658 101.344 59.6699 101.693 59.7626C102.042 59.8552 102.365 60.0261 102.639 60.2623C102.914 60.5256 103.349 60.097 103.061 59.8276Z" fill="white"/>
<path d="M122.393 45.1814C120.198 46.057 118.488 44.6059 116.429 44.1773C115.06 43.9529 113.656 44.1989 112.445 44.8753C112.09 45.0467 112.402 45.5733 112.758 45.408C113.827 44.8185 115.063 44.603 116.27 44.7957C117.059 45.0165 117.831 45.2948 118.58 45.6284C119.91 46.0999 121.216 46.3387 122.552 45.806C122.914 45.6284 122.76 45.0345 122.393 45.1814Z" fill="white"/>
</g>
<defs>
<clipPath id="clip0">
<rect width="464" height="313" fill="white"/>
</clipPath>
</defs>
</svg>
