<svg width="275" height="202" viewBox="0 0 275 202" fill="none" xmlns="http://www.w3.org/2000/svg">
<g clip-path="url(#clip0)">
<path d="M78.3061 157.789L72.5801 162.456L76.9632 173.727L82.9632 167.71" fill="#FFC7B3"/>
<path d="M52.5605 83.0268C53.9893 76.0937 58.2758 71.9782 61.8479 66.377C65.0708 61.2996 64.3778 55.0552 67.3053 49.7216C69.9374 44.9173 74.6697 41.9745 79.6598 40.614C80.0949 40.4945 80.53 40.3977 80.9651 40.3009C82.1581 39.4707 83.2845 38.5379 84.333 37.5118C86.3044 35.4341 87.5559 32.6961 88.7699 30.1119C90.9185 25.5182 93.0402 20.9417 97.1065 17.8963C102.43 13.9118 113.549 11.0657 118.652 16.7579C118.876 17.0172 119.043 17.3265 119.14 17.663C119.64 18.3675 119.935 19.2103 119.992 20.0893C120.048 20.9683 119.862 21.8457 119.457 22.6152C118.265 25.0401 115.37 25.837 112.979 25.7858C111.357 25.68 109.745 25.4325 108.161 25.0458C105.884 27.8179 104.149 31.6829 101.377 33.7264C104.043 34.4006 106.626 35.4016 109.074 36.7091C117.244 40.984 125.849 48.2701 127.842 58.1005C130.109 69.3711 125.629 81.1939 117.636 88.7076C113.576 92.5157 108.854 95.4472 104.046 98.2478C102.768 101.566 101.081 104.612 98.863 106.724C98.5934 106.98 98.31 107.219 98.0143 107.441C97.5538 108.941 96.7683 110.305 95.7206 111.425C87.6956 120.243 75.2014 117.937 66.2579 112.137C56.5677 105.79 49.9876 95.5383 52.5605 83.0268Z" fill="#EBA2A1"/>
<path d="M100.109 30.59C99.6631 28.0968 101.683 27.3113 103.509 27.6244C104.637 25.7573 105.959 23.9871 107.978 23.1617C110.75 22.0232 113.076 24.3001 115.788 23.4691C115.949 23.4151 116.119 23.3992 116.286 23.4224C116.453 23.4457 116.613 23.5076 116.755 23.6037C116.897 23.6998 117.017 23.8278 117.107 23.9787C117.197 24.1295 117.255 24.2995 117.276 24.4766C117.288 24.5007 117.299 24.5254 117.309 24.5506C119.237 30.2428 118.238 38.5592 112.066 40.6425C111.93 42.359 112.048 44.0875 112.415 45.7655C112.679 46.7096 112.727 47.7067 112.555 48.6742C112.568 48.869 112.536 49.0641 112.463 49.2435C112.411 49.3915 112.346 49.5343 112.27 49.6704C112.283 49.8937 112.229 50.1155 112.115 50.3039C112.001 50.4922 111.833 50.6371 111.636 50.7177C109.574 51.7367 107.608 52.4254 105.314 51.9302C104.369 51.7688 103.475 51.3663 102.709 50.7576C101.634 49.8468 101.511 48.6856 100.909 47.4732C100.773 47.2178 100.723 46.9202 100.77 46.6307C100.77 46.5738 100.77 46.5226 100.77 46.46C101.307 42.8796 102.381 39.3219 102.037 35.6447C101.849 33.4305 100.447 32.4457 100.109 30.59Z" fill="#FFD9CC"/>
<path d="M200.528 173.79L190.66 183.068C190.354 183.353 190.021 183.609 189.693 183.865C188.716 184.628 188.646 184.702 187.749 183.808C185.063 181.144 182.415 178.435 179.794 175.697C179.656 175.536 179.557 175.342 179.506 175.132C179.454 174.922 179.452 174.702 179.498 174.49C179.675 174.171 180.223 174.057 180.626 173.921C180.806 173.888 180.99 173.902 181.163 173.961C185.117 174.769 187.991 170.403 186.422 166.561C186.003 165.433 185.361 164.413 184.539 163.57C183.717 162.726 182.735 162.079 181.657 161.671C178.88 160.629 176.179 162.297 175.534 165.394C175.43 166.062 175.369 166.737 175.351 167.415C175.363 167.738 175.336 168.061 175.271 168.377C175.158 168.707 174.938 169.213 174.734 169.242C174.551 169.235 174.373 169.186 174.21 169.1C174.047 169.013 173.903 168.891 173.788 168.741C173.081 167.813 172.42 166.848 171.806 165.849C170.812 164.216 169.862 162.548 168.911 160.88C168.633 160.485 168.505 159.994 168.552 159.503C168.6 159.013 168.82 158.559 169.169 158.233C171.751 155.455 174.322 152.664 176.882 149.86C177.272 149.47 177.621 149.037 177.924 148.568C178.429 147.691 178.182 146.86 177.264 146.558C176.602 146.365 175.919 146.265 175.233 146.262C174.594 146.28 173.957 146.163 173.361 145.917C172.765 145.67 172.222 145.3 171.763 144.828C171.31 144.362 170.983 143.777 170.815 143.133C170.647 142.488 170.644 141.808 170.807 141.162C171.344 138.68 173.949 136.176 176.324 135.754C178.606 135.35 181.539 137.308 181.083 140.496C181.027 140.873 180.998 141.253 180.997 141.635C180.997 142.705 181.62 143.342 182.581 143.023C183.425 142.743 184.207 142.286 184.88 141.68C186.696 140.007 188.409 138.219 190.187 136.5C190.902 135.806 191.665 135.157 192.422 134.519C193.647 133.489 194.64 133.472 195.763 134.65C197.009 135.965 198.175 137.377 199.324 138.794C203.772 144.285 208.209 149.788 212.635 155.302C213.215 156.024 213.742 156.793 214.338 157.504C214.454 157.608 214.546 157.737 214.609 157.883C214.671 158.03 214.701 158.189 214.697 158.349C214.693 158.51 214.654 158.667 214.585 158.81C214.515 158.952 214.416 159.076 214.295 159.172C212.85 160.783 211.475 162.462 209.998 164.033C207.204 166.959 204.341 169.845 200.528 173.79Z" fill="#FFE3E3"/>
<path d="M188.404 180.273C188.093 180.273 187.787 180.046 187.292 179.551C184.891 177.171 182.367 174.593 179.337 171.433C179.156 171.229 179.03 170.978 178.969 170.705C178.909 170.432 178.917 170.148 178.993 169.879C179.25 169.553 179.608 169.333 180.003 169.259C180.095 169.23 180.186 169.202 180.266 169.168C180.46 169.109 180.664 169.109 180.857 169.168H180.938C181.73 169.34 182.551 169.275 183.31 168.98C184.069 168.686 184.735 168.173 185.235 167.5C185.795 166.76 186.152 165.871 186.267 164.93C186.383 163.99 186.252 163.034 185.89 162.166C185.487 161.075 184.868 160.087 184.074 159.271C183.28 158.455 182.329 157.829 181.287 157.436C180.708 157.202 180.088 157.103 179.47 157.146C178.851 157.189 178.249 157.374 177.704 157.687C177.14 158.032 176.652 158.503 176.274 159.065C175.896 159.628 175.636 160.27 175.513 160.948C175.433 161.397 175.386 161.852 175.373 162.309C175.373 162.519 175.373 162.724 175.335 162.929C175.335 163.032 175.335 163.134 175.335 163.237C175.349 163.485 175.32 163.734 175.249 163.971C174.911 164.967 174.589 165.007 174.481 165.018C174.255 165.016 174.031 164.96 173.827 164.856C173.623 164.752 173.443 164.601 173.3 164.415C172.587 163.478 171.92 162.504 171.301 161.495C170.351 159.941 169.427 158.324 168.535 156.765L168.395 156.52C168.093 156.067 167.957 155.514 168.012 154.962C168.067 154.411 168.311 153.9 168.696 153.526C171.226 150.81 173.686 148.129 176.41 145.158L176.49 145.067C176.835 144.724 177.143 144.343 177.409 143.929C177.509 143.788 177.577 143.625 177.608 143.453C177.639 143.28 177.631 143.102 177.586 142.932C177.519 142.79 177.424 142.665 177.306 142.566C177.188 142.468 177.05 142.398 176.904 142.363C176.265 142.178 175.606 142.084 174.943 142.084C174.268 142.1 173.597 141.974 172.969 141.712C172.341 141.45 171.769 141.058 171.285 140.559C170.804 140.057 170.455 139.43 170.276 138.74C170.097 138.051 170.093 137.323 170.265 136.631C170.802 134.081 173.488 131.451 175.996 131.007C176.704 130.903 177.425 130.972 178.104 131.209C178.782 131.445 179.401 131.844 179.912 132.373C180.373 132.844 180.719 133.427 180.921 134.072C181.122 134.717 181.172 135.404 181.067 136.073C181.015 136.433 180.988 136.796 180.986 137.16C180.968 137.353 180.994 137.547 181.06 137.727C181.126 137.907 181.232 138.068 181.368 138.196C181.493 138.281 181.635 138.332 181.783 138.345C181.93 138.359 182.079 138.336 182.216 138.276C183.027 138.01 183.778 137.572 184.424 136.99C185.557 135.948 186.675 134.832 187.754 133.757C188.41 133.108 189.06 132.459 189.726 131.815C190.392 131.172 191.197 130.478 191.971 129.823C193.335 128.685 194.474 128.719 195.667 129.977C196.94 131.309 198.132 132.76 199.244 134.138C203.38 139.238 207.498 144.348 211.598 149.467L212.544 150.64C212.807 150.964 213.081 151.306 213.312 151.642C213.543 151.977 213.919 152.45 214.241 152.837C214.379 152.967 214.488 153.128 214.561 153.307C214.634 153.487 214.67 153.681 214.665 153.876C214.661 154.072 214.616 154.264 214.535 154.439C214.453 154.614 214.336 154.769 214.193 154.892C213.618 155.529 213.059 156.173 212.501 156.821C211.658 157.795 210.782 158.802 209.88 159.759C207.962 161.791 206.007 163.8 203.74 166.128L200.431 169.544L199.083 170.813C196.65 173.09 193.609 175.964 190.564 178.822C190.279 179.089 189.973 179.329 189.677 179.556L189.581 179.636C189.043 180.051 188.721 180.273 188.404 180.273ZM180.508 169.697H180.454L180.17 169.8C179.896 169.891 179.552 170.005 179.466 170.158C179.451 170.312 179.465 170.468 179.509 170.616C179.552 170.763 179.624 170.9 179.719 171.018C182.743 174.177 185.267 176.756 187.663 179.129C188.388 179.847 188.388 179.852 189.231 179.192L189.36 179.089C189.65 178.862 189.946 178.634 190.214 178.384C193.26 175.537 196.3 172.691 198.734 170.375L200.077 169.111C201.264 167.881 202.354 166.76 203.38 165.696C205.647 163.367 207.602 161.352 209.52 159.326C210.411 158.381 211.282 157.379 212.119 156.406C212.683 155.757 213.248 155.108 213.817 154.471C213.915 154.4 213.995 154.305 214.052 154.195C214.109 154.085 214.14 153.963 214.144 153.837C214.148 153.712 214.123 153.588 214.073 153.474C214.023 153.361 213.948 153.261 213.854 153.184C213.521 152.791 213.21 152.37 212.904 151.966C212.598 151.562 212.41 151.3 212.152 150.981L211.206 149.809C207.085 144.693 202.966 139.583 198.852 134.479C197.745 133.113 196.564 131.673 195.307 130.353C194.308 129.3 193.475 129.271 192.325 130.239C191.557 130.888 190.805 131.525 190.102 132.208C189.398 132.891 188.791 133.495 188.141 134.144C187.067 135.225 185.933 136.341 184.789 137.394C184.088 138.026 183.273 138.5 182.394 138.788C182.177 138.88 181.943 138.913 181.711 138.885C181.48 138.858 181.258 138.769 181.067 138.629C180.862 138.449 180.701 138.219 180.597 137.96C180.492 137.701 180.447 137.419 180.465 137.138C180.466 136.743 180.494 136.349 180.551 135.959C180.642 135.379 180.598 134.783 180.424 134.224C180.25 133.665 179.951 133.159 179.552 132.749C179.103 132.281 178.558 131.929 177.96 131.72C177.362 131.511 176.727 131.45 176.104 131.542C173.778 131.952 171.307 134.388 170.807 136.728C170.651 137.329 170.651 137.963 170.806 138.563C170.961 139.164 171.266 139.71 171.688 140.143C172.123 140.591 172.639 140.942 173.205 141.175C173.77 141.408 174.374 141.517 174.981 141.498C175.691 141.498 176.398 141.601 177.081 141.805C177.309 141.866 177.519 141.983 177.697 142.145C177.875 142.306 178.016 142.51 178.107 142.739C178.182 142.99 178.2 143.255 178.162 143.515C178.124 143.774 178.03 144.021 177.887 144.236C177.599 144.69 177.266 145.11 176.893 145.488L176.813 145.579C174.084 148.551 171.624 151.232 169.094 153.947C168.797 154.23 168.611 154.62 168.57 155.04C168.53 155.461 168.638 155.883 168.873 156.224L169.013 156.469C169.905 158.028 170.823 159.639 171.769 161.187C172.377 162.171 173.034 163.121 173.735 164.033C173.821 164.145 173.928 164.238 174.049 164.305C174.17 164.373 174.302 164.414 174.438 164.426C174.581 164.221 174.69 163.992 174.761 163.749C174.808 163.573 174.826 163.39 174.814 163.208C174.814 163.089 174.814 162.975 174.814 162.861C174.814 162.747 174.841 162.457 174.852 162.258C174.868 161.77 174.918 161.285 175.002 160.806C175.142 160.049 175.434 159.333 175.857 158.705C176.281 158.078 176.826 157.554 177.457 157.169C178.069 156.816 178.746 156.607 179.441 156.556C180.136 156.505 180.833 156.613 181.486 156.873C182.597 157.293 183.611 157.96 184.459 158.83C185.306 159.7 185.969 160.752 186.401 161.916C186.8 162.879 186.943 163.94 186.815 164.984C186.686 166.027 186.29 167.014 185.67 167.836C185.107 168.592 184.357 169.166 183.503 169.496C182.649 169.826 181.726 169.897 180.836 169.703H180.744C180.666 169.694 180.587 169.692 180.508 169.697Z" fill="black"/>
<path d="M83.3125 173.852L76.4961 156.775L97.6276 141.127L97.1711 88.4059L116.482 117.778C116.482 117.778 115.343 150.275 113.979 151.721C112.614 153.166 83.3125 173.852 83.3125 173.852Z" fill="black"/>
<path d="M120.918 92.0034L91.6113 88.0188L99.7921 64.1855C99.7921 64.1855 91.9551 47.2454 96.3812 46.1411C96.999 45.9021 100.813 45.0596 100.813 45.0596C100.813 45.0596 107.968 55.8748 112.399 45.7825C122.959 44.3367 126.515 59.6089 126.177 61.4134L116.976 66.1095L118.533 76.475L120.918 92.0034Z" fill="#4C4C4C"/>
<path d="M126.177 61.4134L116.315 66.1892C121.563 79.7936 124.711 81.4614 133.101 79.5545C141.491 77.6476 156.198 72.3937 159.636 71.3179C160.786 70.9649 158.9 70.1282 156.591 71.0845C154.281 72.0408 158.481 69.2914 160.576 68.3351C162.671 67.3788 160.786 66.7868 159.427 67.5041C158.068 68.2213 156.043 69.0182 155.414 69.2573C154.786 69.4963 154.496 68.5742 156.488 67.7431C158.481 66.9121 160.893 64.9938 160.157 64.5213C159.421 64.0489 154.077 67.1967 154.077 67.1967C154.077 67.1967 153.002 66.1892 155.962 64.9938C158.922 63.7984 158.583 62.0111 157.219 62.6088C155.855 63.2064 150.51 65.711 150.51 65.711C150.51 65.711 151.665 61.8915 151.246 61.0605C150.827 60.2294 149.355 64.4018 148.517 64.9938C147.679 65.5858 136.351 70.8454 129.427 69.1719L126.177 61.4134Z" fill="#F4CBBD"/>
<path d="M169.772 33.0832C170.067 33.0833 170.358 33.0097 170.622 32.8684C170.885 32.7271 171.114 32.522 171.288 32.2698C171.463 32.0176 171.579 31.7254 171.627 31.4167C171.676 31.108 171.655 30.7917 171.566 30.4932C167.919 18.2435 154.764 11.1852 141.486 22.6664C140.151 23.8261 139.077 25.2857 138.34 26.9396C137.603 28.5936 137.223 30.4004 137.226 32.2293V49.7159C139.251 52.1749 141.829 50.6779 141.829 48.5774V32.4457C141.828 31.4035 142.032 30.3725 142.43 29.4194C142.828 28.4663 143.41 27.6124 144.139 26.9128C153.964 17.5036 163.563 22.1541 166.866 30.9998C167.099 31.6144 167.501 32.1411 168.019 32.5123C168.536 32.8835 169.147 33.0823 169.772 33.0832Z" fill="#CECECE"/>
<path d="M170.454 34.8876C170.749 34.8877 171.041 34.8142 171.304 34.6729C171.567 34.5316 171.796 34.3265 171.97 34.0743C172.145 33.8221 172.261 33.5298 172.31 33.2212C172.358 32.9125 172.337 32.5961 172.248 32.2977C168.596 20.0537 155.446 12.9896 142.168 24.4709C140.833 25.6314 139.758 27.092 139.021 28.7469C138.285 30.4018 137.904 32.2097 137.908 34.0395V51.526C139.933 53.9794 142.506 52.4823 142.506 50.3534V34.2444C142.505 33.2019 142.711 32.1707 143.11 31.2177C143.509 30.2646 144.092 29.4108 144.821 28.7116C154.641 19.308 164.245 23.9529 167.548 32.7986C167.78 33.4151 168.18 33.9439 168.698 34.3163C169.216 34.6888 169.828 34.8878 170.454 34.8876Z" fill="#7F7E7E"/>
<path d="M175.858 48.9133H135.717C132.311 48.9133 129.55 51.8389 129.55 55.4479V89.681C129.55 93.29 132.311 96.2157 135.717 96.2157H175.858C179.264 96.2157 182.025 93.29 182.025 89.681V55.4479C182.025 51.8389 179.264 48.9133 175.858 48.9133Z" fill="#7F7E7E"/>
<path d="M177.765 49.2321C178.103 50.0527 178.276 50.9383 178.276 51.8334V86.0721C178.276 86.93 178.116 87.7795 177.806 88.572C177.496 89.3645 177.042 90.0845 176.469 90.6908C175.897 91.2972 175.217 91.778 174.469 92.1058C173.721 92.4335 172.919 92.6019 172.109 92.6011H131.968C131.32 92.6008 130.677 92.4932 130.061 92.2824C130.542 93.4472 131.334 94.438 132.339 95.1335C133.343 95.8291 134.517 96.1992 135.717 96.1986H175.859C177.494 96.1986 179.062 95.5101 180.219 94.2846C181.375 93.0592 182.025 91.397 182.025 89.6639V55.448C182.025 54.0682 181.612 52.7239 180.847 51.6075C180.082 50.491 179.003 49.6596 177.765 49.2321Z" fill="#2D2D2D"/>
<path d="M104.675 61.9769L94.002 66.7925C99.6796 80.5108 103.091 82.1957 112.174 80.2717C121.257 78.3477 137.162 73.0483 140.911 71.9667C142.163 71.6024 140.116 70.76 137.619 71.7277C135.121 72.6953 139.665 69.9175 141.916 68.9556C144.167 67.9936 142.141 67.3902 140.664 68.1131C139.187 68.836 137.001 69.6443 136.319 69.8834C135.637 70.1225 135.325 69.2003 137.484 68.3579C139.644 67.5154 142.254 65.5858 141.459 65.1076C140.664 64.6295 134.874 67.8114 134.874 67.8114C134.874 67.8114 133.735 66.7925 136.915 65.5858C140.095 64.379 139.757 62.5803 138.279 63.178C136.802 63.7756 131.012 66.3087 131.012 66.3087C131.012 66.3087 132.258 62.455 131.807 61.6126C131.355 60.7701 129.76 64.9824 128.852 65.5971C127.945 66.2119 115.676 71.4943 108.177 69.8094L104.675 61.9769Z" fill="#FFD9CC"/>
<path d="M106.608 64.5612L94.0014 69.9745C90.2413 60.588 87.8725 47.587 98.7767 45.424L106.608 64.5612Z" fill="#707070"/>
<path d="M85.5898 32.4457C84.6283 33.9997 83.7043 35.6561 82.3991 36.9198C81.0938 38.1835 79.4985 38.525 77.9139 39.1967C77.5916 39.3276 77.7312 39.874 78.0535 39.7659C79.5629 39.1454 81.1583 38.8153 82.4313 37.6882C83.9461 36.3506 84.9881 34.5006 86.0517 32.7758C86.2397 32.4457 85.7778 32.1554 85.5898 32.4457Z" fill="#EBA2A1"/>
<path d="M121.036 18.7843C120.848 18.4769 120.381 18.7843 120.574 19.0746C121.412 20.4464 120.65 22.7689 119.42 23.6284C119.129 23.8276 119.42 24.3228 119.688 24.1236C121.16 23.1047 122.041 20.4407 121.036 18.7843Z" fill="#EBA2A1"/>
<path d="M61.5685 61.0832C61.2515 61.8289 60.5264 62.5746 60.4082 63.4113C60.3792 63.4349 60.3555 63.465 60.3387 63.4994C60.322 63.5339 60.3127 63.5719 60.3115 63.6106C60.3115 63.8952 60.3115 64.2993 60.6123 64.3961C60.9131 64.4929 61.1495 64.231 61.3267 64.0432C62.0304 63.2918 62.0519 62.2217 62.068 61.1971C62.0734 60.9637 61.6813 60.8214 61.5685 61.0832Z" fill="#EBA2A1"/>
<g opacity="0.6">
<path opacity="0.3" d="M78.5855 158.671L78.5103 158.551L100.233 142.516L99.384 98.6861L99.5183 98.6804L100.372 142.59L100.34 142.613L78.5855 158.671Z" fill="#FCFCFC"/>
<path opacity="0.3" d="M80.6963 162.644L80.6157 162.53L103.815 143.962V99.4033H103.95V144.036L103.923 144.053L80.6963 162.644Z" fill="#FCFCFC"/>
<path opacity="0.3" d="M82.8877 166.35L82.8071 166.236L108.075 146.313L108.923 100.126H109.058L108.204 146.381L108.182 146.404L82.8877 166.35Z" fill="#FCFCFC"/>
<path opacity="0.3" d="M84.2363 170.067L84.1665 169.947L111.293 150.52L115.23 101.202L115.364 101.213L111.422 150.599L111.395 150.616L84.2363 170.067Z" fill="#FCFCFC"/>
</g>
<path d="M61.9977 59.2333C62.0044 59.1826 61.9972 59.1309 61.977 59.0844C61.9567 59.0379 61.9243 58.9985 61.8836 58.9709C61.8429 58.9433 61.7955 58.9287 61.7472 58.9288C61.6989 58.9289 61.6516 58.9437 61.611 58.9714C61.2833 59.1682 60.9133 59.2721 60.5367 59.2731C60.5152 59.2533 60.4893 59.2395 60.4615 59.2333C59.7739 59.1365 57.491 59.3699 58.3505 60.6222C59.2099 61.8745 61.2618 60.2693 61.9547 59.5577C61.9966 59.5175 62.0237 59.463 62.0316 59.4038C62.0394 59.3445 62.0275 59.2842 61.9977 59.2333Z" fill="#EBA2A1"/>
<path d="M118.71 91.4627C118.71 91.4627 137.838 136.779 138.048 140.387C138.257 143.996 143.5 176.738 143.5 176.738H125.774C125.774 176.738 121.933 146.404 119.661 142.306C117.389 138.207 98.535 103.792 96.945 100.183C95.3551 96.5743 94.0552 89.7095 95.1886 88.0246L118.71 91.4627Z" fill="#707070"/>
<path d="M93.0132 109.08C90.3274 113.207 84.6551 113.281 80.4385 112.763C76.2218 112.245 71.5003 110.976 67.9121 108.386C67.6274 108.181 67.375 108.676 67.6435 108.881C71.4788 111.642 76.5226 112.945 81.0723 113.406C85.3695 113.833 90.7786 113.492 93.4644 109.37C93.6739 109.069 93.2066 108.784 93.0132 109.08Z" fill="#FCFCFC"/>
<path d="M102.597 25.7516C101.232 25.6207 99.943 25.8199 99.046 27.0209C98.8311 27.3056 99.2125 27.7097 99.4273 27.4251C100.238 26.3379 101.372 26.2013 102.597 26.3208C102.962 26.355 102.956 25.78 102.597 25.7516Z" fill="#FCFCFC"/>
<g opacity="0.3">
<path opacity="0.5" d="M127.966 174.176L122.546 139.926L97.8853 91.8156L98.0034 91.7473L122.675 139.892L128.095 174.148L127.966 174.176Z" fill="#FCFCFC"/>
<path opacity="0.5" d="M132.263 173.977L127.407 139.727L102.741 91.8156L102.859 91.7473L127.536 139.693L132.392 173.954L132.263 173.977Z" fill="#FCFCFC"/>
<path opacity="0.5" d="M136.372 173.579L132.263 139.528L107.79 91.8156L107.908 91.7473L132.392 139.499L136.506 173.556L136.372 173.579Z" fill="#FCFCFC"/>
<path opacity="0.5" d="M140.111 173.972L136.002 139.528L116.379 92.9996L116.503 92.9427L136.13 139.499L140.245 173.954L140.111 173.972Z" fill="#FCFCFC"/>
</g>
<path d="M81.8191 44.0293C78.2686 44.5985 75.0457 47.0177 72.8917 49.9948C70.6142 53.154 70.2435 56.9393 69.6688 60.7303C69.3304 62.8364 68.8846 64.971 67.8156 66.8039C66.838 68.4717 65.4575 69.8151 64.206 71.2439C63.0979 72.3973 62.2034 73.7603 61.5686 75.2626C60.9186 77.0329 61.0314 78.9511 61.0314 80.8182C61.0314 80.8937 61.0597 80.9661 61.1101 81.0194C61.1604 81.0728 61.2288 81.1028 61.3 81.1028C61.3712 81.1028 61.4395 81.0728 61.4899 81.0194C61.5403 80.9661 61.5686 80.8937 61.5686 80.8182C61.5686 78.8828 61.4504 76.8849 62.2293 75.0804C62.9544 73.3727 64.2328 72.0408 65.4199 70.7202C67.7082 68.1871 69.2552 65.7679 69.9481 62.2843C70.7055 58.4477 70.7485 54.4006 72.8756 51.0365C74.9221 47.7976 78.3169 45.1507 82.0071 44.5815C82.3026 44.5245 82.1844 43.9781 81.8191 44.0293Z" fill="#FFEEEE"/>
<path d="M77.2588 119.497C73.1297 119.471 69.0633 118.424 65.3841 116.437C61.705 114.451 58.5148 111.58 56.0682 108.055C55.864 107.765 55.4021 108.055 55.6008 108.346C58.098 111.954 61.3571 114.894 65.1178 116.929C68.8784 118.964 73.0362 120.038 77.2588 120.066C77.33 120.066 77.3983 120.036 77.4487 119.983C77.4991 119.929 77.5274 119.857 77.5274 119.781C77.5274 119.706 77.4991 119.634 77.4487 119.58C77.3983 119.527 77.33 119.497 77.2588 119.497Z" fill="#EBA2A1"/>
<path d="M129.744 176.772L131.312 184.252L142.807 184.804L140.197 176.499" fill="#FFC7B3"/>
<path d="M131.312 184.252L142.807 184.821L144.112 188.145L151.949 189.249C151.949 189.249 151.949 191.19 147.77 191.743C143.591 192.295 131.049 191.464 131.049 191.464L131.312 184.252Z" fill="black"/>
<path d="M73.3911 162.103L78.4833 173.044L76.3669 175.861L79.2353 183.671C79.2353 183.671 77.6238 184.605 75.1583 180.99C72.6928 177.375 67.3159 165.342 67.3159 165.342L73.3911 162.103Z" fill="black"/>
<path d="M162.381 86.704H135.115C134.112 86.704 133.299 87.5654 133.299 88.6279V88.6336C133.299 89.6962 134.112 90.5576 135.115 90.5576H162.381C163.383 90.5576 164.196 89.6962 164.196 88.6336V88.6279C164.196 87.5654 163.383 86.704 162.381 86.704Z" fill="#A5A5A5"/>
<path d="M171.185 86.704H168.505C167.502 86.704 166.689 87.5654 166.689 88.6279V88.6336C166.689 89.6962 167.502 90.5576 168.505 90.5576H171.185C172.188 90.5576 173 89.6962 173 88.6336V88.6279C173 87.5654 172.188 86.704 171.185 86.704Z" fill="#A5A5A5"/>
<path d="M189.077 7.79297C188.349 7.7941 187.638 7.56637 187.032 7.13861C186.426 6.71085 185.954 6.10228 185.674 5.3899C185.395 4.67752 185.321 3.89334 185.463 3.1366C185.604 2.37986 185.954 1.68457 186.468 1.13869C186.983 0.592808 187.638 0.220882 188.352 0.0699697C189.066 -0.0809427 189.806 -0.00405915 190.479 0.290892C191.152 0.585843 191.727 1.08561 192.131 1.72694C192.536 2.36828 192.752 3.12237 192.752 3.8938C192.752 4.92694 192.365 5.91785 191.676 6.64892C190.987 7.38 190.052 7.79147 189.077 7.79297ZM189.077 0.569541C188.455 0.568415 187.847 0.7629 187.33 1.12837C186.812 1.49383 186.408 2.01384 186.17 2.62254C185.931 3.23124 185.869 3.90126 185.99 4.54773C186.111 5.19421 186.41 5.78807 186.85 6.25412C187.29 6.72016 187.85 7.03743 188.46 7.16573C189.07 7.29404 189.703 7.22761 190.277 6.97487C190.851 6.72213 191.342 6.29444 191.687 5.74596C192.032 5.19748 192.215 4.55289 192.214 3.8938C192.213 3.01261 191.882 2.16795 191.294 1.54486C190.706 0.921763 189.909 0.571046 189.077 0.569541Z" fill="#92EAFF"/>
<path d="M194.519 28.0114C193.859 28.0114 193.214 27.8041 192.666 27.4157C192.117 27.0272 191.689 26.4752 191.437 25.8293C191.185 25.1833 191.118 24.4726 191.247 23.7869C191.376 23.1012 191.694 22.4714 192.16 21.977C192.627 21.4826 193.221 21.146 193.868 21.0096C194.515 20.8732 195.186 20.9432 195.795 21.2107C196.405 21.4783 196.926 21.9313 197.292 22.5127C197.659 23.094 197.854 23.7774 197.854 24.4765C197.853 25.4136 197.501 26.3118 196.876 26.9744C196.251 27.637 195.403 28.0099 194.519 28.0114ZM194.519 21.5109C193.965 21.5109 193.424 21.6848 192.964 22.0107C192.504 22.3365 192.145 22.7997 191.933 23.3416C191.721 23.8835 191.666 24.4798 191.774 25.0551C191.882 25.6304 192.149 26.1588 192.54 26.5736C192.931 26.9883 193.43 27.2708 193.973 27.3852C194.516 27.4996 195.078 27.4409 195.59 27.2164C196.101 26.992 196.538 26.6119 196.846 26.1242C197.153 25.6365 197.317 25.0631 197.317 24.4765C197.316 23.6904 197.021 22.937 196.496 22.3812C195.972 21.8253 195.261 21.5124 194.519 21.5109Z" fill="#92EAFF"/>
<path d="M175.777 5.33928C176.531 5.33928 177.142 4.69196 177.142 3.89346C177.142 3.09495 176.531 2.44763 175.777 2.44763C175.024 2.44763 174.413 3.09495 174.413 3.89346C174.413 4.69196 175.024 5.33928 175.777 5.33928Z" fill="#EBA2A1"/>
<path d="M185.317 34.2274C185.881 34.2274 186.338 33.7432 186.338 33.1459C186.338 32.5485 185.881 32.0643 185.317 32.0643C184.754 32.0643 184.297 32.5485 184.297 33.1459C184.297 33.7432 184.754 34.2274 185.317 34.2274Z" fill="#92EAFF"/>
<path d="M178.163 45.424C179.293 45.424 180.209 44.453 180.209 43.2552C180.209 42.0575 179.293 41.0865 178.163 41.0865C177.032 41.0865 176.116 42.0575 176.116 43.2552C176.116 44.453 177.032 45.424 178.163 45.424Z" fill="#EBA2A1"/>
<path d="M185.795 13.2401H183.883V11.9081C183.871 11.791 183.819 11.6828 183.736 11.6042C183.653 11.5255 183.546 11.4821 183.435 11.4821C183.324 11.4821 183.216 11.5255 183.134 11.6042C183.051 11.6828 182.998 11.791 182.986 11.9081V13.2401H181.257C181.146 13.2529 181.044 13.3085 180.97 13.3962C180.896 13.484 180.854 13.5976 180.854 13.7154C180.854 13.8332 180.896 13.9468 180.97 14.0345C181.044 14.1223 181.146 14.1779 181.257 14.1907H182.986V16.0236C182.998 16.1407 183.051 16.2489 183.134 16.3275C183.216 16.4062 183.324 16.4496 183.435 16.4496C183.546 16.4496 183.653 16.4062 183.736 16.3275C183.819 16.2489 183.871 16.1407 183.883 16.0236V14.1907H185.795C185.906 14.1779 186.008 14.1223 186.082 14.0345C186.156 13.9468 186.198 13.8332 186.198 13.7154C186.198 13.5976 186.156 13.484 186.082 13.3962C186.008 13.3085 185.906 13.2529 185.795 13.2401Z" fill="#CECECE"/>
<path d="M178.157 20.9417V22.6152C178.157 22.7118 178.193 22.8045 178.258 22.8728C178.322 22.9411 178.41 22.9795 178.501 22.9795C178.592 22.9795 178.68 22.9411 178.744 22.8728C178.809 22.8045 178.845 22.7118 178.845 22.6152V20.9417C178.845 20.8451 178.809 20.7524 178.744 20.6841C178.68 20.6158 178.592 20.5774 178.501 20.5774C178.41 20.5774 178.322 20.6158 178.258 20.6841C178.193 20.7524 178.157 20.8451 178.157 20.9417Z" fill="#6EEA71"/>
<path d="M175.837 22.3875L176.954 23.5715C177.019 23.6402 177.107 23.6787 177.198 23.6787C177.29 23.6787 177.378 23.6402 177.443 23.5715C177.507 23.5028 177.544 23.4096 177.544 23.3125C177.544 23.2153 177.507 23.1222 177.443 23.0535L176.325 21.8695C176.261 21.8008 176.173 21.7622 176.081 21.7622C175.989 21.7622 175.901 21.8008 175.837 21.8695C175.772 21.9382 175.735 22.0313 175.735 22.1285C175.735 22.2256 175.772 22.3188 175.837 22.3875Z" fill="#6EEA71"/>
<path d="M175.165 25.1482H176.723C176.808 25.1371 176.885 25.0936 176.942 25.026C176.998 24.9584 177.029 24.8713 177.029 24.7811C177.029 24.6909 176.998 24.6038 176.942 24.5362C176.885 24.4686 176.808 24.4251 176.723 24.4139H175.165C175.081 24.4251 175.003 24.4686 174.947 24.5362C174.89 24.6038 174.859 24.6909 174.859 24.7811C174.859 24.8713 174.89 24.9584 174.947 25.026C175.003 25.0936 175.081 25.1371 175.165 25.1482Z" fill="#6EEA71"/>
<path d="M176.535 27.6016L177.652 26.4233C177.964 26.0874 177.475 25.5694 177.163 25.9053L176.046 27.0836C175.981 27.1523 175.945 27.2454 175.945 27.3426C175.945 27.4397 175.981 27.5329 176.046 27.6016C176.111 27.6703 176.199 27.7089 176.29 27.7089C176.382 27.7089 176.47 27.6703 176.535 27.6016Z" fill="#6EEA71"/>
<path d="M179.14 28.3131V26.6396C179.13 26.5501 179.089 26.4678 179.025 26.4081C178.961 26.3484 178.879 26.3154 178.794 26.3154C178.709 26.3154 178.626 26.3484 178.563 26.4081C178.499 26.4678 178.458 26.5501 178.447 26.6396V28.3131C178.458 28.4026 178.499 28.485 178.563 28.5447C178.626 28.6044 178.709 28.6373 178.794 28.6373C178.879 28.6373 178.961 28.6044 179.025 28.5447C179.089 28.485 179.13 28.4026 179.14 28.3131Z" fill="#6EEA71"/>
<path d="M181.455 26.8673L180.338 25.6833C180.026 25.3475 179.537 25.8655 179.849 26.2013L180.966 27.3853C181.031 27.454 181.119 27.4926 181.211 27.4926C181.302 27.4926 181.39 27.454 181.455 27.3853C181.52 27.3166 181.556 27.2234 181.556 27.1263C181.556 27.0291 181.52 26.936 181.455 26.8673Z" fill="#6EEA71"/>
<path d="M182.127 24.1066H180.548C180.463 24.1177 180.385 24.1612 180.329 24.2288C180.273 24.2964 180.242 24.3835 180.242 24.4737C180.242 24.5639 180.273 24.651 180.329 24.7186C180.385 24.7862 180.463 24.8297 180.548 24.8409H182.127C182.211 24.8297 182.289 24.7862 182.345 24.7186C182.402 24.651 182.433 24.5639 182.433 24.4737C182.433 24.3835 182.402 24.2964 182.345 24.2288C182.289 24.1612 182.211 24.1177 182.127 24.1066Z" fill="#6EEA71"/>
<path d="M180.762 21.6304L179.645 22.8087C179.589 22.8794 179.561 22.9694 179.564 23.0613C179.568 23.1533 179.604 23.2404 179.665 23.3058C179.726 23.3712 179.808 23.4102 179.894 23.4151C179.981 23.42 180.066 23.3905 180.134 23.3324L181.251 22.1996C181.557 21.8353 181.074 21.3173 180.762 21.6304Z" fill="#6EEA71"/>
<path d="M198.386 41.2572V43.4601C198.398 43.5787 198.451 43.6883 198.535 43.7679C198.619 43.8475 198.728 43.8916 198.84 43.8916C198.953 43.8916 199.061 43.8475 199.145 43.7679C199.229 43.6883 199.282 43.5787 199.294 43.4601V41.2572C199.282 41.1387 199.229 41.0291 199.145 40.9495C199.061 40.8698 198.953 40.8258 198.84 40.8258C198.728 40.8258 198.619 40.8698 198.535 40.9495C198.451 41.0291 198.398 41.1387 198.386 41.2572Z" fill="#6EEA71"/>
<path d="M195.33 43.1641L196.801 44.7238C196.888 44.8058 197.002 44.8494 197.118 44.8458C197.235 44.8421 197.345 44.7915 197.428 44.7043C197.51 44.617 197.558 44.4997 197.561 44.3764C197.565 44.253 197.523 44.133 197.446 44.0407L195.974 42.4811C195.887 42.3991 195.774 42.3555 195.657 42.3591C195.541 42.3627 195.43 42.4133 195.348 42.5006C195.266 42.5879 195.218 42.7051 195.215 42.8285C195.211 42.9518 195.252 43.0719 195.33 43.1641Z" fill="#6EEA71"/>
<path d="M194.449 46.8015H196.528C196.649 46.8015 196.765 46.7505 196.85 46.6598C196.936 46.569 196.984 46.446 196.984 46.3176C196.984 46.1893 196.936 46.0663 196.85 45.9755C196.765 45.8848 196.649 45.8338 196.528 45.8338H194.449C194.328 45.8338 194.212 45.8848 194.126 45.9755C194.04 46.0663 193.992 46.1893 193.992 46.3176C193.992 46.446 194.04 46.569 194.126 46.6598C194.212 46.7505 194.328 46.8015 194.449 46.8015Z" fill="#6EEA71"/>
<path d="M196.248 50.0346L197.72 48.475C197.79 48.3817 197.825 48.2643 197.819 48.1452C197.812 48.0262 197.764 47.9139 197.684 47.8299C197.604 47.746 197.498 47.6962 197.386 47.6902C197.273 47.6843 197.163 47.7225 197.075 47.7976L195.604 49.3515C195.526 49.4438 195.485 49.5639 195.488 49.6872C195.492 49.8105 195.54 49.9278 195.622 50.0151C195.704 50.1023 195.815 50.153 195.931 50.1566C196.048 50.1602 196.161 50.1166 196.248 50.0346Z" fill="#6EEA71"/>
<path d="M188.21 27.9959C187.05 26.0074 186.684 23.656 187.185 21.4104C187.686 19.1647 189.016 17.1897 190.911 15.8789C192.806 14.5682 195.127 14.0179 197.41 14.3379C199.694 14.6578 201.773 15.8245 203.232 17.6053C204.692 19.3861 205.426 21.6503 205.287 23.9467C205.148 26.243 204.147 28.4029 202.484 29.9958C200.82 31.5888 198.616 32.4978 196.31 32.5417C194.005 32.5856 191.767 31.7613 190.044 30.2329L187.265 31.142L188.21 27.9959Z" fill="white" stroke="black" stroke-width="0.75" stroke-miterlimit="10"/>
<path d="M191.708 22.5159C191.729 23.2377 192.013 23.9272 192.505 24.4562C193.119 25.1329 193.787 25.7587 194.503 26.3273C194.781 26.5629 195.095 26.829 195.42 27.1145C195.506 27.1897 195.617 27.2312 195.731 27.2312C195.846 27.2312 195.956 27.1897 196.042 27.1145C196.367 26.8373 196.681 26.5601 196.959 26.3273C197.674 25.7572 198.342 25.1316 198.957 24.4562C199.449 23.9272 199.733 23.2377 199.754 22.5159C199.766 21.8848 199.538 21.2727 199.115 20.8029C198.911 20.5804 198.662 20.403 198.385 20.2822C198.108 20.1614 197.809 20.0999 197.506 20.1016C197.048 20.0999 196.602 20.2533 196.242 20.5368C196.047 20.6893 195.874 20.8695 195.731 21.0718C195.588 20.8695 195.416 20.6893 195.22 20.5368C194.86 20.2533 194.414 20.0999 193.956 20.1016C193.653 20.0996 193.354 20.1609 193.077 20.2817C192.8 20.4026 192.551 20.5801 192.347 20.8029C191.924 21.2727 191.696 21.8848 191.708 22.5159Z" fill="#EBA2A1"/>
<path d="M199.681 50.9739V48.771C199.669 48.6524 199.615 48.5428 199.532 48.4632C199.448 48.3836 199.339 48.3395 199.227 48.3395C199.114 48.3395 199.006 48.3836 198.922 48.4632C198.838 48.5428 198.785 48.6524 198.773 48.771V50.9739C198.785 51.0924 198.838 51.202 198.922 51.2816C199.006 51.3613 199.114 51.4053 199.227 51.4053C199.339 51.4053 199.448 51.3613 199.532 51.2816C199.615 51.202 199.669 51.0924 199.681 50.9739Z" fill="#6EEA71"/>
<path d="M202.737 49.0669L201.265 47.5073C201.178 47.4253 201.065 47.3816 200.949 47.3853C200.832 47.3889 200.721 47.4395 200.639 47.5268C200.557 47.614 200.509 47.7313 200.506 47.8547C200.502 47.978 200.543 48.0981 200.621 48.1903L202.093 49.75C202.18 49.832 202.293 49.8756 202.409 49.872C202.526 49.8683 202.636 49.8177 202.719 49.7305C202.801 49.6432 202.849 49.5259 202.852 49.4026C202.856 49.2792 202.814 49.1592 202.737 49.0669Z" fill="#6EEA71"/>
<path d="M203.618 45.4296H201.539C201.428 45.4425 201.324 45.4988 201.249 45.5876C201.174 45.6763 201.132 45.7914 201.132 45.9106C201.132 46.0299 201.174 46.1449 201.249 46.2337C201.324 46.3225 201.428 46.3787 201.539 46.3916H203.618C203.73 46.3787 203.834 46.3225 203.909 46.2337C203.984 46.1449 204.025 46.0299 204.025 45.9106C204.025 45.7914 203.984 45.6763 203.909 45.5876C203.834 45.4988 203.73 45.4425 203.618 45.4296Z" fill="#6EEA71"/>
<path d="M201.819 42.1908L200.358 43.7505C200.281 43.8427 200.239 43.9628 200.243 44.0861C200.246 44.2094 200.294 44.3267 200.376 44.414C200.459 44.5012 200.569 44.5519 200.686 44.5555C200.802 44.5591 200.916 44.5155 201.003 44.4335L202.474 42.8739C202.56 42.7818 202.607 42.6575 202.606 42.5283C202.605 42.3991 202.556 42.2757 202.469 42.1851C202.382 42.0945 202.265 42.0442 202.143 42.0453C202.021 42.0464 201.904 42.0987 201.819 42.1908Z" fill="#6EEA71"/>
<path d="M162.22 33.7378V35.4113C162.23 35.5008 162.271 35.5832 162.335 35.6429C162.399 35.7026 162.481 35.7355 162.566 35.7355C162.651 35.7355 162.733 35.7026 162.797 35.6429C162.861 35.5832 162.902 35.5008 162.913 35.4113V33.7378C162.902 33.6483 162.861 33.566 162.797 33.5063C162.733 33.4466 162.651 33.4136 162.566 33.4136C162.481 33.4136 162.399 33.4466 162.335 33.5063C162.271 33.566 162.23 33.6483 162.22 33.7378Z" fill="#6EEA71"/>
<path d="M159.916 35.1894L161.033 36.3733C161.345 36.7035 161.839 36.1855 161.522 35.8553L160.404 34.6714C160.34 34.6027 160.252 34.5641 160.16 34.5641C160.068 34.5641 159.98 34.6027 159.916 34.6714C159.851 34.7401 159.814 34.8332 159.814 34.9304C159.814 35.0275 159.851 35.1207 159.916 35.1894Z" fill="#6EEA71"/>
<path d="M159.244 37.9501H160.823C160.908 37.9389 160.985 37.8954 161.042 37.8278C161.098 37.7602 161.129 37.6731 161.129 37.5829C161.129 37.4927 161.098 37.4056 161.042 37.338C160.985 37.2704 160.908 37.2269 160.823 37.2158H159.244C159.159 37.2269 159.082 37.2704 159.025 37.338C158.969 37.4056 158.938 37.4927 158.938 37.5829C158.938 37.6731 158.969 37.7602 159.025 37.8278C159.082 37.8954 159.159 37.9389 159.244 37.9501Z" fill="#6EEA71"/>
<path d="M160.609 40.4148L161.721 39.2308C162.037 38.9007 161.549 38.3827 161.232 38.7128L160.12 39.8968C160.055 39.9655 160.019 40.0587 160.019 40.1558C160.019 40.2529 160.055 40.3461 160.12 40.4148C160.185 40.4835 160.273 40.5221 160.364 40.5221C160.456 40.5221 160.544 40.4835 160.609 40.4148Z" fill="#6EEA71"/>
<path d="M163.219 41.1149V39.4414C163.208 39.3519 163.167 39.2695 163.103 39.2098C163.04 39.1501 162.957 39.1172 162.872 39.1172C162.787 39.1172 162.705 39.1501 162.641 39.2098C162.577 39.2695 162.536 39.3519 162.526 39.4414V41.1149C162.536 41.2044 162.577 41.2867 162.641 41.3464C162.705 41.4061 162.787 41.4391 162.872 41.4391C162.957 41.4391 163.04 41.4061 163.103 41.3464C163.167 41.2867 163.208 41.2044 163.219 41.1149Z" fill="#6EEA71"/>
<path d="M165.534 39.6691L164.417 38.4851C164.352 38.4165 164.264 38.3779 164.172 38.3779C164.081 38.3779 163.993 38.4165 163.928 38.4851C163.863 38.5538 163.827 38.647 163.827 38.7441C163.827 38.8413 163.863 38.9344 163.928 39.0031L165.045 40.1871C165.357 40.5173 165.851 39.9993 165.534 39.6691Z" fill="#6EEA71"/>
<path d="M166.206 36.9084H164.627C164.535 36.9084 164.448 36.9468 164.383 37.0151C164.319 37.0834 164.283 37.1761 164.283 37.2727C164.283 37.3693 164.319 37.462 164.383 37.5303C164.448 37.5986 164.535 37.637 164.627 37.637H166.206C166.297 37.637 166.384 37.5986 166.449 37.5303C166.513 37.462 166.55 37.3693 166.55 37.2727C166.55 37.1761 166.513 37.0834 166.449 37.0151C166.384 36.9468 166.297 36.9084 166.206 36.9084Z" fill="#6EEA71"/>
<path d="M164.836 34.4493L163.719 35.6333C163.407 35.9691 163.896 36.4871 164.207 36.1513L165.325 34.9673C165.642 34.6371 165.153 34.1191 164.836 34.4493Z" fill="#6EEA71"/>
<path d="M155.613 71.6082C157.494 71.6082 159.019 69.9924 159.019 67.9993C159.019 66.0062 157.494 64.3904 155.613 64.3904C153.732 64.3904 152.208 66.0062 152.208 67.9993C152.208 69.9924 153.732 71.6082 155.613 71.6082Z" fill="white"/>
<path d="M154.028 70.094L151.81 75.2739H159.083L156.698 69.9745L154.028 70.094Z" fill="white"/>
<g opacity="0.66">
<path opacity="0.66" d="M3.80853 151.015C3.15858 150.053 2.64291 149.609 2.53011 149.074C1.67604 145.089 0.886428 141.042 0.107558 137.018C-0.322163 134.792 0.548022 133.318 2.49788 132.43C6.48354 130.619 10.4477 128.758 14.428 126.925C15.266 126.538 16.2114 126.356 16.9419 125.787C17.6724 125.218 18.607 124.404 18.5533 123.76C18.4996 122.929 17.667 122.019 16.9687 121.409C16.2704 120.8 15.3089 120.618 14.514 120.146C10.5928 117.801 10.1201 113.207 13.5525 110.145C15.9159 108.038 18.6823 106.951 21.8138 107.543C25.7458 108.289 27.7225 112.319 26.1111 116.161C25.8908 116.679 25.4772 117.174 25.4557 117.692C25.4128 118.671 25.2624 120.038 25.7726 120.539C26.1775 120.843 26.6394 121.051 27.1269 121.149C27.6144 121.247 28.1161 121.233 28.5981 121.108C30.2095 120.658 31.6545 119.679 33.2122 119.036C35.7637 117.988 38.3474 117.026 40.9203 116.053C42.4566 115.484 43.692 115.99 44.3366 117.527C45.6258 120.613 46.8021 123.755 48 126.885C48.2256 127.483 48.188 128.217 48.5049 128.735C49.1172 129.743 49.8961 130.642 50.6051 131.581C51.5592 130.808 52.4569 129.959 53.2909 129.043C53.9086 128.263 54.1342 127.142 54.7036 126.305C56.7609 123.271 60.3115 122.787 62.8576 125.28C64.0351 126.382 64.9479 127.765 65.5205 129.315C66.0932 130.866 66.309 132.538 66.1503 134.194C65.7528 138.845 61.6275 141.264 57.6579 139.22C56.213 138.475 54.811 137.797 53.4574 139.175C52.0232 140.632 52.6248 142.254 53.3661 143.843C55.1226 147.599 56.82 151.385 58.6141 155.125C59.4198 156.832 58.9149 157.88 57.3947 158.54C52.743 160.544 48.0913 162.524 43.4288 164.46C43.12 164.554 42.7952 164.574 42.4782 164.518C42.1612 164.462 41.8601 164.331 41.5971 164.135C41.3071 163.873 41.3876 162.929 41.5434 162.365C41.8174 161.363 42.3599 160.447 42.6553 159.451C44.1378 154.453 41.0439 150.03 36.1074 150.104C34.5781 150.085 33.0613 150.398 31.6499 151.022C30.2386 151.647 28.9624 152.57 27.8998 153.736C24.2471 157.72 25.4235 163.64 30.2632 165.803C30.765 165.989 31.2503 166.221 31.7135 166.498C33.3519 167.636 33.47 169.423 31.7458 170.289C26.5175 172.899 21.2319 175.377 15.8891 177.723C15.3197 177.979 13.8533 177.336 13.5632 176.709C11.291 171.786 9.17467 166.782 7.11738 161.762C7.00652 161.443 6.97011 161.1 7.01127 160.763C7.05242 160.426 7.16992 160.105 7.35373 159.826C7.70825 159.496 8.58918 159.707 9.21227 159.826C9.64472 159.979 10.0592 160.183 10.4477 160.435C11.3975 160.913 12.4397 161.149 13.4909 161.124C14.5421 161.098 15.5731 160.813 16.5014 160.289C17.4297 159.766 18.2294 159.019 18.8367 158.11C19.4439 157.2 19.8417 156.152 19.9983 155.051C20.3673 153.011 20.1952 150.904 19.501 148.962C18.8068 147.021 17.6178 145.321 16.0663 144.053C12.6393 141.133 8.0574 142.488 5.90879 146.859C5.26958 148.117 4.64649 149.347 3.80853 151.015Z" fill="#2AC3D8" fill-opacity="0.3"/>
<path opacity="0.66" d="M8.76148 145.768C8.68004 145.93 8.59664 146.096 8.511 146.266C8.40039 146.117 8.29605 145.983 8.19972 145.859C7.86889 145.433 7.63244 145.128 7.56038 144.786C6.70631 140.802 5.9167 136.754 5.13783 132.73M8.76148 145.768C8.86548 145.904 8.97782 146.054 9.09456 146.219C9.80708 144.802 10.3666 143.699 10.9391 142.572C13.0877 138.2 17.6696 136.846 21.0966 139.766C22.6481 141.034 23.8371 142.733 24.5313 144.675C25.2255 146.616 25.3976 148.724 25.0285 150.763C24.872 151.865 24.4741 152.913 23.8669 153.822C23.2597 154.732 22.46 155.478 21.5317 156.002C20.6034 156.525 19.5724 156.811 18.5212 156.836C17.47 156.862 16.4278 156.626 15.478 156.148C15.0895 155.895 14.675 155.691 14.2425 155.539C14.19 155.529 14.1357 155.518 14.08 155.507C13.4747 155.388 12.7086 155.237 12.384 155.539C12.2002 155.817 12.0827 156.139 12.0415 156.476C12.0004 156.813 12.0368 157.155 12.1477 157.474C14.2049 162.495 16.3213 167.498 18.5935 172.422C18.8835 173.048 20.35 173.691 20.9193 173.435C26.2622 171.09 31.5478 168.612 36.776 166.001C38.5003 165.136 38.3821 163.349 36.7438 162.21C36.2805 161.934 35.7952 161.702 35.2935 161.516C30.4538 159.353 29.2774 153.433 32.93 149.448C33.9927 148.283 35.2688 147.359 36.6802 146.735C38.0915 146.11 39.6084 145.798 41.1377 145.817C46.0741 145.743 49.1681 150.165 47.6856 155.163C47.5439 155.641 47.3454 156.1 47.1469 156.56C46.9315 157.058 46.7162 157.556 46.5737 158.078C46.4179 158.641 46.3373 159.586 46.6274 159.848C46.8904 160.044 47.1914 160.174 47.5085 160.231C47.8255 160.287 48.1503 160.267 48.4591 160.172C53.1216 158.237 57.7733 156.256 62.425 154.252C63.9452 153.592 64.4501 152.545 63.6443 150.837C62.5325 148.519 61.4577 146.184 60.3831 143.849C59.7237 142.416 59.0643 140.984 58.3964 139.555C57.6551 137.967 57.0535 136.345 58.4877 134.887C59.8413 133.51 61.2433 134.187 62.6882 134.933C66.6578 136.976 70.7831 134.557 71.1806 129.907C71.3393 128.251 71.1234 126.578 70.5508 125.028C69.9782 123.478 69.0654 122.095 67.8878 120.993C65.3417 118.5 61.7912 118.983 59.7339 122.017C59.4698 122.405 59.2797 122.855 59.0901 123.303C58.8709 123.821 58.6524 124.337 58.3212 124.755C57.6004 125.547 56.832 126.289 56.0209 126.975C56.0254 126.981 56.0299 126.987 56.0345 126.993L55.6354 127.294L55.3205 126.906C55.3239 126.903 55.3274 126.9 55.3309 126.897C55.2257 126.762 55.1197 126.627 55.0137 126.492C54.4933 125.83 53.9719 125.166 53.5352 124.448C53.3522 124.149 53.2874 123.778 53.2218 123.402C53.1739 123.127 53.1256 122.85 53.0302 122.598C52.8373 122.094 52.6449 121.589 52.4524 121.084C51.4504 118.456 50.4483 115.828 49.3669 113.24C48.7223 111.703 47.4868 111.196 45.9506 111.766C45.5989 111.899 45.247 112.032 44.895 112.164C42.6719 113.004 40.4452 113.844 38.2425 114.748C37.6344 114.999 37.0434 115.302 36.4531 115.604C35.5312 116.075 34.6107 116.546 33.6283 116.82C33.1464 116.946 32.6447 116.96 32.1572 116.862C31.6696 116.763 31.2078 116.555 30.8029 116.251C30.3555 115.812 30.416 114.708 30.4667 113.782C30.4738 113.652 30.4807 113.526 30.486 113.405M8.76148 145.768C9.42037 144.459 9.95042 143.414 10.4918 142.348C11.6185 140.058 13.4036 138.518 15.4026 137.953C17.4104 137.386 19.5823 137.821 21.4169 139.382C23.039 140.709 24.2788 142.483 25.0021 144.506C25.7248 146.528 25.9046 148.721 25.5222 150.843C25.3544 152.014 24.9306 153.129 24.2828 154.1C23.6332 155.073 22.7757 155.874 21.7773 156.437C20.7786 157 19.6676 157.309 18.5333 157.336C17.399 157.364 16.2755 157.109 15.2532 156.595L15.2286 156.582L15.2056 156.567C14.8602 156.343 14.493 156.16 14.1106 156.023C14.065 156.014 14.0193 156.005 13.9737 155.996C13.6991 155.942 13.4266 155.888 13.1742 155.869C13.0245 155.857 12.9075 155.86 12.8223 155.875C12.7907 155.881 12.7682 155.887 12.7528 155.893C12.6398 156.087 12.566 156.306 12.5379 156.536C12.5064 156.794 12.5334 157.055 12.6158 157.298C14.6701 162.311 16.7817 167.302 19.0475 172.212C19.0721 172.265 19.1474 172.363 19.3045 172.485C19.4545 172.6 19.6462 172.711 19.8518 172.801C20.0579 172.891 20.2616 172.953 20.4323 172.979C20.5171 172.992 20.5859 172.995 20.6379 172.992C20.6634 172.99 20.6824 172.987 20.6957 172.984C20.709 172.982 20.7145 172.979 20.7142 172.979L20.7184 172.977C26.0537 170.635 31.3318 168.161 36.5527 165.554C37.2783 165.189 37.5336 164.686 37.5211 164.222C37.5079 163.732 37.1943 163.137 36.4726 162.631C36.0399 162.374 35.5872 162.158 35.1197 161.984L35.1044 161.979L35.0895 161.972C29.9281 159.665 28.686 153.338 32.561 149.111C33.6693 147.895 35.0018 146.931 36.4779 146.277C37.9521 145.625 39.5376 145.298 41.1371 145.316C43.7624 145.279 45.926 146.441 47.2283 148.301C48.5293 150.159 48.9453 152.675 48.1649 155.305C48.0145 155.813 47.8051 156.297 47.6095 156.75L47.5806 156.816C47.3724 157.298 47.1823 157.747 47.056 158.209L47.0556 158.211C46.9885 158.454 46.9362 158.788 46.9333 159.081C46.9319 159.227 46.9431 159.345 46.9621 159.428C46.968 159.454 46.9737 159.472 46.978 159.484C47.1667 159.613 47.377 159.7 47.5957 159.738C47.8272 159.779 48.0644 159.767 48.2912 159.701C52.943 157.77 57.5846 155.793 62.2272 153.793C62.9268 153.489 63.2934 153.138 63.4405 152.757C63.5868 152.379 63.5653 151.842 63.1927 151.052C62.0799 148.732 61.0019 146.39 59.9259 144.052C59.2668 142.62 58.6085 141.189 57.9434 139.767L57.9433 139.767C57.5736 138.974 57.1997 138.098 57.1279 137.213C57.053 136.29 57.3065 135.375 58.1313 134.537C58.9185 133.736 59.7632 133.508 60.6177 133.618C61.4201 133.722 62.2101 134.124 62.9171 134.488C64.7602 135.437 66.6009 135.337 68.0198 134.5C69.4419 133.66 70.4958 132.047 70.6824 129.864L70.6828 129.859C70.8345 128.277 70.6282 126.68 70.0818 125.201C69.5355 123.722 68.6655 122.405 67.5462 121.358L67.5379 121.35L67.538 121.35C66.364 120.2 64.9889 119.761 63.6915 119.928C62.39 120.096 61.1077 120.882 60.1477 122.298L60.1473 122.299C59.9122 122.644 59.7405 123.049 59.5455 123.51C59.5324 123.541 59.5192 123.572 59.5059 123.603C59.3035 124.08 59.0697 124.616 58.7131 125.066L58.7025 125.079L58.691 125.092C57.8402 126.027 56.9241 126.893 55.9504 127.682L55.5483 128.008L55.2364 127.595C55.0456 127.343 54.8443 127.086 54.6394 126.826C54.112 126.154 53.5612 125.453 53.1079 124.708C52.8961 124.361 52.8146 123.963 52.7564 123.642C52.7462 123.585 52.7366 123.53 52.7273 123.478C52.679 123.203 52.6399 122.98 52.5629 122.776C52.3696 122.271 52.1771 121.766 51.9846 121.261C50.9826 118.633 49.9839 116.013 48.9058 113.433C48.6199 112.752 48.2295 112.357 47.7972 112.173C47.3639 111.988 46.8084 111.981 46.126 112.234C45.7742 112.367 45.4225 112.5 45.0708 112.632C42.8474 113.472 40.6281 114.31 38.4326 115.211C37.8454 115.453 37.2786 115.743 36.6916 116.043C36.5232 116.13 36.3531 116.217 36.1804 116.303C35.4183 116.687 34.618 117.063 33.7627 117.302L33.7543 117.304L33.7543 117.304C33.199 117.449 32.6204 117.465 32.0584 117.352C31.4965 117.239 30.966 116.999 30.5026 116.651L30.4762 116.631L30.4527 116.608C30.237 116.396 30.1183 116.122 30.0489 115.862C29.9787 115.598 29.9485 115.309 29.9374 115.027C29.9207 114.604 29.9462 114.138 29.9683 113.736C29.9752 113.611 29.9817 113.492 29.9865 113.383L30.486 113.405M8.76148 145.768C8.69952 145.687 8.64052 145.611 8.58532 145.54C8.51632 145.451 8.45325 145.37 8.39773 145.296C8.17478 145 8.0811 144.832 8.04963 144.683L8.04928 144.681C7.19639 140.702 6.40765 136.66 5.62876 132.635M30.486 113.405C30.5002 113.062 30.6867 112.728 30.8749 112.392C30.9707 112.221 31.067 112.049 31.1413 111.874M30.486 113.405L29.9864 113.384C30.0021 113.007 30.1577 112.67 30.2969 112.406C30.354 112.298 30.4067 112.204 30.4556 112.117C30.5423 111.962 30.6166 111.83 30.6807 111.679M31.1413 111.874C32.7528 108.032 30.7761 104.001 26.8441 103.256M31.1413 111.874L30.6812 111.678C30.681 111.679 30.6808 111.679 30.6807 111.679M31.1413 111.874L30.6802 111.68C30.6804 111.68 30.6805 111.68 30.6807 111.679M26.8441 103.256C23.7125 102.664 20.9462 103.751 18.5827 105.857M26.8441 103.256L26.751 103.747C26.751 103.747 26.7511 103.747 26.7512 103.747L26.8441 103.256ZM18.5827 105.857C15.1503 108.92 15.623 113.513 19.5442 115.858M18.5827 105.857L18.9156 106.23C18.9155 106.23 18.9155 106.23 18.9154 106.23L18.5827 105.857ZM19.5442 115.858C19.8633 116.048 20.2092 116.191 20.5541 116.333C21.0686 116.546 21.581 116.757 21.999 117.122C22.6973 117.731 23.5299 118.642 23.5836 119.473C23.6373 120.116 22.7027 120.93 21.9722 121.499C21.493 121.873 20.9213 122.08 20.3482 122.287C20.0476 122.396 19.7466 122.505 19.4583 122.638C17.9858 123.316 16.5154 123.998 15.0454 124.68C12.5419 125.841 10.0393 127.002 7.52816 128.142M19.5442 115.858L19.8009 115.429C19.8007 115.429 19.8005 115.429 19.8003 115.429C19.8001 115.429 19.7999 115.429 19.7997 115.429L19.5442 115.858ZM7.52816 128.142C5.5783 129.03 4.70811 130.504 5.13783 132.73M7.52816 128.142L7.73538 128.597C7.73523 128.597 7.73507 128.597 7.73491 128.597M7.52816 128.142L7.73491 128.597M5.13783 132.73L5.62876 132.635M5.13783 132.73L5.62872 132.635C5.62874 132.635 5.62875 132.635 5.62876 132.635M5.62876 132.635C5.42995 131.606 5.54088 130.804 5.881 130.171C6.22248 129.536 6.82832 129.01 7.73491 128.597M5.62876 132.635L24.0823 119.436C24.105 119.723 24.0165 119.989 23.9007 120.212C23.783 120.438 23.6192 120.652 23.4443 120.848C23.0949 121.237 22.6494 121.605 22.2795 121.894C21.8544 122.225 21.3792 122.434 20.9338 122.604C20.7805 122.663 20.6347 122.715 20.494 122.766C20.2047 122.871 19.9367 122.968 19.668 123.092L19.6674 123.092C18.1976 123.769 16.7284 124.45 15.2587 125.132C12.7537 126.294 10.2474 127.456 7.73491 128.597M5.62876 132.635L30.6807 111.679" stroke="black"/>
</g>
</g>
<defs>
<clipPath id="clip0">
<rect width="275" height="202" fill="white"/>
</clipPath>
</defs>
</svg>
